<ttFont>
          <CharString index="0">
            rmoveto
            -54 239 54 vlineto
            -80 13 4 20 33 95 rlineto
            217 hlineto
            32 -92 5 -22 -76 -14 rlineto
            -54 282 54 vlineto
            -67 14 -222 586 rlineto
            -94 hlineto
            -208 -586 rlineto
            325 186 rmoveto
            -169 hlineto
            78 227 4 22 4 -2 3 -19 rlineto
            return
          </CharString>
          <CharString index="1">
            rmoveto
            -51 492 185 -60 vlineto
            -24 -116 rlineto
            -136 hlineto
            -23 -27 2 2 -19 hvcurveto
            222 122 vlineto
            20 -69 rlineto
            49 203 -49 hlineto
            -20 -66 rlineto
            -122 210 hlineto
            64 7 rlineto
            131 hlineto
            24 -111 rlineto
            61 179 -483 -51 hlineto
            -21 callsubr
            -508 vlineto
            return
          </CharString>
          <CharString index="2">
            rmoveto
            132 119 60 98 78 -54 25 -98 17 hvcurveto
            -113 20 rlineto
            45 14 vlineto
            113 89 68 100 28 -9 36 -22 30 hvcurveto
            17 11 -6 -7 15 hvcurveto
            27 -12 rlineto
            10 7 22 20 30 vvcurveto
            31 -16 16 -32 -37 -46 -31 -10 -12 vhcurveto
            18 -27 -36 12 -48 hhcurveto
            -116 -91 -64 -112 -61 37 -67 85 -19 hvcurveto
            -25 -15 -28 -28 -32 vvcurveto
            -18 5 -17 10 -11 vhcurveto
            -38 -22 -59 -37 -59 vvcurveto
            -80 86 -31 115 vhcurveto
            6 410 rmoveto
            -56 -19 24 71 76 18 23 61 60 14 -30 -63 -83 -23 -18 -55 hvcurveto
            16 -346 rmoveto
            -87 -30 18 45 30 17 28 17 19 hvcurveto
            149 -24 rlineto
            49 -9 8 -21 -25 vvcurveto
            -36 -37 -25 -86 vhcurveto
            endchar
          </CharString>
          <CharString index="3">
            rmoveto
            30 -39 117 75 120 -76 38 43 -108 109 rlineto
            15 -15 -13 9 -14 hhcurveto
            -17 -17 -14 -18 -18 hvcurveto
            return
          </CharString>
          <CharString index="4">
            rmoveto
            61 7 rlineto
            -1 4 0 2 2 vvcurveto
            13 6 5 26 13 vhcurveto
            37 20 15 22 28 vvcurveto
            52 -48 28 -81 -56 -16 -13 -20 -9 2 -12 13 -16 vhcurveto
            5 19 20 3 18 hhcurveto
            29 13 -8 -16 -17 -12 -9 -16 -9 hvcurveto
            -29 -17 -11 -11 -15 vvcurveto
            -9 4 -10 7 -13 vhcurveto
            return
          </CharString>
          <CharString index="5">
            -63 callsubr
            32 callsubr
            -16 hhcurveto
            -10 -11 -6 -33 -40 hvcurveto
            return
          </CharString>
          <CharString index="6">
            -23 callgsubr
            -67 99 -154 -39 callgsubr
            hvcurveto
            18 69 -58 callsubr
            return
          </CharString>
          <CharString index="7">
            rmoveto
            16 callgsubr
            16 callsubr
            hvcurveto
            endchar
          </CharString>
          <CharString index="8">
            266 30 callsubr
            352 vlineto
            7 29 31 3 26 hhcurveto
            66 22 -20 -59 hvcurveto
            -283 -19 callgsubr
            263 50 vlineto
            -76 -47 callgsubr
            93 -48 48 -90 -54 -64 7 callsubr
            2 -21 42 -165 26 callgsubr
            79 -15 rlineto
            -346 vlineto
            -79 -14 rlineto
            return
          </CharString>
          <CharString index="9">
            rmoveto
            41 -25 14 -8 6 vhcurveto
            -66 -44 rlineto
            -15 vlineto
            9 -8 7 -8 -15 vvcurveto
            -35 -34 -36 -39 -29 vhcurveto
            111 vlineto
            -35 14 -161 -25 rlineto
            -50 vlineto
            81 -16 rlineto
            -327 vlineto
            -10 -20 -35 -8 -27 hhcurveto
            -73 -22 22 77 hvcurveto
            323 vlineto
            -34 14 -161 -25 rlineto
            -50 vlineto
            81 -16 rlineto
            -285 vlineto
            -93 50 -47 98 50 59 21 30 33 vhcurveto
            -32 callgsubr
            256 vlineto
            121 71 35 57 43 vvcurveto
            return
          </CharString>
          <CharString index="10">
            rmoveto
            17 callgsubr
            hvcurveto
            301 vlineto
            123 43 27 61 34 -1 callsubr
            -45 rlineto
            -15 vlineto
            10 -8 6 -7 -16 vvcurveto
            -31 -11 -8 -55 vhcurveto
            -168 -53 hlineto
            80 -17 rlineto
            -300 vlineto
            -161 -35 -54 -106 -122 -35 39 176 vhcurveto
            301 34 callsubr
            -77 callgsubr
            vhcurveto
            return
          </CharString>
          <CharString index="11">
            rmoveto
            -181 vlineto
            -12 -26 -27 -8 -46 hhcurveto
            -124 -55 73 192 179 53 87 139 60 38 -13 -5 12 hvcurveto
            24 -109 rlineto
            65 171 hlineto
            11 -32 -66 20 -97 hhcurveto
            -204 -132 -141 -212 -218 100 -108 194 82 47 21 20 32 hvcurveto
            11 hlineto
            26 -26 rlineto
            47 260 hlineto
            47 15 rlineto
            54 -245 -51 vlineto
            endchar
          </CharString>
          <CharString index="12">
            rmoveto
            -67 -24 rlineto
            0 22 -139 144 138 17 150 0 vhcurveto
            -39 14 rlineto
            0 -18 -84 -92 -91 -14 83 0 vhcurveto
            return
          </CharString>
          <CharString index="13">
            rmoveto
            103 hlineto
            151 399 4 22 rlineto
            6 hlineto
            4 -21 159 -400 rlineto
            103 hlineto
            171 589 62 14 rlineto
            54 -240 -54 vlineto
            84 -14 -2 -15 -103 -399 -6 -26 rlineto
            -5 hlineto
            -6 26 -151 400 -3 14 79 14 rlineto
            54 -283 -54 vlineto
            69 -14 18 -48 -138 -366 -6 -27 rlineto
            -5 hlineto
            -5 27 -103 397 -3 17 80 14 rlineto
            54 -279 -54 vlineto
            64 -14 rlineto
            endchar
          </CharString>
          <CharString index="14">
            -37 callsubr
            178 vlineto
            181 333 68 34 callgsubr
            -130 -250 rlineto
            -11 hlineto
            -130 246 rlineto
            16 vlineto
            68 20 callsubr
            return
          </CharString>
          <CharString index="15">
            rmoveto
            -26 callgsubr
            -80 -26 callsubr
            80 17 rlineto
            52 -283 -52 vlineto
            80 -25 callgsubr
            return
          </CharString>
          <CharString index="16">
            -57 callgsubr
            15 hvcurveto
            36 57 -31 28 -72 -36 -87 28 rlineto
            7 -25 -31 8 -20 hhcurveto
            -28 -26 -12 -26 -15 hvcurveto
            return
          </CharString>
          <CharString index="17">
            9 callsubr
            -7 17 -282 445 -55 callgsubr
            return
          </CharString>
          <CharString index="18">
            -76 callsubr
            220 hmoveto
            -68 callsubr
            return
          </CharString>
          <CharString index="19">
            686 rmoveto
            22 -12 -10 25 -27 hhcurveto
            -18 -27 -17 -37 -18 hvcurveto
            132 -147 42 29 rlineto
            106 125 rmoveto
            22 -11 -10 25 -27 hhcurveto
            -18 -27 -17 -37 -18 hvcurveto
            132 -147 42 29 rlineto
            return
          </CharString>
          <CharString index="20">
            411 hlineto
            -5 153 rlineto
            -63 hlineto
            -17 -86 rlineto
            -190 hlineto
            7 16 252 334 rlineto
            78 -383 vlineto
            5 -144 rlineto
            60 hlineto
            19 77 rlineto
            162 hlineto
            -5 -12 -253 -347 rlineto
            return
          </CharString>
          <CharString index="21">
            -44 callsubr
            -17 -17 12 -14 hhcurveto
            -32 -17 -29 -39 -8 1 -8 1 -8 hvcurveto
            return
          </CharString>
          <CharString index="22">
            296 hlineto
            205 127 126 209 207 -116 106 -205 hvcurveto
            -307 -51 hlineto
            -21 callsubr
            -508 vlineto
            -81 -19 rlineto
            258 16 rmoveto
            -20 -21 2 2 -14 hvcurveto
            505 vlineto
            2 20 23 0 25 hhcurveto
            128 88 -45 -192 -210 -53 -64 -176 hvcurveto
            return
          </CharString>
          <CharString index="23">
            -72 14 rlineto
            425 vlineto
            -32 13 -163 26 callgsubr
            81 -15 rlineto
            -346 vlineto
            return
          </CharString>
          <CharString index="24">
            rmoveto
            -166 vlineto
            -9 15 52 -22 71 hhcurveto
            132 38 56 78 hvcurveto
            462 vlineto
            78 17 rlineto
            52 -286 -52 vlineto
            86 -18 rlineto
            -466 vlineto
            -34 -10 -23 -47 -24 -16 8 0 vhcurveto
            -27 117 rlineto
            endchar
          </CharString>
          <CharString index="25">
            825 rmoveto
            -35 -52 30 -26 72 33 90 -26 rlineto
            -6 25 28 -8 23 hhcurveto
            28 23 12 24 15 hvcurveto
            36 52 -31 26 -72 -33 -87 25 rlineto
            7 -25 -31 7 -20 hhcurveto
            -28 -26 -11 -24 -15 hvcurveto
            -4 -245 -104 callsubr
            return
          </CharString>
          <CharString index="26">
            872 rmoveto
            27 26 6 31 24 hvcurveto
            36 44 -33 29 -75 -33 -92 27 rlineto
            7 -24 -18 22 callgsubr
            -26 -5 -31 -24 hvcurveto
            -36 -45 33 -29 74 33 93 -26 rlineto
            -7 24 18 -4 20 hhcurveto
            -243 -159 -102 callsubr
            return
          </CharString>
          <CharString index="27">
            -129 -139 -155 66 -97 158 return
          </CharString>
          <CharString index="28">
            rmoveto
            -22 -113 rlineto
            -7 -14 -38 -21 -66 hhcurveto
            -118 -61 69 192 197 47 72 130 58 44 -12 -5 14 hvcurveto
            21 -107 rlineto
            66 172 hlineto
            13 -40 -74 15 -88 hhcurveto
            -191 -127 -154 -194 -212 97 -119 201 120 67 27 17 39 hvcurveto
            170 vlineto
            endchar
          </CharString>
          <CharString index="29">
            rmoveto
            72 46 33 22 20 hvcurveto
            3 hlineto
            19 -51 162 22 rlineto
            52 vlineto
            -78 15 rlineto
            603 vlineto
            -33 14 -162 -16 rlineto
            -52 vlineto
            81 -23 rlineto
            -115 vlineto
            6 -11 -2 -7 rlineto
            13 -18 -33 19 -52 hhcurveto
            -107 -111 -83 -204 -161 79 -70 108 hvcurveto
            return
          </CharString>
          <CharString index="30">
            552 rmoveto
            66 24 rlineto
            0 -21 139 -144 -138 -18 -150 0 vhcurveto
            39 -14 rlineto
            0 18 84 92 91 15 -83 0 vhcurveto
            return
          </CharString>
          <CharString index="31">
            25 -36 -40 -30 -34 -38 -39 26 -28 37 hvcurveto
            return
          </CharString>
          <CharString index="32">
            93 201 vhcurveto
            -76 callgsubr
            return
          </CharString>
          <CharString index="33">
            -61 callgsubr
            106 -14 callgsubr
            rlineto
            return
          </CharString>
          <CharString index="34">
            284 51 hlineto
            -81 19 rlineto
            197 59 vlineto
            128 -235 rlineto
            -24 13 17 -8 27 hhcurveto
            128 51 hlineto
            -72 18 -126 219 rlineto
            75 29 61 54 102 vvcurveto
            132 -88 43 -142 vhcurveto
            -283 -51 hlineto
            -21 callsubr
            -508 vlineto
            -81 -19 rlineto
            203 285 rmoveto
            238 vlineto
            3 15 27 2 22 hhcurveto
            76 41 -28 -84 -85 -54 -46 -85 hvcurveto
            return
          </CharString>
          <CharString index="35">
            209 -108 119 -190 -206 return
          </CharString>
          <CharString index="36">
            -206 -121 -150 -201 return
          </CharString>
          <CharString index="37">
            199 -261 -71 102 vvcurveto
            35 18 24 69 39 33 -14 0 vhcurveto
            18 -74 rlineto
            55 hlineto
            10 137 rlineto
            6 -18 -68 16 -63 hhcurveto
            -114 -81 -48 -104 hvcurveto
            -201 261 87 -112 vvcurveto
            -49 -18 -26 -73 -45 return
          </CharString>
          <CharString index="38">
            267 30 callsubr
            352 vlineto
            6 23 37 5 26 hhcurveto
            68 20 -24 -56 hvcurveto
            -283 -19 callgsubr
            263 50 vlineto
            -76 -47 callgsubr
            102 -57 38 -81 -59 -63 -30 -21 -33 vhcurveto
            4 vlineto
            5 8 rlineto
            219 -54 callsubr
            -80 -14 rlineto
            return
          </CharString>
          <CharString index="39">
            43 27 34 40 40 -27 -76 callsubr
            return
          </CharString>
          <CharString index="40">
            -54 -109 -122 -35 39 176 vhcurveto
            301 vlineto
            77 17 rlineto
            52 -280 -52 vlineto
            return
          </CharString>
          <CharString index="41">
            670 rmoveto
            29 13 -8 -16 -17 -12 -9 -16 -9 hvcurveto
            -29 -17 -11 -11 -15 vvcurveto
            -9 4 -10 7 -13 vhcurveto
            61 7 rlineto
            -1 4 0 2 2 vvcurveto
            13 6 5 26 13 vhcurveto
            37 20 15 22 28 vvcurveto
            52 -48 28 -81 -56 -16 -13 -20 -9 2 -12 13 -16 vhcurveto
            5 19 20 3 18 hhcurveto
            return
          </CharString>
          <CharString index="42">
            rmoveto
            185 66 93 201 hvcurveto
            -76 callgsubr
            79 -17 rlineto
            -300 vlineto
            -161 -31 -67 callsubr
            81 -17 rlineto
            -77 callgsubr
            vhcurveto
            endchar
          </CharString>
          <CharString index="43">
            rmoveto
            107 68 69 0 hvcurveto
            -17 37 rlineto
            0 -44 -24 -82 return
          </CharString>
          <CharString index="44">
            rmoveto
            26 -39 136 63 return
          </CharString>
          <CharString index="45">
            rmoveto
            -29 -68 68 -30 30 71 rlineto
            -8 30 33 -4 36 hhcurveto
            -17 callgsubr
            146 -52 101 -96 49 hvcurveto
            25 58 -66 30 -29 -64 rlineto
            5 -25 -27 3 -28 hhcurveto
            -71 callsubr
            -140 47 -99 88 -51 hvcurveto
            240 556 rmoveto
            -194 -449 rlineto
            -27 44 -14 65 93 vvcurveto
            212 65 44 105 24 22 -3 -6 19 vhcurveto
            -138 -505 rmoveto
            198 460 rlineto
            32 -41 17 -70 -110 vvcurveto
            -181 -48 -75 -114 -32 -29 5 12 -24 vhcurveto
            endchar
          </CharString>
          <CharString index="46">
            rmoveto
            -54 239 54 vlineto
            -76 13 6 19 79 174 rlineto
            167 hlineto
            17 -190 -80 -19 3 -51 rlineto
            478 hlineto
            -12 185 rlineto
            -58 hlineto
            -19 -116 rlineto
            -124 hlineto
            -23 -25 2 2 -17 hvcurveto
            -17 190 rlineto
            107 hlineto
            25 -67 rlineto
            49 hlineto
            -13 198 rlineto
            -49 hlineto
            -16 -62 rlineto
            -109 hlineto
            -21 241 62 7 rlineto
            111 hlineto
            31 -111 rlineto
            60 hlineto
            -10 179 rlineto
            -422 hlineto
            -273 -580 rlineto
            339 264 rmoveto
            -128 hlineto
            107 239 rlineto
            endchar
          </CharString>
          <CharString index="47">
            296 hlineto
            205 127 126 209 207 -116 106 -205 hvcurveto
            -307 -51 hlineto
            -21 callsubr
            -508 vlineto
            -81 -19 rlineto
            683 19 -65 callgsubr
            -767 -496 rmoveto
            -20 -21 2 2 -14 hvcurveto
            505 vlineto
            2 20 23 0 25 hhcurveto
            128 88 -45 -192 -210 -53 -64 -176 hvcurveto
            endchar
          </CharString>
          <CharString index="48">
            -30 -34 -38 -40 26 -27 37 hvcurveto
            return
          </CharString>
          <CharString index="49">
            rmoveto
            -100 -19 65 123 127 16 61 97 86 22 -50 callgsubr
            -16 -71 -86 hvcurveto
            return
          </CharString>
          <CharString index="50">
            -43 -33 -37 -42 return
          </CharString>
          <CharString index="51" raw="1">
            540a0e   
          </CharString>
          <CharString index="52">
            -23 callsubr
            hvcurveto
            return
          </CharString>
          <CharString index="53">
            vlineto
            -32 12 -163 -23 rlineto
            -52 vlineto
            81 -15 rlineto
            -545 vlineto
            return
          </CharString>
          <CharString index="54">
            667 rmoveto
            141 134 rlineto
            39 -12 -20 29 -32 hhcurveto
            -24 -10 -19 -25 -17 hvcurveto
            -71 -120 rlineto
            return
          </CharString>
          <CharString index="55">
            -52 284 -8 callgsubr
            return
          </CharString>
          <CharString index="56">
            81 17 rlineto
            52 -284 -52 vlineto
            81 -17 rlineto
            return
          </CharString>
          <CharString index="57">
            548 rmoveto
            41 -29 141 154 rlineto
            42 -14 -32 20 -21 hhcurveto
            -21 -13 -20 -28 -14 hvcurveto
            return
          </CharString>
          <CharString index="58">
            -150 -201 -212 return
          </CharString>
          <CharString index="59">
            17 50 rmoveto
            -50 260 50 vlineto
            -67 14 rlineto
            175 31 vlineto
            107 -190 rlineto
            6 -9 3 -9 -12 vvcurveto
            -19 193 50 vlineto
            -86 22 -128 222 110 139 68 return
          </CharString>
          <CharString index="60">
            rmoveto
            -51 28 -36 70 70 35 42 51 50 -29 40 -69 -73 -32 -46 -50 vhcurveto
            102 -41 rmoveto
            -25 -11 6 39 32 8 12 26 23 13 -7 -37 -33 -8 -12 -26 hvcurveto
            return
          </CharString>
          <CharString index="61">
            rmoveto
            -77 -30 45 127 143 42 45 70 34 31 -7 -5 17 hvcurveto
            -326 vlineto
            -10 -18 -32 -12 -37 hhcurveto
            return
          </CharString>
          <CharString index="62">
            -32 13 -162 -38 callgsubr
            return
          </CharString>
          <CharString index="63">
            rmoveto
            -42 callsubr
            return
          </CharString>
          <CharString index="64">
            hhcurveto
            65 12 -35 -70 -10 -1 -13 -2 -12 hvcurveto
            endchar
          </CharString>
          <CharString index="65">
            24 44 -139 99 rlineto
            11 return
          </CharString>
          <CharString index="66">
            -125 42 -29 -28 callsubr
            return
          </CharString>
          <CharString index="67">
            -81 17 rlineto
            230 20 vlineto
            176 -260 rlineto
            -27 18 14 -12 34 hhcurveto
            129 52 hlineto
            -75 18 -198 287 183 223 65 16 rlineto
            52 -223 -51 vlineto
            52 -12 rlineto
            -15 vlineto
            -174 -213 rlineto
            -21 222 hlineto
            24 callsubr
            return
          </CharString>
          <CharString index="68">
            -71 callsubr
            -212 107 -117 196 return
          </CharString>
          <CharString index="69">
            214 42 52 -36 callsubr
            return
          </CharString>
          <CharString index="70">
            rmoveto
            -52 callsubr
            return
          </CharString>
          <CharString index="71">
            -37 callsubr
            230 269 -230 42 callsubr
            -52 callsubr
            510 vlineto
            -51 callsubr
            -211 -269 211 vlineto
            24 callsubr
            return
          </CharString>
          <CharString index="72">
            rlineto
            -52 vlineto
            80 -15 rlineto
            return
          </CharString>
          <CharString index="73">
            -56 callgsubr
            185 66 93 201 vhcurveto
            -14 callsubr
            endchar
          </CharString>
          <CharString index="74">
            -191 rmoveto
            74 50 27 63 45 -30 12 -40 10 hvcurveto
            -19 4 rlineto
            return
          </CharString>
          <CharString index="75">
            43 27 34 39 41 -27 25 return
          </CharString>
          <CharString index="76">
            -72 14 rlineto
            425 vlineto
            -45 callsubr
            -346 vlineto
            return
          </CharString>
          <CharString index="77">
            -80 17 rlineto
            178 vlineto
            181 333 67 34 callgsubr
            -129 -250 rlineto
            -11 hlineto
            -130 246 rlineto
            16 vlineto
            67 20 callsubr
            return
          </CharString>
          <CharString index="78">
            -240 144 -15 callgsubr
            -33 -37 -42 -43 -55 callsubr
            -122 -514 rmoveto
            -50 266 50 vlineto
            -31 callsubr
            return
          </CharString>
          <CharString index="79">
            132 147 rlineto
            37 -18 -27 17 -18 hhcurveto
            -27 -10 -25 -22 return
          </CharString>
          <CharString index="80">
            -191 rmoveto
            74 49 27 63 45 -29 12 -40 10 hvcurveto
            -20 4 rlineto
            30 -46 vlineto
            -27 -62 21 -22 32 -6 rlineto
            17 -4 9 -5 -17 vvcurveto
            -20 -17 -6 -27 -22 39 callsubr
            -19 -44 rlineto
            -11 24 22 -6 35 hhcurveto
            endchar
          </CharString>
          <CharString index="81">
            17 rlineto
            510 vlineto
            return
          </CharString>
          <CharString index="82">
            -4 callgsubr
            -14 -17 -11 callgsubr
            -139 -99 rlineto
            return
          </CharString>
          <CharString index="83">
            -22 37 rlineto
            -11 -18 -21 7 callgsubr
            50 74 48 0 hvcurveto
            return
          </CharString>
          <CharString index="84">
            29 -30 40 return
          </CharString>
          <CharString index="85">
            -2 callgsubr
            6 14 253 336 rlineto
            78 -383 vlineto
            5 -144 rlineto
            60 hlineto
            19 77 rlineto
            162 hlineto
            -5 -12 -253 -347 rlineto
            endchar
          </CharString>
          <CharString index="86">
            81 -19 rlineto
            return
          </CharString>
          <CharString index="87">
            176 113 rlineto
            51 -5 -32 27 -21 hhcurveto
            -19 -16 -18 -18 -15 hvcurveto
            return
          </CharString>
          <CharString index="88">
            742 rmoveto
            93 -30 rlineto
            -8 24 18 -5 20 hhcurveto
            27 -62 callgsubr
            -24 -18 22 callgsubr
            -26 26 callsubr
            -36 -52 33 -33 rlineto
            return
          </CharString>
          <CharString index="89">
            44 -10 callsubr
            return
          </CharString>
          <CharString index="90">
            2 7 11 2 9 hhcurveto
            20 36 -9 -16 54 hvcurveto
            20 8 15 24 25 vvcurveto
            37 -25 20 -52 -124 -83 -80 -122 -2 vhcurveto
            -70 -16 rlineto
            -59 70 -363 vlineto
            -75 -14 rlineto
            endchar
          </CharString>
          <CharString index="91">
            -42 callsubr
            -18 -17 12 -13 hhcurveto
            -32 -17 -29 -39 -8 1 -8 1 -8 hvcurveto
            return
          </CharString>
          <CharString index="92">
            vvcurveto
            -49 39 -25 53 63 42 51 0 vhcurveto
            return
          </CharString>
          <CharString index="93">
            27 callgsubr
            -2 -300 rlineto
            -161 -30 -67 callsubr
            return
          </CharString>
          <CharString index="94">
            733 rmoveto
            -51 29 -34 66 66 36 39 52 50 -30 36 -65 -68 -34 -41 -51 vhcurveto
            100 -37 rmoveto
            -28 -6 8 33 30 6 9 26 30 3 -10 -33 -26 -4 -11 -27 hvcurveto
            return
          </CharString>
          <CharString index="95">
            vlineto
            81 17 rlineto
            return
          </CharString>
          <CharString index="96">
            rmoveto
            -32 callsubr
            -37 -39 -59 callsubr
            233 hmoveto
            -32 callsubr
            -37 -39 -31 -34 -38 -40 27 -27 37 hvcurveto
            return
          </CharString>
          <CharString index="97">
            10 callgsubr
            -37 return
          </CharString>
          <CharString index="98">
            719 rmoveto
            24 -44 210 74 rlineto
            -69 callgsubr
            return
          </CharString>
          <CharString index="99">
            hvcurveto
            98 97 -30 38 return
          </CharString>
          <CharString index="100">
            535 rmoveto
            1 callgsubr
            return
          </CharString>
          <CharString index="101">
            -4 callsubr
            -81 -17 rlineto
            return
          </CharString>
          <CharString index="102">
            rmoveto
            19 20 87 101 74 vvcurveto
            41 -26 30 -42 -36 -22 -23 -27 -13 vhcurveto
            16 -15 16 -24 -32 vvcurveto
            -30 -14 -50 -21 -50 vhcurveto
            endchar
          </CharString>
          <CharString index="103">
            -81 2 callgsubr
            60 179 -538 -179 60 -6 callgsubr
            return
          </CharString>
          <CharString index="104">
            -93 callgsubr
            endchar
          </CharString>
          <CharString index="105">
            -67 13 callgsubr
            5 60 rmoveto
            -56 -10 35 64 69 18 30 47 49 17 -21 -78 -66 -10 -33 -55 hvcurveto
            return
          </CharString>
          <CharString index="106">
            vvcurveto
            41 -25 14 -8 6 vhcurveto
            -66 return
          </CharString>
          <CharString index="107">
            rmoveto
            -292 50 vlineto
            36 152 rlineto
            11 50 7 35 30 vvcurveto
            22 -10 17 -38 -18 -19 -5 -9 -19 vhcurveto
            endchar
          </CharString>
          <CharString index="108">
            54 14 28 29 76 -69 53 -100 -123 -110 -88 -183 return
          </CharString>
          <CharString index="109">
            24 -214 rlineto
            50 hlineto
            23 136 rlineto
            2 13 5 30 10 vvcurveto
            22 -10 17 -38 -23 -25 -11 -3 -8 vhcurveto
            return
          </CharString>
          <CharString index="110">
            -417 rmoveto
            116 41 68 91 95 -36 65 -111 -108 -49 -68 13 callgsubr
            return
          </CharString>
          <CharString index="111">
            rmoveto
            341 hlineto
            12 74 rlineto
            -341 hlineto
            return
          </CharString>
          <CharString index="112">
            694 rmoveto
            4 callgsubr
            -33 -39 -39 27 -28 36 hvcurveto
            233 hmoveto
            return
          </CharString>
          <CharString index="113">
            37 callsubr
            -16 hhcurveto
            -26 -12 14 23 return
          </CharString>
          <CharString index="114">
            -27 -23 -36 vhcurveto
            -3 return
          </CharString>
          <CharString index="115">
            vhcurveto
            1 -101 rlineto
            57 hlineto
            10 61 rlineto
            0 24 8 26 37 18 -9 -29 -27 -24 -11 -39 vhcurveto
            return
          </CharString>
          <CharString index="116">
            rlineto
            112 579 hlineto
            76 17 rlineto
            52 -238 -42 callgsubr
            return
          </CharString>
          <CharString index="117">
            692 rmoveto
            47 30 38 43 45 -30 26 -40 -43 -34 -36 -42 -44 29 -30 41 hvcurveto
            return
          </CharString>
          <CharString index="118">
            30 callgsubr
            32 callsubr
            return
          </CharString>
          <CharString index="119">
            96 -108 45 28 -79 154 79 150 -45 28 -100 -110 rlineto
            -14 -16 return
          </CharString>
          <CharString index="120">
            40 -134 -63 rlineto
            return
          </CharString>
          <CharString index="121">
            -16 37 rlineto
            0 -45 -17 -63 -112 -34 52 135 131 28 44 82 return
          </CharString>
          <CharString index="122">
            99 rlineto
            11 -18 -17 12 -14 hhcurveto
            -32 -17 -31 -39 -7 1 -8 1 -7 hvcurveto
            return
          </CharString>
          <CharString index="123">
            -57 callsubr
            -44 -23 callsubr
            return
          </CharString>
          <CharString index="124">
            175 -113 return
          </CharString>
          <CharString index="125">
            -55 -11 34 64 69 18 30 47 49 18 -21 -78 -65 -11 -33 -55 hvcurveto
            return
          </CharString>
          <CharString index="126">
            hvcurveto
            191 hmoveto
            43 27 35 39 40 -27 25 -37 -39 -31 -33 -39 -40 return
          </CharString>
          <CharString index="127">
            15 rlineto
            51 -264 -51 vlineto
            64 -16 192 -338 rlineto
            -174 vlineto
            return
          </CharString>
          <CharString index="128">
            vhcurveto
            247 hlineto
            33 return
          </CharString>
          <CharString index="129">
            -7 19 54 14 28 29 76 return
          </CharString>
          <CharString index="130">
            rmoveto
            35 callgsubr
            return
          </CharString>
          <CharString index="131">
            -51 callsubr
            -510 vlineto
            return
          </CharString>
          <CharString index="132">
            vlineto
            -104 -24 rlineto
            -46 vlineto
            -10 26 42 -6 34 hhcurveto
            endchar
          </CharString>
          <CharString index="133">
            -6 -35 -24 hvcurveto
            return
          </CharString>
          <CharString index="134">
            33 -33 74 38 93 -30 rlineto
            -8 24 17 -5 20 hhcurveto
            return
          </CharString>
          <CharString index="135">
            -21 -24 -13 vhcurveto
            17 -14 15 -22 -32 vvcurveto
            -31 -14 -45 return
          </CharString>
          <CharString index="136">
            -46 98 vhcurveto
            71 62 52 -1 hhcurveto
            return
          </CharString>
          <CharString index="137">
            50 hlineto
            -73 14 rlineto
            return
          </CharString>
          <CharString index="138">
            573 rmoveto
            33 -38 175 113 rlineto
            51 -4 return
          </CharString>
          <CharString index="139">
            139 -63 31 46 -104 82 rlineto
            19 -24 -20 19 return
          </CharString>
          <CharString index="140">
            17 22 26 hvcurveto
            106 -14 callgsubr
            rlineto
            return
          </CharString>
          <CharString index="141">
            vlineto
            77 17 rlineto
            52 -280 -52 vlineto
            81 -17 rlineto
            return
          </CharString>
          <CharString index="142">
            179 -60 hlineto
            38 callsubr
            return
          </CharString>
          <CharString index="143">
            39 40 -27 28 -37 -44 -28 -36 -39 -41 28 return
          </CharString>
          <CharString index="144">
            -22 37 rlineto
            -11 -18 -20 -9 return
          </CharString>
          <CharString index="145">
            -25 -111 rlineto
            -116 hlineto
            return
          </CharString>
          <CharString index="146">
            -16 3 9 -20 vhcurveto
            return
          </CharString>
          <CharString index="147">
            rmoveto
            -341 hlineto
            -12 -74 rlineto
            341 hlineto
            return
          </CharString>
          <CharString index="148">
            rmoveto
            -18 -19 -83 -92 -71 vvcurveto
            -38 26 -31 return
          </CharString>
          <CharString index="149">
            vlineto
            -81 -17 rlineto
            return
          </CharString>
        <CharString name=".notdef">
          -351 endchar
        </CharString>
        <CharString name="A">
          92 -8 54 -107 callsubr
          endchar
        </CharString>
        <CharString name="AE">
          305 -6 54 -61 callsubr
        </CharString>
        <CharString name="AEacute">
          305 427 675 -92 callgsubr
          -409 -665 -61 callsubr
        </CharString>
        <CharString name="Aacute">
          92 196 719 rmoveto
          23 -44 211 74 38 callgsubr
          38 -17 32 -32 -14 -17 -12 -11 -18 vhcurveto
          -342 -764 -107 callsubr
          endchar
        </CharString>
        <CharString name="Abreve">
          92 219 840 -93 callgsubr
          -227 -786 -107 callsubr
          endchar
        </CharString>
        <CharString name="Acircumflex">
          92 146 30 callgsubr
          138 -63 32 46 -104 82 rlineto
          19 -24 -20 19 -16 hhcurveto
          -10 -11 -6 -33 -41 hvcurveto
          -260 -747 -107 callsubr
          endchar
        </CharString>
        <CharString name="Adieresis">
          92 191 692 rmoveto
          -32 callsubr
          -36 -40 -59 callsubr
          233 hmoveto
          -32 callsubr
          -37 -39 -59 callsubr
          -432 -638 -107 callsubr
          endchar
        </CharString>
        <CharString name="Agrave">
          92 183 749 rmoveto
          210 -74 -16 callsubr
          -191 -695 -107 callsubr
          endchar
        </CharString>
        <CharString name="Amacron">
          92 147 797 -49 callgsubr
          -496 -743 -107 callsubr
          endchar
        </CharString>
        <CharString name="Aogonek">
          92 448 hmoveto
          200 54 hlineto
          -67 14 -222 586 rlineto
          -94 hlineto
          -208 -586 -65 -14 rlineto
          -54 239 54 vlineto
          -80 13 4 20 33 95 rlineto
          217 hlineto
          32 -92 5 -22 -76 -14 rlineto
          -54 24 vlineto
          -40 -24 -36 -38 -51 vvcurveto
          -49 38 -25 53 63 42 51 0 vhcurveto
          -22 37 rlineto
          -11 -18 -20 7 callgsubr
          33 30 31 21 18 hvcurveto
          -235 254 rmoveto
          78 227 4 22 4 -2 3 -19 80 -228 rlineto
          endchar
        </CharString>
        <CharString name="Aring">
          92 214 747 rmoveto
          -50 25 -37 72 vhcurveto
          72 1 29 41 51 vvcurveto
          50 -30 36 -66 -68 -34 -41 -51 vhcurveto
          100 -35 rmoveto
          -28 -9 6 33 30 9 7 27 28 8 -7 -31 -28 -7 -10 -28 hvcurveto
          -322 -658 -107 callsubr
          endchar
        </CharString>
        <CharString name="Aringacute">
          92 485 926 -18 callgsubr
          306 -784 rmoveto
          -222 586 rlineto
          -3 hlineto
          40 13 21 32 40 vvcurveto
          50 -30 36 -65 -68 -34 -41 -51 -38 16 -29 37 -12 vhcurveto
          -8 hlineto
          -208 -586 -65 -14 rlineto
          -54 239 54 vlineto
          -80 13 4 20 33 95 rlineto
          217 hlineto
          32 -92 5 -22 -76 -14 rlineto
          -54 282 54 vlineto
          -330 722 rmoveto
          30 3 -10 -33 -26 -4 -11 -27 -28 -6 8 33 30 6 9 26 hvcurveto
          -105 -522 rmoveto
          78 227 4 22 4 -2 3 -19 80 -228 rlineto
          endchar
        </CharString>
        <CharString name="Atilde">
          92 130 737 rmoveto
          27 callsubr
          27 27 3 callgsubr
          -173 -735 -107 callsubr
          endchar
        </CharString>
        <CharString name="B">
          79 44 hmoveto
          307 hlineto
          145 87 73 122 72 -48 55 -82 22 hvcurveto
          68 34 35 48 59 vvcurveto
          107 -82 56 -159 vhcurveto
          -271 -51 hlineto
          -21 callsubr
          -508 vlineto
          -81 -19 rlineto
          203 312 rmoveto
          211 vlineto
          2 16 26 2 19 hhcurveto
          79 40 -33 -66 -74 -51 -42 -89 hvcurveto
          16 -295 rmoveto
          -28 -17 2 1 -11 hvcurveto
          224 47 vlineto
          107 49 -35 -76 -78 -47 -38 -100 hvcurveto
          endchar
        </CharString>
        <CharString name="C">
          63 498 199 -79 callsubr
        </CharString>
        <CharString name="Cacute">
          63 256 -9 callsubr
          -14 -17 -12 -11 -18 vhcurveto
          104 -619 -40 callgsubr
        </CharString>
        <CharString name="Cacute.loclPLK">
          63 369 -53 callsubr
          174 -506 -79 callsubr
        </CharString>
        <CharString name="Ccaron">
          63 212 840 rmoveto
          -33 -48 105 -80 rlineto
          -18 25 21 -20 15 hhcurveto
          15 18 16 22 27 hvcurveto
          107 88 -27 40 -135 -63 rlineto
          148 -578 -40 callgsubr
        </CharString>
        <CharString name="Ccedilla">
          63 270 -130 rmoveto
          -18 -44 rlineto
          -11 24 21 -6 35 hhcurveto
          74 50 27 63 45 -30 12 -40 10 hvcurveto
          -19 4 rlineto
          15 vlineto
          100 4 58 24 36 16 rrcurveto
          170 -63 vlineto
          -22 -113 rlineto
          -7 -14 -38 -21 -66 hhcurveto
          -118 -61 69 192 197 47 72 130 58 44 -12 -5 14 hvcurveto
          21 -107 rlineto
          64 172 hlineto
          13 -40 -72 15 -88 hhcurveto
          -191 -127 -154 -194 -204 89 -118 186 -8 hvcurveto
          -21 -48 22 -22 32 -6 rlineto
          17 -4 9 -5 -17 vvcurveto
          -20 -17 -6 -27 -22 -16 3 9 -21 vhcurveto
          endchar
        </CharString>
        <CharString name="Ccircumflex">
          63 191 713 -102 callsubr
          200 -602 -79 callsubr
        </CharString>
        <CharString name="Cdotaccent">
          63 352 -31 callgsubr
          146 -493 -79 callsubr
        </CharString>
        <CharString name="D">
          164 42 hmoveto
          -85 callsubr
          endchar
        </CharString>
        <CharString name="Dcaron">
          165 207 840 rmoveto
          -34 -48 106 -80 rlineto
          -22 26 19 -16 17 hhcurveto
          15 19 33 callsubr
          -303 -777 rmoveto
          -85 callsubr
          endchar
        </CharString>
        <CharString name="Dcroat">
          -48 callgsubr
        </CharString>
        <CharString name="E">
          33 42 51 -106 callsubr
          endchar
        </CharString>
        <CharString name="Eacute">
          33 202 -9 callsubr
          -13 -18 -12 -11 -17 vhcurveto
          -299 -767 -106 callsubr
          endchar
        </CharString>
        <CharString name="Ebreve">
          33 216 840 -93 callgsubr
          -174 -789 -106 callsubr
          endchar
        </CharString>
        <CharString name="Ecaron">
          33 176 840 rmoveto
          -34 -48 105 -80 rlineto
          -17 22 23 -21 16 hhcurveto
          16 20 33 callsubr
          -272 -726 -106 callsubr
          endchar
        </CharString>
        <CharString name="Ecircumflex">
          33 129 11 callsubr
          -15 hhcurveto
          -11 -10 -6 -33 -41 hvcurveto
          -194 -750 -106 callsubr
          endchar
        </CharString>
        <CharString name="Edieresis">
          33 178 5 callsubr
          43 28 34 40 40 -28 25 21 callgsubr
          -369 -643 -106 callsubr
          endchar
        </CharString>
        <CharString name="Edotaccent">
          33 302 10 callsubr
          -260 -641 -106 callsubr
          endchar
        </CharString>
        <CharString name="Egrave">
          33 172 749 rmoveto
          210 -74 -16 callsubr
          -130 -698 -106 callsubr
          endchar
        </CharString>
        <CharString name="Emacron">
          33 132 797 -49 callgsubr
          -431 -746 -106 callsubr
          endchar
        </CharString>
        <CharString name="Eng">
          183 461 648 rmoveto
          -42 callgsubr
          -7 17 -282 445 -55 callgsubr
          -51 238 51 vlineto
          -76 18 rlineto
          403 5 vlineto
          7 -17 289 -446 rlineto
          -92 vlineto
          -101 -23 rlineto
          -46 vlineto
          0 44 -16 58 78 39 35 53 vhcurveto
          659 vlineto
          76 17 rlineto
          52 vlineto
          endchar
        </CharString>
        <CharString name="Eogonek">
          39 42 51 rmoveto
          -51 395 vlineto
          -35 -26 -33 -39 -48 -15 callsubr
          -22 37 rlineto
          -11 -18 -19 -9 -17 hhcurveto
          -26 -11 14 23 38 33 36 15 13 hvcurveto
          33 1 5 179 rlineto
          -59 hlineto
          -30 -116 rlineto
          -138 hlineto
          -26 -20 2 2 -21 hvcurveto
          222 122 vlineto
          20 -69 rlineto
          49 203 -49 hlineto
          -20 -66 rlineto
          -122 210 hlineto
          64 7 rlineto
          131 hlineto
          25 -111 rlineto
          60 179 -483 -51 hlineto
          -21 callsubr
          -508 vlineto
          endchar
        </CharString>
        <CharString name="Eth">
          -48 callgsubr
        </CharString>
        <CharString name="Euro">
          -22 380 429 rmoveto
          -193 hlineto
          106 19 52 53 72 hhcurveto
          26 28 -6 -11 27 hvcurveto
          19 -107 rlineto
          66 172 hlineto
          18 -49 -63 10 -46 hhcurveto
          -136 -103 -93 -142 -37 hvcurveto
          -37 hlineto
          -24 -70 rlineto
          354 hlineto
          80 -160 rmoveto
          -17 -113 rlineto
          -17 -33 -36 -11 -31 hhcurveto
          -78 -43 70 114 -13 hvcurveto
          131 hlineto
          25 70 rlineto
          -326 hlineto
          -25 -70 rlineto
          64 hlineto
          -157 20 94 -100 157 hhcurveto
          64 62 16 28 50 hvcurveto
          170 vlineto
          endchar
        </CharString>
        <CharString name="Euro.osf">
          -36 41 348 rmoveto
          -25 -70 rlineto
          329 hlineto
          25 70 rlineto
          -173 hlineto
          76 14 35 33 83 hhcurveto
          42 30 -8 -4 10 hvcurveto
          18 -88 rlineto
          56 149 hlineto
          12 -34 -45 13 -86 hhcurveto
          -127 -82 -78 -105 -32 hvcurveto
          -75 -117 rmoveto
          -25 -70 rlineto
          96 hlineto
          -132 33 69 -44 140 hhcurveto
          90 49 23 14 32 hvcurveto
          147 -55 vlineto
          -19 -96 rlineto
          -5 -9 -27 -12 -48 hhcurveto
          -70 -46 22 83 -15 hvcurveto
          106 hlineto
          25 70 rlineto
          endchar
        </CharString>
        <CharString name="F">
          -15 42 51 rmoveto
          -51 295 53 vlineto
          -92 18 rlineto
          207 136 vlineto
          20 -71 rlineto
          49 204 -49 hlineto
          -20 -66 rlineto
          -136 228 hlineto
          64 7 rlineto
          126 hlineto
          24 -111 rlineto
          61 179 -478 -51 hlineto
          -21 callsubr
          -508 vlineto
          endchar
        </CharString>
        <CharString name="G">
          102 457 259 -96 callsubr
        </CharString>
        <CharString name="G_tilde.loclGUA">
          102 434 -87 callgsubr
          23 -440 -96 callsubr
        </CharString>
        <CharString name="Gbreve">
          105 239 840 rmoveto
          -70 -40 rlineto
          0 33 -105 143 119 42 118 0 vhcurveto
          -40 23 rlineto
          0 -34 -60 -86 -78 -29 64 0 vhcurveto
          218 -581 rmoveto
          -181 vlineto
          -12 -26 -27 -8 -46 hhcurveto
          -124 -55 73 192 179 53 87 139 60 38 -13 -5 12 hvcurveto
          24 -109 rlineto
          63 171 hlineto
          11 -32 -64 20 -97 hhcurveto
          -204 -132 -141 -212 -218 100 -108 194 82 47 21 20 32 hvcurveto
          11 hlineto
          26 -26 rlineto
          47 260 hlineto
          47 15 rlineto
          54 -245 -51 vlineto
          endchar
        </CharString>
        <CharString name="Gcaron">
          102 227 840 -74 callsubr
          92 -518 -96 callsubr
        </CharString>
        <CharString name="Gcircumflex">
          102 194 713 -102 callsubr
          156 -542 -96 callsubr
        </CharString>
        <CharString name="Gcommaaccent">
          105 457 259 rmoveto
          -181 vlineto
          -12 -26 -27 -8 -46 hhcurveto
          -124 -55 73 192 179 53 87 139 60 38 -13 -5 12 hvcurveto
          24 -109 rlineto
          63 171 hlineto
          11 -32 -64 20 -97 hhcurveto
          -204 -132 -141 -212 -218 100 -108 194 82 47 21 20 32 hvcurveto
          11 hlineto
          26 -26 rlineto
          47 260 hlineto
          47 15 rlineto
          54 -245 -51 vlineto
          -70 -481 -34 callgsubr
        </CharString>
        <CharString name="Gdotaccent">
          102 355 -31 callgsubr
          102 -433 -96 callsubr
        </CharString>
        <CharString name="H">
          -38 callsubr
          endchar
        </CharString>
        <CharString name="Hbar">
          214 42 hmoveto
          284 52 hlineto
          -81 17 rlineto
          197 269 -197 42 callsubr
          -52 callsubr
          356 83 69 -83 85 vlineto
          -51 callsubr
          -85 -269 85 vlineto
          -51 callsubr
          -85 -82 -69 82 -356 42 callsubr
          203 284 rmoveto
          89 269 -89 vlineto
          endchar
        </CharString>
        <CharString name="Hcircumflex">
          214 214 713 -102 callsubr
          -279 -749 -36 callsubr
          endchar
        </CharString>
        <CharString name="I">
          -174 44 52 -92 callsubr
          endchar
        </CharString>
        <CharString name="IJ">
          236 44 52 -92 callsubr
          251 111 -83 callsubr
        </CharString>
        <CharString name="Iacute">
          -174 69 -9 callsubr
          -14 -17 -12 -11 -18 vhcurveto
          -163 -766 -92 callsubr
          endchar
        </CharString>
        <CharString name="Iacute_J.loclNLD">
          236 140 675 -92 callgsubr
          460 -44 -92 callgsubr
          -508 -667 -92 callsubr
          251 111 -83 callsubr
        </CharString>
        <CharString name="Ibreve">
          -174 87 840 -93 callgsubr
          -43 -788 -92 callsubr
          endchar
        </CharString>
        <CharString name="Icircumflex">
          -174 17 713 rmoveto
          27 -39 135 63 139 -63 32 46 -104 82 rlineto
          27 -36 -13 11 -14 hhcurveto
          -11 -14 -11 -28 -34 hvcurveto
          -80 -749 -92 callsubr
          endchar
        </CharString>
        <CharString name="Idieresis">
          -174 65 5 callsubr
          -18 callsubr
          -40 -30 -33 -39 -39 26 -28 37 hvcurveto
          -254 -694 -3 callgsubr
        </CharString>
        <CharString name="Idotaccent">
          -174 181 10 callsubr
          -137 -640 -92 callsubr
          endchar
        </CharString>
        <CharString name="Igrave">
          -174 64 749 rmoveto
          210 -74 24 44 -138 15 callsubr
          -20 -697 -92 callsubr
          endchar
        </CharString>
        <CharString name="Imacron">
          -174 16 733 rmoveto
          326 hlineto
          12 74 rlineto
          -326 hlineto
          16 -807 -3 callgsubr
        </CharString>
        <CharString name="Iogonek">
          -174 44 52 rmoveto
          -52 173 vlineto
          -39 -24 -36 -38 -51 vvcurveto
          -49 38 -25 54 62 42 51 0 vhcurveto
          28 callgsubr
          34 30 31 22 17 hvcurveto
          50 52 hlineto
          -80 -26 callsubr
          80 17 rlineto
          52 -283 -52 vlineto
          80 -25 callgsubr
          endchar
        </CharString>
        <CharString name="Itilde">
          -174 260 -87 callgsubr
          -216 -647 -92 callsubr
          endchar
        </CharString>
        <CharString name="J">
          -135 4 180 -83 callsubr
        </CharString>
        <CharString name="Jcircumflex">
          -135 85 713 -102 callsubr
          -188 -621 -83 callsubr
        </CharString>
        <CharString name="K">
          77 42 52 rmoveto
          -52 284 52 vlineto
          -40 callsubr
          endchar
        </CharString>
        <CharString name="Kcommaaccent">
          85 42 hmoveto
          284 52 hlineto
          -40 callsubr
          -81 -17 rlineto
          254 -255 -79 callgsubr
        </CharString>
        <CharString name="L">
          -22 42 51 rmoveto
          -51 472 179 -60 vlineto
          38 callsubr
          -68 -59 callgsubr
          endchar
        </CharString>
        <CharString name="Lacute">
          -15 129 675 -92 callgsubr
          -63 -719 rmoveto
          472 35 callsubr
          -68 9 callgsubr
          endchar
        </CharString>
        <CharString name="Lcaron">
          -14 395 482 rmoveto
          39 hlineto
          0 63 70 32 callgsubr
          10 -11 10 -24 -25 vvcurveto
          -28 -6 -44 -10 -30 vhcurveto
          -351 -482 rmoveto
          -9 callgsubr
          endchar
        </CharString>
        <CharString name="Lcommaaccent">
          -14 44 hmoveto
          -9 callgsubr
          199 -254 -79 callgsubr
        </CharString>
        <CharString name="Ldot">
          -22 42 51 rmoveto
          -51 472 179 -60 vlineto
          38 callsubr
          -68 -59 callgsubr
          258 226 -37 callgsubr
          endchar
        </CharString>
        <CharString name="Lslash">
          -22 42 51 rmoveto
          -51 472 179 -60 vlineto
          38 callsubr
          -68 8 rlineto
          249 vlineto
          106 37 rlineto
          64 vlineto
          -106 -39 rlineto
          191 vlineto
          84 17 rlineto
          53 -287 -51 vlineto
          -21 callsubr
          -235 vlineto
          -73 -27 rlineto
          -59 vlineto
          73 25 rlineto
          -212 vlineto
          endchar
        </CharString>
        <CharString name="M">
          336 40 hmoveto
          241 51 hlineto
          -78 18 rlineto
          407 vlineto
          -1 25 rlineto
          8 hlineto
          162 -501 rlineto
          95 hlineto
          154 477 6 24 rlineto
          9 hlineto
          -2 -24 rlineto
          -408 vlineto
          -80 42 callgsubr
          510 vlineto
          73 13 rlineto
          56 -235 vlineto
          -148 -465 -9 -40 -7 40 -148 465 rlineto
          -230 -55 hlineto
          66 -13 rlineto
          -511 vlineto
          -78 -18 rlineto
          endchar
        </CharString>
        <CharString name="N">
          183 42 hmoveto
          -45 callgsubr
          7 -17 295 -455 -90 callsubr
          endchar
        </CharString>
        <CharString name="Nacute">
          186 292 0 callgsubr
          -226 -719 rmoveto
          -45 callgsubr
          7 -16 295 -456 -90 callsubr
          endchar
        </CharString>
        <CharString name="Nacute.loclPLK">
          183 377 -53 callsubr
          -290 -705 rmoveto
          -45 callgsubr
          7 -17 295 -455 -90 callsubr
          endchar
        </CharString>
        <CharString name="Ncaron">
          186 368 686 rmoveto
          13 17 16 31 35 hvcurveto
          91 84 -29 40 -120 -71 -118 72 -39 -46 85 -79 rlineto
          -29 32 20 -18 13 hhcurveto
          -326 -686 rmoveto
          -45 callgsubr
          7 -16 295 -456 9 callsubr
          -7 18 -282 444 -55 callgsubr
          endchar
        </CharString>
        <CharString name="Ncommaaccent">
          186 42 hmoveto
          -45 callgsubr
          7 -16 295 -456 -90 callsubr
          282 -254 -34 callgsubr
        </CharString>
        <CharString name="Ntilde">
          186 447 699 rmoveto
          28 26 3 callgsubr
          -35 -52 27 callsubr
          -405 -699 rmoveto
          -45 callgsubr
          6 -14 296 -458 -90 callsubr
          endchar
        </CharString>
        <CharString name="O">
          158 342 -16 -105 callgsubr
          endchar
        </CharString>
        <CharString name="OE">
          365 350 hmoveto
          516 185 -59 hlineto
          -25 -116 rlineto
          -125 hlineto
          -27 -30 2 2 -23 hvcurveto
          222 122 vlineto
          20 -69 rlineto
          49 203 -49 hlineto
          -20 -66 rlineto
          -122 210 hlineto
          63 7 rlineto
          132 hlineto
          25 -111 rlineto
          60 179 -489 hlineto
          -206 -123 -134 -201 -224 119 -89 192 hvcurveto
          14 69 rmoveto
          -122 -63 64 199 208 87 37 96 44 33 -6 -5 16 hvcurveto
          -485 vlineto
          -9 -26 -32 -3 -33 hhcurveto
          endchar
        </CharString>
        <CharString name="Oacute">
          158 266 675 rmoveto
          211 74 rlineto
          1 7 0 6 7 vvcurveto
          40 -16 32 -33 -13 -17 -12 -11 -18 vhcurveto
          -139 -99 rlineto
          100 -735 -105 callgsubr
          endchar
        </CharString>
        <CharString name="Oacute.loclPLK">
          158 364 -53 callsubr
          23 -721 -105 callgsubr
          endchar
        </CharString>
        <CharString name="Obreve">
          158 253 840 -93 callgsubr
          89 -856 -105 callgsubr
          endchar
        </CharString>
        <CharString name="Ocircumflex">
          158 186 11 callsubr
          -15 hhcurveto
          -11 -10 -6 -33 -41 hvcurveto
          49 -817 -105 callgsubr
          endchar
        </CharString>
        <CharString name="Odieresis">
          158 233 694 rmoveto
          -18 callsubr
          -40 -30 -33 -39 -39 26 -28 37 hvcurveto
          233 hmoveto
          43 10 callgsubr
          21 callgsubr
          -124 -710 -105 callgsubr
          endchar
        </CharString>
        <CharString name="Ograve">
          158 441 675 rmoveto
          24 44 -139 15 callsubr
          112 -765 -105 callgsubr
          endchar
        </CharString>
        <CharString name="Ohorn">
          158 768 663 -94 callgsubr
        </CharString>
        <CharString name="Ohungarumlaut">
          158 215 673 rmoveto
          160 108 rlineto
          44 -8 -22 24 -23 hhcurveto
          -18 -14 -12 -19 -16 hvcurveto
          -92 -109 rlineto
          221 -36 rmoveto
          160 108 rlineto
          44 -8 -22 24 -23 hhcurveto
          -19 -13 -12 -19 -16 hvcurveto
          -92 -109 rlineto
          -28 -725 -105 callgsubr
          endchar
        </CharString>
        <CharString name="Omacron">
          162 180 723 4 callsubr
          152 -813 rmoveto
          211 111 -30 callgsubr
          -72 callsubr
          -122 -49 callsubr
          108 -117 196 hvcurveto
          19 73 -64 callgsubr
        </CharString>
        <CharString name="Oslash">
          158 174 23 -62 callsubr
        </CharString>
        <CharString name="Oslashacute">
          158 247 675 -92 callgsubr
          -49 -696 -62 callsubr
        </CharString>
        <CharString name="Otilde">
          158 430 699 rmoveto
          28 -62 callgsubr
          -25 -17 3 -20 hhcurveto
          -28 -26 26 callsubr
          -35 -52 33 -33 74 38 92 -30 rlineto
          -8 25 17 -5 20 hhcurveto
          -88 -715 -105 callgsubr
          endchar
        </CharString>
        <CharString name="P">
          32 42 hmoveto
          294 52 hlineto
          -91 19 rlineto
          503 vlineto
          0 31 5 33 82 44 -40 -81 -104 -45 -40 -102 -7 vhcurveto
          5 -44 rlineto
          -2 13 13 0 12 hhcurveto
          132 101 72 136 135 -91 44 -161 hvcurveto
          -270 -51 hlineto
          -21 callsubr
          -508 vlineto
          -81 -19 rlineto
          endchar
        </CharString>
        <CharString name="Q">
          160 370 -43 rmoveto
          141 -91 rlineto
          -19 27 27 -7 33 hhcurveto
          50 56 35 0 hvcurveto
          45 -105 vlineto
          -147 83 rlineto
          147 48 65 143 144 vvcurveto
          205 -108 121 -190 -201 -126 -154 -195 -190 85 -119 162 -18 vhcurveto
          45 -7 24 -14 15 -10 rrcurveto
          -6 101 rmoveto
          -122 -63 79 195 211 65 46 105 111 63 -65 -200 -194 -49 -72 -110 hvcurveto
          endchar
        </CharString>
        <CharString name="R">
          76 42 hmoveto
          -84 callgsubr
          endchar
        </CharString>
        <CharString name="Racute">
          82 225 -25 callsubr
          -159 -719 rmoveto
          -73 callsubr
          endchar
        </CharString>
        <CharString name="Rcaron">
          82 309 674 rmoveto
          16 19 17 22 27 hvcurveto
          105 87 -27 40 -134 -63 -138 63 -34 -48 105 -80 rlineto
          -17 22 23 -21 16 hhcurveto
          -267 -674 rmoveto
          -73 callsubr
          endchar
        </CharString>
        <CharString name="Rcommaaccent">
          82 42 hmoveto
          -73 callsubr
          -8 -539 -79 callgsubr
        </CharString>
        <CharString name="S">
          -17 251 -14 -96 callgsubr
          endchar
        </CharString>
        <CharString name="Sacute">
          -17 189 -25 callsubr
          86 -733 -96 callgsubr
          endchar
        </CharString>
        <CharString name="Sacute.loclPLK">
          -17 276 -53 callsubr
          20 -719 -96 callgsubr
          endchar
        </CharString>
        <CharString name="Scaron">
          -17 269 674 rmoveto
          16 20 17 22 27 hvcurveto
          105 -14 callgsubr
          -138 63 -33 -48 105 -80 rlineto
          -20 27 19 -18 14 hhcurveto
          -18 -688 -96 callgsubr
          endchar
        </CharString>
        <CharString name="Scedilla">
          -17 248 -33 callsubr
          17 vlineto
          102 8 103 53 143 vvcurveto
          119 -91 43 -104 41 vhcurveto
          -70 28 -60 21 -5 callgsubr
          -133 109 -36 92 -36 hvcurveto
          98 -38 29 -21 -56 vvcurveto
          -70 -35 -27 -92 -41 -51 18 23 -26 vhcurveto
          -19 102 rlineto
          -64 -165 hlineto
          24 -18 68 -28 90 -4 -21 -49 rcurveline
          22 -22 31 -6 rlineto
          18 -22 callgsubr
        </CharString>
        <CharString name="Scircumflex">
          -17 98 713 -102 callsubr
          46 -815 -96 callgsubr
          endchar
        </CharString>
        <CharString name="Scommaaccent">
          -17 253 -14 rmoveto
          111 124 49 156 118 -91 44 -103 40 hvcurveto
          -71 28 -60 22 -5 callgsubr
          -132 108 -37 91 -35 hvcurveto
          99 -39 30 -20 -57 vvcurveto
          -68 -33 -29 -94 -41 -51 18 23 -26 vhcurveto
          -19 102 rlineto
          -64 -165 hlineto
          -19 26 78 -32 101 hhcurveto
          -40 -189 -79 callgsubr
        </CharString>
        <CharString name="T">
          -12 callgsubr
          endchar
        </CharString>
        <CharString name="Tbar">
          10 464 578 rmoveto
          25 -109 rlineto
          59 179 -537 -179 59 hlineto
          25 109 rlineto
          124 -209 -181 -70 181 -230 hlineto
          -80 -17 rlineto
          -26 callgsubr
          -80 17 rlineto
          230 175 70 -175 209 vlineto
          endchar
        </CharString>
        <CharString name="Tcaron">
          16 151 840 -61 callgsubr
          105 87 -27 13 callsubr
          -149 -725 rmoveto
          -52 284 52 vlineto
          -4 callsubr
          endchar
        </CharString>
        <CharString name="Thorn">
          29 44 hmoveto
          283 52 hlineto
          -80 17 rlineto
          77 51 vlineto
          150 98 60 143 114 -66 48 -149 hvcurveto
          -84 68 hlineto
          80 17 rlineto
          52 -283 -52 vlineto
          80 -25 callgsubr
          -80 -17 rlineto
          203 160 rmoveto
          228 vlineto
          16 21 1 21 hhcurveto
          80 37 -33 -73 -85 -39 -38 -95 hvcurveto
          endchar
        </CharString>
        <CharString name="U">
          156 99 579 -101 callgsubr
          endchar
        </CharString>
        <CharString name="Uacute">
          156 286 675 rmoveto
          211 74 38 callgsubr
          38 -17 32 -32 -14 -17 -12 -11 -18 vhcurveto
          -139 -99 rlineto
          93 -735 -65 callsubr
        </CharString>
        <CharString name="Ubreve">
          156 252 840 -93 callgsubr
          -153 -261 -101 callgsubr
          endchar
        </CharString>
        <CharString name="Ucircumflex">
          156 201 713 -102 callsubr
          -209 -222 -56 callgsubr
          185 66 -75 callsubr
          79 -17 rlineto
          -300 vlineto
          -161 -31 6 callgsubr
        </CharString>
        <CharString name="Udieresis">
          156 239 698 -11 callsubr
          -117 -714 -65 callsubr
        </CharString>
        <CharString name="Ugrave">
          156 449 675 rmoveto
          -16 callsubr
          116 -765 -65 callsubr
        </CharString>
        <CharString name="Uhorn">
          156 355 -16 -97 callsubr
          endchar
        </CharString>
        <CharString name="Uhungarumlaut">
          156 224 673 -16 callgsubr
          220 -36 -16 callgsubr
          -25 -725 rmoveto
          185 66 93 201 hvcurveto
          -27 callgsubr
          vhcurveto
          endchar
        </CharString>
        <CharString name="Umacron">
          156 201 797 -49 callgsubr
          -443 -218 -34 callsubr
        </CharString>
        <CharString name="Uogonek">
          156 442 -187 rmoveto
          39 43 24 27 22 hvcurveto
          28 callgsubr
          26 24 44 41 25 hvcurveto
          79 44 29 86 135 vvcurveto
          -27 callgsubr
          18 17 1 2 16 vhcurveto
          -31 -24 -25 -34 -42 vvcurveto
          -49 38 -25 54 vhcurveto
          endchar
        </CharString>
        <CharString name="Uring">
          156 276 -13 callsubr
          -277 -117 -34 callsubr
        </CharString>
        <CharString name="Utilde">
          156 425 -87 callgsubr
          -326 -120 -101 callgsubr
          endchar
        </CharString>
        <CharString name="V">
          70 275 -9 rmoveto
          88 hlineto
          206 589 64 14 rlineto
          54 -234 -54 vlineto
          82 -14 -84 -263 -55 -166 -8 -14 -6 30 -132 403 rlineto
          10 vlineto
          77 14 rlineto
          54 -285 -54 vlineto
          66 -14 rlineto
          endchar
        </CharString>
        <CharString name="W">
          441 237 -9 -94 callsubr
        </CharString>
        <CharString name="Wacute">
          441 447 675 -92 callgsubr
          -186 -728 -94 callsubr
        </CharString>
        <CharString name="Wcircumflex">
          441 327 713 -102 callsubr
          -197 -810 -94 callsubr
        </CharString>
        <CharString name="Wdieresis">
          441 373 692 -80 callgsubr
          -369 -701 -94 callsubr
        </CharString>
        <CharString name="Wgrave">
          441 543 675 -86 callsubr
          -96 -758 -94 callsubr
        </CharString>
        <CharString name="X">
          65 52 vmoveto
          -52 232 51 vlineto
          -60 14 rlineto
          14 vlineto
          123 173 118 -173 rlineto
          -12 vlineto
          -66 -15 rlineto
          -52 285 52 vlineto
          -72 16 -184 277 174 235 70 17 rlineto
          51 -236 -51 vlineto
          68 -15 rlineto
          -12 vlineto
          -118 -161 -105 156 rlineto
          16 vlineto
          65 15 rlineto
          52 -287 -52 vlineto
          69 -18 176 -261 -176 -249 rlineto
          endchar
        </CharString>
        <CharString name="Y">
          58 168 52 -93 callsubr
          endchar
        </CharString>
        <CharString name="Y.loclGUA">
          151 391 648 -100 callgsubr
        </CharString>
        <CharString name="Yacute">
          58 232 -25 callsubr
          -41 -719 rmoveto
          283 52 hlineto
          -30 callsubr
          -80 -17 rlineto
          endchar
        </CharString>
        <CharString name="Yacute.loclGUA">
          151 515 749 -18 callgsubr
          86 -27 -100 callgsubr
        </CharString>
        <CharString name="Ycircumflex">
          58 156 713 -102 callsubr
          -95 -749 -93 callsubr
          endchar
        </CharString>
        <CharString name="Ycircumflex.loclGUA">
          151 347 737 rmoveto
          32 callsubr
          -16 hhcurveto
          -10 -11 -6 -33 -40 hvcurveto
          -107 -88 26 -39 rlineto
          180 -26 -100 callgsubr
        </CharString>
        <CharString name="Ydieresis">
          58 190 695 -11 callsubr
          -256 -643 rmoveto
          -26 callgsubr
          -30 callsubr
          endchar
        </CharString>
        <CharString name="Ydieresis.loclGUA">
          151 231 692 -80 callgsubr
          -73 -44 -100 callgsubr
        </CharString>
        <CharString name="Ygrave">
          58 372 675 -86 callsubr
          6 -697 -93 callsubr
          endchar
        </CharString>
        <CharString name="Ygrave.loclGUA">
          151 401 675 -86 callsubr
          200 -101 -100 callgsubr
        </CharString>
        <CharString name="Z">
          -11 16 70 -65 callgsubr
          endchar
        </CharString>
        <CharString name="Zacute">
          -10 180 0 callgsubr
          -140 -719 rmoveto
          502 173 -63 hlineto
          -24 callgsubr
          -343 -493 rlineto
          endchar
        </CharString>
        <CharString name="Zacute.loclPLK">
          -11 279 -53 callsubr
          -218 -635 -65 callgsubr
          endchar
        </CharString>
        <CharString name="Zcaron">
          -10 154 858 rmoveto
          -40 -46 85 -79 rlineto
          -29 33 19 -18 14 hhcurveto
          12 18 16 31 35 hvcurveto
          91 84 -30 40 -120 -71 rlineto
          -255 -716 rmoveto
          -70 502 173 -63 vlineto
          -24 callgsubr
          endchar
        </CharString>
        <CharString name="Zdotaccent">
          -10 262 690 rmoveto
          47 30 37 43 45 -30 27 -40 -43 -34 -37 -42 -43 29 -30 41 hvcurveto
          -246 -620 rmoveto
          -70 502 173 -63 vlineto
          -24 callgsubr
          endchar
        </CharString>
        <CharString name="a">
          -39 179 -10 rmoveto
          -107 callgsubr
          endchar
        </CharString>
        <CharString name="aacute">
          -41 185 -7 callsubr
          -15 hvcurveto
          -101 -117 rlineto
          26 -583 -102 callgsubr
        </CharString>
        <CharString name="abreve">
          -41 244 551 rmoveto
          138 18 150 0 hvcurveto
          -39 14 rlineto
          0 -19 -84 -92 -90 -15 83 0 vhcurveto
          -66 -24 rlineto
          0 21 -139 144 vhcurveto
          -66 -561 -102 callgsubr
        </CharString>
        <CharString name="acircumflex">
          -41 358 540 rmoveto
          38 43 -108 109 rlineto
          15 -15 -13 9 -14 hhcurveto
          -16 -18 -14 -18 -18 hvcurveto
          -103 -104 30 -39 117 75 rlineto
          -60 -626 -102 callgsubr
        </CharString>
        <CharString name="acute">
          -337 573 vmoveto
          -90 callgsubr
          endchar
        </CharString>
        <CharString name="acutecomb">
          -208 573 rmoveto
          -90 callgsubr
          endchar
        </CharString>
        <CharString name="acutecomb.case">
          -214 675 -92 callgsubr
          endchar
        </CharString>
        <CharString name="adieresis">
          -41 124 566 rmoveto
          43 27 34 40 40 -27 -89 callsubr
          -166 -576 -102 callgsubr
        </CharString>
        <CharString name="ae">
          203 309 275 -70 callgsubr
        </CharString>
        <CharString name="aeacute">
          203 326 573 rmoveto
          -90 callgsubr
          -118 -415 -70 callgsubr
        </CharString>
        <CharString name="agrave">
          -41 309 535 rmoveto
          33 38 -82 callgsubr
          44 -658 -102 callgsubr
        </CharString>
        <CharString name="amacron">
          -41 62 593 4 callsubr
          104 -677 -102 callgsubr
        </CharString>
        <CharString name="ampersand">
          66 453 40 rmoveto
          11 -10 rlineto
          -23 23 26 -7 22 hhcurveto
          115 56 hlineto
          -84 17 -44 46 rlineto
          22 39 11 42 38 vvcurveto
          76 -13 56 -5 13 vhcurveto
          -160 -52 hlineto
          90 -18 rlineto
          4 -12 6 -23 -37 vvcurveto
          -22 -3 -22 -7 -21 vhcurveto
          -219 227 rlineto
          -51 52 -13 19 39 vvcurveto
          46 14 32 71 43 26 -9 -3 7 vhcurveto
          21 -108 rlineto
          61 165 hlineto
          10 -23 -67 18 -59 hhcurveto
          -131 -65 -71 -93 -58 27 -43 46 -53 hvcurveto
          -43 -24 -75 -56 -97 vvcurveto
          -143 116 -40 128 72 58 21 33 42 vhcurveto
          -252 258 rmoveto
          203 -207 rlineto
          -20 -28 -36 -11 -42 hhcurveto
          -106 -42 42 81 61 30 36 21 18 hvcurveto
          endchar
        </CharString>
        <CharString name="aogonek">
          -41 384 -187 rmoveto
          63 42 51 0 hvcurveto
          6 callsubr
          33 29 29 22 19 hvcurveto
          36 5 29 12 0 vvcurveto
          46 vlineto
          -72 -47 callgsubr
          88 -55 40 -103 -73 -138 -41 -87 -39 25 -15 36 26 19 9 0 vhcurveto
          15 91 -44 callgsubr
          -69 vlineto
          -101 -16 rlineto
          -101 -16 -70 -46 -87 vvcurveto
          -68 41 -60 104 68 49 38 13 13 vhcurveto
          7 hlineto
          6 -22 9 -17 32 -6 rrcurveto
          -37 -24 -33 -37 -48 vvcurveto
          -49 39 -25 53 vhcurveto
          -149 255 rmoveto
          -56 -24 -68 callgsubr
        </CharString>
        <CharString name="approxequal">
          -15 101 296 rmoveto
          72 35 101 -21 rlineto
          -6 28 32 -7 29 hhcurveto
          26 22 9 24 16 hvcurveto
          37 55 -29 30 25 callgsubr
          -11 -24 -16 hvcurveto
          -36 -54 rlineto
          29 -203 rmoveto
          72 35 101 -21 rlineto
          -6 28 32 -7 29 hhcurveto
          26 22 9 24 16 hvcurveto
          37 52 -29 33 25 callgsubr
          -14 -24 -16 hvcurveto
          -36 -51 rlineto
          endchar
        </CharString>
        <CharString name="aring">
          -41 236 552 rmoveto
          70 35 42 51 50 -29 40 -69 -73 -32 -46 -50 -51 28 -36 70 hvcurveto
          4 46 rmoveto
          -24 -12 6 39 32 8 12 26 24 12 -7 -37 -33 -8 -12 -26 hvcurveto
          -62 -608 -102 callgsubr
        </CharString>
        <CharString name="aringacute">
          -39 207 814 rmoveto
          -90 callgsubr
          -156 -292 -47 callsubr
          -75 -608 rmoveto
          -107 callgsubr
          endchar
        </CharString>
        <CharString name="asciicircum">
          -15 235 649 rmoveto
          -191 -387 rlineto
          86 hlineto
          136 292 135 -292 rlineto
          86 hlineto
          -190 387 rlineto
          endchar
        </CharString>
        <CharString name="asciitilde">
          -79 323 220 rmoveto
          26 23 11 25 17 hvcurveto
          38 57 -30 32 -75 -37 -96 24 rlineto
          7 -28 -31 6 -22 hhcurveto
          -28 -24 -11 -26 -16 hvcurveto
          -38 -56 30 -30 75 36 96 -23 rlineto
          -7 29 24 -8 30 hhcurveto
          endchar
        </CharString>
        <CharString name="asterisk">
          -161 158 346 rmoveto
          34 7 49 22 4 hvcurveto
          12 68 101 -96 rlineto
          34 23 14 16 17 vvcurveto
          31 -31 10 -24 13 vhcurveto
          -62 33 124 65 rlineto
          47 -15 -12 17 -22 hhcurveto
          -21 -14 -15 -16 -17 hvcurveto
          -57 -54 -21 139 rlineto
          -24 hlineto
          -44 -10 -19 -19 -17 10 -19 8 -17 hvcurveto
          30 -66 -138 22 rlineto
          -10 -23 -4 -17 -11 vvcurveto
          -31 27 -6 17 10 18 2 1 9 vhcurveto
          71 8 -60 -126 rlineto
          -20 25 17 -11 14 hhcurveto
          51 159 rmoveto
          -30 9 rlineto
          32 vlineto
          28 11 19 -26 rlineto
          endchar
        </CharString>
        <CharString name="at">
          217 379 -111 rmoveto
          134 79 67 1 hvcurveto
          -20 41 rlineto
          -12 -27 -66 -25 -82 hhcurveto
          -169 -103 102 194 218 146 78 136 124 120 -64 -197 -120 -48 -46 -49 -32 -10 14 23 3 1 12 2 11 hvcurveto
          45 267 rlineto
          -51 hlineto
          -9 -8 -10 -9 -10 -11 rrcurveto
          0 -41 18 -45 -126 -59 -149 -97 -97 41 -42 60 53 35 31 24 36 vhcurveto
          -42 15 43 -24 55 hhcurveto
          121 81 98 164 181 -124 137 -209 -235 -158 -178 -200 -215 127 -148 229 hvcurveto
          -31 252 rmoveto
          -36 -9 23 53 74 22 59 13 14 hvcurveto
          6 6 15 4 20 hhcurveto
          46 25 -19 0 hvcurveto
          -30 -183 rlineto
          0 -33 -31 -39 vhcurveto
          endchar
        </CharString>
        <CharString name="atilde">
          -41 322 567 rmoveto
          28 24 13 26 15 hvcurveto
          35 57 -30 28 -72 -36 -88 28 rlineto
          7 -25 -30 8 -20 hhcurveto
          -28 -26 -12 -26 -16 hvcurveto
          -35 -57 31 -28 72 36 89 -28 rlineto
          -7 26 28 -9 22 hhcurveto
          -144 -577 -102 callgsubr
        </CharString>
        <CharString name="b">
          -11 284 -8 rmoveto
          111 105 93 199 161 -78 62 -100 -77 -51 -39 -13 -16 hvcurveto
          -2 6 6 11 rlineto
          213 vlineto
          -33 14 -162 -24 rlineto
          -52 vlineto
          81 -15 rlineto
          -609 57 vlineto
          35 33 rlineto
          10 hlineto
          -13 14 37 -27 63 hhcurveto
          -26 70 rmoveto
          -33 -28 8 5 -15 hvcurveto
          336 vlineto
          5 15 31 10 39 hhcurveto
          79 31 -46 -128 -144 -41 -46 -78 hvcurveto
          endchar
        </CharString>
        <CharString name="backslash">
          -119 -11 662 rmoveto
          360 -828 75 33 -362 828 rlineto
          endchar
        </CharString>
        <CharString name="bar">
          -184 140 699 rmoveto
          -855 80 855 vlineto
          endchar
        </CharString>
        <CharString name="braceleft">
          -317 184 -151 rmoveto
          24 50 rlineto
          -54 30 -9 22 53 vvcurveto
          15 211 rlineto
          40 -24 16 -13 9 vhcurveto
          12 8 25 16 41 vvcurveto
          -14 201 rlineto
          53 9 23 54 30 vhcurveto
          -25 50 rlineto
          -76 -24 -63 -53 -78 vvcurveto
          -6 0 -5 1 -6 vhcurveto
          26 -202 -19 -9 -21 -8 -17 -7 rlinecurve
          -47 vlineto
          17 -7 21 -9 19 -9 -27 -212 rcurveline
          -1 -6 0 -5 -5 vvcurveto
          -79 64 -53 76 -23 vhcurveto
          endchar
        </CharString>
        <CharString name="braceright">
          -317 44 -151 rmoveto
          75 23 65 53 79 vvcurveto
          5 0 6 -1 5 vhcurveto
          -27 212 19 9 21 9 17 7 rlinecurve
          47 vlineto
          -17 7 -21 8 -19 9 26 204 rcurveline
          1 6 0 4 5 vvcurveto
          78 -64 53 -75 24 vhcurveto
          -25 -50 rlineto
          55 -30 8 -23 -53 vvcurveto
          -14 -201 rlineto
          -41 25 -16 12 -8 vhcurveto
          -13 -9 -24 -16 -40 vvcurveto
          15 -211 rlineto
          -53 -9 -22 -54 -30 vhcurveto
          endchar
        </CharString>
        <CharString name="bracketleft">
          -290 65 702 rmoveto
          -853 191 56 vlineto
          -99 18 rlineto
          704 vlineto
          99 18 rlineto
          57 vlineto
          endchar
        </CharString>
        <CharString name="bracketright">
          -290 -2 -95 rmoveto
          -56 192 853 -192 -56 vlineto
          100 -18 rlineto
          -705 vlineto
          endchar
        </CharString>
        <CharString name="breve">
          -226 66 714 -52 callgsubr
        </CharString>
        <CharString name="brokenbar">
          -184 140 699 rmoveto
          -365 80 365 vlineto
          -80 -490 rmoveto
          -365 80 365 vlineto
          endchar
        </CharString>
        <CharString name="bullet">
          -132 90 305 rmoveto
          -63 50 -50 63 63 51 50 63 63 -51 51 -63 -63 -50 -51 -63 vhcurveto
          endchar
        </CharString>
        <CharString name="c">
          -96 414 51 -75 callgsubr
        </CharString>
        <CharString name="cacute">
          -96 154 573 rmoveto
          33 -38 1 callgsubr
          -15 hvcurveto
          168 -639 rmoveto
          14 callsubr
          30 20 -7 0 vhcurveto
          17 -98 rlineto
          0 15 -7 19 1 callsubr
          -167 79 -80 148 105 61 62 0 vhcurveto
          endchar
        </CharString>
        <CharString name="cacute.loclPLK">
          -96 223 -50 callsubr
          124 -636 -75 callgsubr
        </CharString>
        <CharString name="caron">
          -228 156 540 -88 callgsubr
          endchar
        </CharString>
        <CharString name="ccaron">
          -96 247 540 -88 callgsubr
          10 -551 rmoveto
          105 61 62 0 hvcurveto
          14 callsubr
          30 20 -7 0 vhcurveto
          17 -98 rlineto
          0 15 -7 19 1 callsubr
          -167 79 -80 148 vhcurveto
          endchar
        </CharString>
        <CharString name="ccedilla">
          -96 237 -33 callsubr
          20 vlineto
          96 5 55 56 0 vvcurveto
          14 callsubr
          18 20 -3 -4 12 vhcurveto
          17 -98 rlineto
          -4 9 14 -3 11 hhcurveto
          1 callsubr
          -153 67 -80 124 -12 hvcurveto
          -23 -53 22 -22 32 -6 rlineto
          17 -22 callgsubr
        </CharString>
        <CharString name="ccircumflex">
          -96 99 580 -104 callsubr
          212 -633 -75 callgsubr
        </CharString>
        <CharString name="cdotaccent">
          -96 246 -78 callgsubr
          168 -513 -75 callgsubr
        </CharString>
        <CharString name="cedilla">
          -355 74 -27 callsubr
        </CharString>
        <CharString name="cent">
          -80 228 61 rmoveto
          5 -109 rlineto
          68 hlineto
          5 109 rlineto
          78 9 50 41 0 vvcurveto
          52 vlineto
          0 -59 -21 -71 -108 -32 62 137 135 36 50 84 38 30 -15 0 vhcurveto
          16 -84 rlineto
          65 151 -7 callgsubr
        </CharString>
        <CharString name="cent.osf">
          -80 228 -8 rmoveto
          5 -109 rlineto
          68 hlineto
          5 108 rlineto
          78 10 50 41 0 vvcurveto
          51 vlineto
          0 -59 -20 -71 -108 -32 62 137 134 36 50 84 38 30 -14 0 vhcurveto
          16 -85 rlineto
          65 152 -7 callgsubr
        </CharString>
        <CharString name="circumflex">
          -228 6 580 -104 callsubr
          endchar
        </CharString>
        <CharString name="colon">
          -343 98 316 rmoveto
          45 27 36 40 42 -27 26 -39 -40 -32 -35 -40 -41 27 -28 39 hvcurveto
          -325 vmoveto
          45 27 36 41 41 -27 26 -39 -40 -32 -35 -40 -41 27 -28 39 hvcurveto
          endchar
        </CharString>
        <CharString name="comma">
          -357 59 -135 -5 callsubr
        </CharString>
        <CharString name="copyright">
          115 4 325 rmoveto
          -181 146 -146 182 180 146 146 181 181 -146 146 -180 -182 -146 -146 -181 vhcurveto
          326 -267 rmoveto
          -148 -108 119 147 147 108 119 148 148 112 -119 -147 -147 -112 -119 -148 hvcurveto
          80 223 rmoveto
          -11 -58 rlineto
          -3 -6 -14 -8 -32 hhcurveto
          -62 -32 22 89 88 24 27 69 27 17 -6 -2 6 hvcurveto
          11 -52 rlineto
          41 104 hlineto
          6 -22 -46 8 -49 hhcurveto
          -102 -67 -77 -97 -106 52 -61 107 67 40 14 8 22 hvcurveto
          104 vlineto
          endchar
        </CharString>
        <CharString name="currency">
          -15 88 207 rmoveto
          -82 -87 52 -52 88 83 rlineto
          -21 33 38 -12 43 hhcurveto
          44 41 13 23 34 hvcurveto
          92 -87 53 52 -89 92 rlineto
          21 33 15 40 43 vvcurveto
          42 -14 39 -20 32 vhcurveto
          87 91 -53 52 -91 -85 rlineto
          23 -33 -43 16 -44 hhcurveto
          -43 -40 -13 -21 -32 hvcurveto
          -86 81 -53 -52 81 -86 rlineto
          -23 -33 -13 -42 -44 vvcurveto
          -45 13 -41 24 -34 vhcurveto
          60 120 rmoveto
          61 52 53 60 61 52 -52 -61 -60 -52 -51 -61 -60 -52 51 59 vhcurveto
          endchar
        </CharString>
        <CharString name="d">
          -54 callgsubr
          endchar
        </CharString>
        <CharString name="dagger">
          -98 175 415 rmoveto
          -5 -415 rlineto
          107 hlineto
          -4 415 154 -11 rlineto
          105 vlineto
          -159 -11 13 171 rlineto
          -115 hlineto
          13 -171 -159 11 rlineto
          -105 vlineto
          endchar
        </CharString>
        <CharString name="daggerdbl">
          -97 168 hmoveto
          112 hlineto
          -11 165 156 -11 rlineto
          105 vlineto
          -158 -11 rlineto
          173 vlineto
          158 -11 rlineto
          105 vlineto
          -156 -11 11 165 rlineto
          -112 hlineto
          11 -165 -156 11 rlineto
          -105 vlineto
          158 11 rlineto
          -173 vlineto
          -158 11 rlineto
          -105 vlineto
          156 11 rlineto
          endchar
        </CharString>
        <CharString name="dcaron">
          22 514 541 rmoveto
          40 hlineto
          0 63 71 59 vvcurveto
          26 -17 29 -40 -20 -18 -8 -14 -11 vhcurveto
          13 -16 8 -23 -24 vvcurveto
          -28 -6 -42 -12 -30 vhcurveto
          -290 -552 rmoveto
          72 46 33 22 20 hvcurveto
          4 hlineto
          18 -51 162 22 rlineto
          52 vlineto
          -78 15 rlineto
          603 vlineto
          -33 14 -162 -16 rlineto
          -52 vlineto
          81 -23 rlineto
          -115 vlineto
          6 -12 -2 -6 rlineto
          13 -18 -33 19 -52 hhcurveto
          -107 -111 -83 -204 -161 79 -70 108 hvcurveto
          43 82 rmoveto
          -77 -31 45 127 143 42 45 71 34 30 -7 -5 18 hvcurveto
          -326 vlineto
          -10 -18 -32 -12 -37 hhcurveto
          endchar
        </CharString>
        <CharString name="dcroat">
          1 220 -11 rmoveto
          73 45 33 22 20 hvcurveto
          4 hlineto
          18 -51 162 22 rlineto
          52 vlineto
          -77 15 rlineto
          464 37 67 -37 72 41 callgsubr
          -19 rlineto
          -19 -180 -67 180 -60 vlineto
          5 -12 -2 -7 rlineto
          13 -18 -33 19 -52 hhcurveto
          -107 -111 -79 -200 -161 79 -70 108 hvcurveto
          43 82 rmoveto
          -77 -30 45 127 139 42 41 70 34 31 -7 -6 18 hvcurveto
          -317 vlineto
          -10 -19 -32 -12 -37 hhcurveto
          endchar
        </CharString>
        <CharString name="degree">
          -307 11 569 rmoveto
          -59 47 -48 60 60 49 48 59 61 -49 48 -60 -60 -47 -48 -61 vhcurveto
          65 hmoveto
          25 18 18 24 25 18 -18 -25 -24 -18 -18 -25 -24 -18 18 24 vhcurveto
          endchar
        </CharString>
        <CharString name="dieresis">
          -192 63 566 rmoveto
          43 28 34 40 40 -28 -89 callsubr
          endchar
        </CharString>
        <CharString name="divide">
          -15 261 357 rmoveto
          47 30 38 43 45 -30 27 -40 -44 -33 -37 -42 -44 29 -30 41 hvcurveto
          -194 -137 rmoveto
          395 83 -395 hlineto
          194 -292 rmoveto
          47 30 39 43 45 -30 26 -40 -44 -33 -36 -43 -43 29 -31 41 hvcurveto
          endchar
        </CharString>
        <CharString name="dollar">
          -80 446 189 rmoveto
          109 -65 38 -97 45 vhcurveto
          -83 40 -46 16 64 vvcurveto
          51 28 27 65 40 29 -10 -10 20 vhcurveto
          20 -101 rlineto
          62 171 hlineto
          -25 9 -60 12 -53 3 -4 105 rcurveline
          -70 hlineto
          -5 -108 rlineto
          -102 -16 -60 -67 -98 vvcurveto
          -127 102 -37 76 -34 vhcurveto
          94 -42 22 -28 -46 vvcurveto
          -56 -29 -36 -73 -52 -34 18 24 -25 vhcurveto
          -18 101 rlineto
          -63 -165 hlineto
          22 -17 63 -28 76 -5 4 -102 rcurveline
          68 hlineto
          5 105 rlineto
          93 16 75 60 119 vvcurveto
          endchar
        </CharString>
        <CharString name="dollar.osf">
          -93 199 -117 rmoveto
          68 hlineto
          4 110 rlineto
          75 14 68 45 101 199 -269 -72 115 vvcurveto
          37 17 24 74 44 33 -12 0 vhcurveto
          18 -75 rlineto
          59 142 hlineto
          -14 5 -52 12 -52 4 -4 105 rcurveline
          -70 hlineto
          -5 -108 rlineto
          -93 -15 -58 -60 -85 -196 266 77 -116 vvcurveto
          -55 -16 -22 -83 -51 -30 24 1 -3 vhcurveto
          -20 84 rlineto
          -60 -143 hlineto
          21 -14 63 -18 65 -3 rrcurveto
          endchar
        </CharString>
        <CharString name="dotaccent">
          -399 69 -78 callgsubr
          endchar
        </CharString>
        <CharString name="dotbelowcomb">
          -77 -194 -100 callsubr
        </CharString>
        <CharString name="dotlessi">
          -240 22 50 rmoveto
          -50 266 50 vlineto
          -84 callsubr
          endchar
        </CharString>
        <CharString name="e">
          -67 253 -11 -103 callgsubr
          endchar
        </CharString>
        <CharString name="eacute">
          -68 192 -7 callsubr
          -15 hvcurveto
          -101 -117 rlineto
          103 -584 -95 callgsubr
        </CharString>
        <CharString name="ebreve">
          -67 156 714 -95 callsubr
          97 -725 -103 callgsubr
          endchar
        </CharString>
        <CharString name="ecaron">
          -68 245 540 rmoveto
          13 18 15 25 25 hvcurveto
          97 97 -29 38 -117 -79 -117 79 -39 -44 92 -91 rlineto
          -23 24 19 -17 14 hhcurveto
          17 -551 -95 callgsubr
        </CharString>
        <CharString name="ecircumflex">
          -68 360 540 rmoveto
          14 callgsubr
          -103 -104 31 -39 116 75 rlineto
          22 -627 -95 callgsubr
        </CharString>
        <CharString name="edieresis">
          -68 137 566 rmoveto
          18 callgsubr
          220 hmoveto
          18 callgsubr
          -95 -577 -95 callgsubr
        </CharString>
        <CharString name="edotaccent">
          -68 250 -15 callgsubr
          -34 -37 -42 -43 29 -30 41 hvcurveto
          12 -575 -95 callgsubr
        </CharString>
        <CharString name="egrave">
          -68 311 535 rmoveto
          33 38 -82 callgsubr
          126 -659 -95 callgsubr
        </CharString>
        <CharString name="eight">
          -42 -13 72 529 79 hstemhm
          41 108 201 99 -92 116 hintmask 11110000
          247 -13 rmoveto
          hintmask 11101000
          152 74 95 98 89 -47 45 -69 39 hvcurveto
          hintmask 11110000
          54 33 39 54 76 vvcurveto
          92 -70 59 -119 -120 -87 -77 -110 -81 44 -47 58 -34 vhcurveto
          -63 -39 -51 -69 -70 vvcurveto
          -97 70 -56 135 vhcurveto
          53 394 rmoveto
          -14 6 -15 6 -12 7 rrcurveto
          -71 33 -22 27 49 vvcurveto
          48 24 31 64 68 29 -30 -60 -48 -18 -41 -33 -28 vhcurveto
          -42 -321 rmoveto
          -80 -28 41 63 41 13 42 47 44 hvcurveto
          33 -14 rlineto
          82 -33 36 -31 -57 vvcurveto
          -62 -33 -34 -70 vhcurveto
          endchar
        </CharString>
        <CharString name="eight.osf">
          -43 258 -13 rmoveto
          117 103 63 134 86 -47 48 -71 39 hvcurveto
          55 33 41 50 71 vvcurveto
          99 -66 60 -118 -119 -85 -80 -107 -79 37 -50 65 -36 vhcurveto
          -63 -37 -51 -60 -76 vvcurveto
          -84 57 -74 145 vhcurveto
          39 401 rmoveto
          -19 8 rlineto
          -75 35 -23 27 54 vvcurveto
          47 23 32 65 63 28 -32 -61 -52 -29 -32 -33 -26 vhcurveto
          -32 -327 rmoveto
          -75 -30 41 57 50 22 40 55 37 hvcurveto
          26 -11 rlineto
          72 -27 33 -32 -53 vvcurveto
          -62 -28 -40 -75 vhcurveto
          endchar
        </CharString>
        <CharString name="ellipsis">
          33 91 -9 rmoveto
          43 27 35 39 40 -27 25 -37 -40 -30 -33 -39 -40 26 -27 38 19 callsubr
          27 -27 37 19 callsubr
          26 -27 38 hvcurveto
          endchar
        </CharString>
        <CharString name="emacron">
          -68 73 593 4 callsubr
          177 -678 -95 callgsubr
        </CharString>
        <CharString name="emdash">
          429 6 310 rmoveto
          -88 962 88 vlineto
          endchar
        </CharString>
        <CharString name="endash">
          -58 6 309 rmoveto
          -88 475 88 vlineto
          endchar
        </CharString>
        <CharString name="eng">
          25 388 -168 rmoveto
          74 42 32 56 hvcurveto
          447 vlineto
          93 -48 48 -90 -54 -64 7 callsubr
          1 -21 43 -165 26 callgsubr
          79 -15 rlineto
          -346 vlineto
          -79 -14 rlineto
          -50 266 50 vlineto
          -73 14 rlineto
          352 vlineto
          7 29 31 3 26 hhcurveto
          66 22 -20 -59 hvcurveto
          -429 25 callsubr
        </CharString>
        <CharString name="eogonek">
          -68 313 -187 rmoveto
          63 42 51 0 hvcurveto
          6 callsubr
          41 46 39 21 15 hvcurveto
          40 20 26 25 0 vvcurveto
          -17 37 rlineto
          0 -44 -24 -82 -107 -33 62 94 -1 21 callsubr
          15 16 70 91 -43 103 -142 -137 -95 -103 -168 -169 80 -78 151 7 7 0 1 7 hvcurveto
          -33 -24 -29 -35 -44 vvcurveto
          -49 39 -25 53 vhcurveto
          -159 472 rmoveto
          89 2 22 59 75 -43 callsubr
        </CharString>
        <CharString name="equal">
          -15 66 309 rmoveto
          397 82 -397 hlineto
          -246 vmoveto
          397 81 -397 hlineto
          endchar
        </CharString>
        <CharString name="estimated">
          205 207 108 rmoveto
          201 508 vlineto
          208 -3 -130 145 -203 hhcurveto
          -192 -147 -152 -188 -187 151 -151 191 119 100 65 79 63 hvcurveto
          -74 hlineto
          -54 -55 -60 -35 -91 hhcurveto
          -77 -61 27 42 -39 hvcurveto
          344 256 rmoveto
          -344 179 hlineto
          40 42 56 24 75 hhcurveto
          73 62 -28 -34 36 hvcurveto
          endchar
        </CharString>
        <CharString name="eth">
          -20 272 -12 rmoveto
          139 93 85 244 131 -39 111 -75 67 hvcurveto
          57 32 -31 58 -88 -49 rlineto
          18 -39 -43 10 -50 hhcurveto
          -53 -29 -6 0 hvcurveto
          -55 vlineto
          50 40 -5 -11 33 hvcurveto
          -75 -42 32 -58 108 60 32 -29 18 -41 11 -48 rlinecurve
          3 -7 -32 15 -55 hhcurveto
          -132 -101 -85 -160 -161 72 -84 164 hvcurveto
          3 69 rmoveto
          -100 -16 80 98 99 25 69 88 51 39 -13 -4 11 hvcurveto
          1 -12 5 -58 -60 vvcurveto
          -133 -15 -66 -89 vhcurveto
          endchar
        </CharString>
        <CharString name="exclam">
          -332 29 667 rmoveto
          34 -507 rlineto
          70 hlineto
          14 271 10 103 97 vvcurveto
          27 -5 24 -58 -47 -18 -15 0 vhcurveto
          67 -689 rmoveto
          44 27 36 39 41 -27 25 -37 -41 -30 -34 -39 -40 27 -28 37 hvcurveto
          endchar
        </CharString>
        <CharString name="exclamdown">
          -332 110 392 rmoveto
          40 31 35 36 callsubr
          -26 37 hvcurveto
          9 -562 rmoveto
          47 18 15 0 hvcurveto
          -34 507 rlineto
          -70 hlineto
          -22 -422 -2 -36 -8 vvcurveto
          -29 3 -27 60 vhcurveto
          endchar
        </CharString>
        <CharString name="f">
          -214 18 hmoveto
          293 52 hlineto
          15 callgsubr
          6 11 2 10 hhcurveto
          30 50 -17 -8 30 hvcurveto
          3 2 32 16 39 vvcurveto
          42 -32 15 -45 -127 -80 -82 -120 -2 vhcurveto
          -70 -16 rlineto
          -59 70 -363 vlineto
          -75 -14 rlineto
          endchar
        </CharString>
        <CharString name="f_f">
          106 18 hmoveto
          280 52 hlineto
          -91 15 rlineto
          360 205 -363 vlineto
          -75 -14 rlineto
          -50 293 52 vlineto
          15 callgsubr
          7 11 2 10 hhcurveto
          20 35 -9 -16 54 hvcurveto
          20 8 15 24 25 vvcurveto
          37 -25 20 -52 -124 -82 -80 -122 -3 vhcurveto
          -15 -4 rlineto
          -190 113 hlineto
          -17 callsubr
        </CharString>
        <CharString name="fi">
          48 22 50 rmoveto
          -50 270 50 24 callgsubr
          360 99 vlineto
          -21 callsubr
          -344 -19 callgsubr
          260 50 vlineto
          -73 14 rlineto
          422 vlineto
          -33 12 rlineto
          -261 106 hlineto
          3 3 17 4 21 84 19 -29 41 hhcurveto
          33 22 29 29 44 -35 20 -81 -120 -101 -78 -124 -17 hvcurveto
          -70 -16 rlineto
          -59 70 -363 vlineto
          endchar
        </CharString>
        <CharString name="five">
          -85 -14 154 189 113 106 100 hstem
          55 77 205 89 vstem
          204 -14 rmoveto
          145 99 80 152 142 -99 49 -168 hvcurveto
          -60 139 288 100 -365 -317 103 hlineto
          132 48 -43 -90 -89 -34 -47 -85 -64 -36 25 2 -5 hvcurveto
          -10 94 rlineto
          -65 hlineto
          -8 -154 rlineto
          -18 29 60 -25 95 hhcurveto
          endchar
        </CharString>
        <CharString name="five.osf">
          -86 112 -166 rmoveto
          166 141 78 168 149 -131 46 -151 3 hvcurveto
          10 141 rlineto
          252 148 -61 hlineto
          -14 -48 rlineto
          -249 hlineto
          -25 -319 rlineto
          167 77 -39 -103 -114 -77 -53 -188 hvcurveto
          -50 vlineto
          0 34 -7 49 vhcurveto
          endchar
        </CharString>
        <CharString name="fl">
          64 22 50 rmoveto
          -50 284 50 vlineto
          -95 15 rlineto
          362 116 vlineto
          13 35 rlineto
          36 -129 110 vlineto
          5 9 31 4 39 hhcurveto
          51 53 -16 -4 11 hvcurveto
          -533 -19 callgsubr
          260 50 vlineto
          -73 14 rlineto
          606 vlineto
          0 -58 34 -113 -174 -69 -77 -125 -8 vhcurveto
          -70 -16 rlineto
          -59 70 -363 vlineto
          endchar
        </CharString>
        <CharString name="florin">
          -141 129 396 rmoveto
          -12 -373 rlineto
          -38 -3 -14 -25 -40 hhcurveto
          -29 -29 12 12 -23 hvcurveto
          0 -41 -11 -36 vvcurveto
          -41 27 -18 73 98 82 78 123 9 vhcurveto
          7 317 rlineto
          115 hlineto
          3 67 rlineto
          -112 hlineto
          5 62 rlineto
          37 4 16 20 40 hhcurveto
          29 37 -12 -11 24 hvcurveto
          0 40 10 36 vvcurveto
          42 -27 17 -73 -97 -82 -79 -122 -17 vhcurveto
          -82 -17 -6 -50 rlineto
          endchar
        </CharString>
        <CharString name="four">
          -39 0 88 83 83 432 -20 hstem
          283 115 vstem
          203 hmoveto
          281 53 hlineto
          -84 17 rlineto
          101 83 83 -83 404 vlineto
          -80 28 -324 -450 33 -65 rlineto
          257 -101 hlineto
          -83 -17 rlineto
          -93 201 rmoveto
          -1 9 170 238 6 15 3 -2 -2 -15 rlineto
          -245 vlineto
          endchar
        </CharString>
        <CharString name="four.osf">
          -29 295 -164 rmoveto
          114 180 83 83 -83 414 hlineto
          -82 21 -321 -450 32 -68 rlineto
          257 hlineto
          -183 83 rmoveto
          9 vlineto
          177 244 5 12 3 -2 -2 -11 rlineto
          -252 vlineto
          endchar
        </CharString>
        <CharString name="fraction">
          -107 416 694 rmoveto
          -475 -685 65 -45 475 685 rlineto
          endchar
        </CharString>
        <CharString name="g">
          -72 215 -166 -105 callsubr
        </CharString>
        <CharString name="g_tilde.loclGUA">
          -72 87 660 rmoveto
          31 callgsubr
          72 36 -91 callsubr
          128 -826 -105 callsubr
        </CharString>
        <CharString name="gbreve">
          -70 231 551 rmoveto
          138 17 150 0 hvcurveto
          -38 14 rlineto
          0 -19 -84 -92 -91 -14 83 0 vhcurveto
          -67 -24 rlineto
          0 22 -139 144 vhcurveto
          -16 -717 -105 callsubr
        </CharString>
        <CharString name="gcaron">
          -72 234 540 -88 callgsubr
          -19 -706 -105 callsubr
        </CharString>
        <CharString name="gcircumflex">
          -72 85 580 -104 callsubr
          27 -850 -105 callsubr
        </CharString>
        <CharString name="gcommaaccent">
          -70 217 543 rmoveto
          41 17 29 27 67 -66 61 0 hvcurveto
          -39 hlineto
          4 -11 13 -47 -38 vvcurveto
          -38 -17 -19 -6 -4 vhcurveto
          -16 14 17 -11 22 hhcurveto
          -2 -709 -105 callsubr
        </CharString>
        <CharString name="gdotaccent">
          -72 232 -78 callgsubr
          -17 -730 -105 callsubr
        </CharString>
        <CharString name="germandbls">
          70 407 -12 rmoveto
          91 92 40 115 96 -65 28 -70 27 hvcurveto
          -46 16 -28 10 37 vvcurveto
          45 43 20 32 28 vhcurveto
          29 25 30 30 56 vvcurveto
          95 -81 48 -109 -133 -94 -71 -131 -1 vhcurveto
          -70 -16 rlineto
          -58 70 -364 vlineto
          -75 -14 rlineto
          -50 189 514 vlineto
          78 33 35 70 57 30 -23 -47 -43 -24 -19 -30 -24 vhcurveto
          -34 -28 -40 -33 -70 vvcurveto
          -86 60 -26 61 -23 vhcurveto
          63 -22 30 -10 -49 vvcurveto
          -42 -24 -28 -49 -38 -28 17 9 -11 vhcurveto
          -21 80 rlineto
          -55 hlineto
          -9 -137 rlineto
          -12 18 68 -23 69 hhcurveto
          endchar
        </CharString>
        <CharString name="grave">
          -337 648 vmoveto
          17 callsubr
          33 38 -82 callgsubr
          endchar
        </CharString>
        <CharString name="gravecomb">
          -208 648 rmoveto
          17 callsubr
          33 38 -82 callgsubr
          endchar
        </CharString>
        <CharString name="gravecomb.case">
          -24 675 -86 callsubr
          endchar
        </CharString>
        <CharString name="greater">
          -15 32 80 rmoveto
          38 -80 436 216 rlineto
          62 vlineto
          -435 224 -39 -81 351 -171 rlineto
          endchar
        </CharString>
        <CharString name="greaterequal">
          -15 66 51 rmoveto
          436 216 rlineto
          62 vlineto
          -435 222 -38 -78 354 -172 -355 -173 rlineto
          7 -172 rmoveto
          467 76 -467 hlineto
          endchar
        </CharString>
        <CharString name="guillemotleft">
          -142 72 171 rmoveto
          12 callsubr
          -32 -40 -13 vvcurveto
          -17 35 -38 15 -18 vhcurveto
          170 hmoveto
          12 callsubr
          -33 -40 -13 vvcurveto
          -17 35 -38 16 -18 vhcurveto
          endchar
        </CharString>
        <CharString name="guillemotright">
          -142 99 242 rmoveto
          -79 -151 45 -28 96 108 rlineto
          15 17 35 41 14 vvcurveto
          16 -32 36 -15 18 vhcurveto
          -99 110 -45 -28 rlineto
          248 -153 rmoveto
          -79 -151 45 -28 97 108 rlineto
          14 17 36 41 14 vvcurveto
          16 -32 36 -15 18 vhcurveto
          -100 110 -45 -28 rlineto
          endchar
        </CharString>
        <CharString name="guilsinglleft">
          -312 72 174 rmoveto
          96 -107 45 28 -79 150 79 146 -45 29 -100 -111 rlineto
          -14 -16 -32 -36 -13 vvcurveto
          -17 35 -34 15 -19 vhcurveto
          endchar
        </CharString>
        <CharString name="guilsinglright">
          -312 99 245 rmoveto
          -79 -150 45 -28 96 107 rlineto
          15 19 35 34 17 vvcurveto
          13 -32 36 -14 16 vhcurveto
          -100 111 -45 -29 rlineto
          endchar
        </CharString>
        <CharString name="h">
          46 20 hmoveto
          -69 callsubr
          endchar
        </CharString>
        <CharString name="hbar">
          46 20 hmoveto
          267 30 callsubr
          344 vlineto
          3 13 41 8 32 hhcurveto
          68 20 -24 -56 hvcurveto
          -275 -19 callgsubr
          263 50 vlineto
          -76 14 rlineto
          295 vlineto
          102 -57 38 -81 -70 -69 -41 -11 -16 vhcurveto
          5 vlineto
          5 8 rlineto
          83 136 67 -136 75 41 callgsubr
          -20 rlineto
          -21 -81 -67 81 -479 vlineto
          -80 -14 rlineto
          endchar
        </CharString>
        <CharString name="hcircumflex">
          46 5 734 -104 callsubr
          -88 -838 rmoveto
          -69 callsubr
          endchar
        </CharString>
        <CharString name="hookabovecomb">
          -161 536 -103 callsubr
          endchar
        </CharString>
        <CharString name="hookabovecomb.case">
          -162 673 -104 callgsubr
          endchar
        </CharString>
        <CharString name="hungarumlaut">
          -206 61 686 rmoveto
          -63 -41 callsubr
          -11 hvcurveto
          168 hmoveto
          -62 -41 callsubr
          -12 hvcurveto
          endchar
        </CharString>
        <CharString name="hyphen">
          29 callgsubr
        </CharString>
        <CharString name="i">
          -29 callsubr
          endchar
        </CharString>
        <CharString name="i.loclTRK">
          -240 154 -78 callgsubr
          -132 -514 rmoveto
          -50 266 50 vlineto
          -84 callsubr
          endchar
        </CharString>
        <CharString name="iacute">
          -240 70 535 rmoveto
          -20 callsubr
          -101 -117 rlineto
          -15 -573 rmoveto
          266 50 hlineto
          -84 callsubr
          -80 -14 rlineto
          endchar
        </CharString>
        <CharString name="iacute_j.loclNLD">
          40 111 573 rmoveto
          -90 callgsubr
          198 -117 rmoveto
          -90 callgsubr
          -489 -640 rmoveto
          -50 266 50 vlineto
          -84 callsubr
          195 -170 -33 callgsubr
        </CharString>
        <CharString name="ibreve">
          -240 65 714 -95 callsubr
          -43 -664 rmoveto
          -50 266 50 vlineto
          -84 callsubr
          endchar
        </CharString>
        <CharString name="icircumflex">
          -240 -11 582 rmoveto
          29 -37 114 73 113 -74 37 41 -94 99 rlineto
          16 -15 -20 20 -15 hhcurveto
          -17 -24 -24 -17 -16 hvcurveto
          -59 -629 rmoveto
          -50 266 50 vlineto
          -84 callsubr
          endchar
        </CharString>
        <CharString name="idieresis">
          -239 25 565 rmoveto
          43 27 34 40 41 -27 24 -37 -39 -31 -33 -39 -39 27 -28 37 hvcurveto
          205 hmoveto
          43 27 34 40 41 -27 24 21 callgsubr
          -206 -565 rmoveto
          266 50 hlineto
          -84 callsubr
          -80 -14 rlineto
          endchar
        </CharString>
        <CharString name="igrave">
          -240 22 648 rmoveto
          17 callsubr
          33 38 -101 117 rlineto
          18 -16 -15 18 -18 hhcurveto
          -22 -32 -27 -51 -4 hvcurveto
          -598 vmoveto
          -50 266 50 vlineto
          -84 callsubr
          endchar
        </CharString>
        <CharString name="ij">
          40 144 -15 callgsubr
          -33 -37 -42 -43 -55 callsubr
          298 hmoveto
          48 29 37 43 45 -29 27 -41 -57 callsubr
          -43 -55 callsubr
          -420 -514 rmoveto
          -50 266 50 vlineto
          -31 callsubr
          297 -232 -73 callgsubr
        </CharString>
        <CharString name="imacron">
          -240 -31 593 rmoveto
          305 hlineto
          11 75 rlineto
          -305 hlineto
          42 -668 rmoveto
          266 50 hlineto
          -84 callsubr
          -80 -14 rlineto
          endchar
        </CharString>
        <CharString name="infinity">
          255 400 231 rmoveto
          -86 66 50 -28 71 hhcurveto
          102 81 75 118 118 -81 76 -102 -71 -48 -27 -87 -68 hvcurveto
          87 -68 -48 27 -71 hhcurveto
          -102 -81 -76 -118 -118 81 -75 102 70 51 28 86 66 hvcurveto
          -56 78 rmoveto
          -52 -36 -43 -51 -52 hhcurveto
          -50 -41 38 66 66 33 41 58 58 39 -55 -53 34 hvcurveto
          112 hmoveto
          53 34 39 55 58 hhcurveto
          58 33 -41 -66 -66 -41 -38 -50 -50 -46 53 50 -35 hvcurveto
          endchar
        </CharString>
        <CharString name="integral">
          -166 135 521 rmoveto
          -566 vlineto
          -14 -5 -16 -23 -33 -12 12 12 -28 vhcurveto
          -4 -4 -30 -14 -38 vvcurveto
          -42 38 -14 44 93 67 84 107 vhcurveto
          566 vlineto
          14 5 16 23 33 12 -12 -12 29 vhcurveto
          3 4 30 14 38 vvcurveto
          42 -38 14 -44 -92 -68 -84 -107 vhcurveto
          endchar
        </CharString>
        <CharString name="iogonek">
          -240 144 -78 callgsubr
          -122 -514 rmoveto
          -50 173 vlineto
          -40 -24 -36 -38 -51 -15 callsubr
          6 callsubr
          34 31 31 22 17 hvcurveto
          33 50 hlineto
          -31 callsubr
          endchar
        </CharString>
        <CharString name="itilde">
          -240 9 660 rmoveto
          31 callgsubr
          72 36 -91 callsubr
          13 -610 rmoveto
          -50 266 50 vlineto
          -84 callsubr
          endchar
        </CharString>
        <CharString name="j">
          -265 137 -78 callgsubr
          -43 -732 -73 callgsubr
        </CharString>
        <CharString name="jcircumflex">
          -265 1 580 -104 callsubr
          -112 -790 -33 callgsubr
        </CharString>
        <CharString name="k">
          -21 -48 callsubr
          16 rlineto
          48 -220 -51 vlineto
          57 -11 -21 callgsubr
          endchar
        </CharString>
        <CharString name="k.001">
          -21 -48 callsubr
          16 rlineto
          48 -220 -51 vlineto
          57 -11 -21 callgsubr
          endchar
        </CharString>
        <CharString name="kcommaaccent">
          -22 -48 callsubr
          14 rlineto
          50 -220 -49 vlineto
          57 -13 -21 callgsubr
          146 -267 -79 callgsubr
        </CharString>
        <CharString name="kgreenlandic">
          -15 23 50 rmoveto
          -50 260 50 vlineto
          -67 14 rlineto
          175 31 vlineto
          107 -190 rlineto
          6 -9 3 -9 -12 vvcurveto
          -19 192 50 vlineto
          -85 22 -128 222 110 139 67 16 rlineto
          48 -219 -51 vlineto
          56 -11 rlineto
          -11 vlineto
          -95 -119 rlineto
          -45 184 hlineto
          -45 callsubr
          -346 vlineto
          endchar
        </CharString>
        <CharString name="l">
          -244 15 50 rmoveto
          -50 266 50 vlineto
          -72 14 rlineto
          623 -54 callsubr
          endchar
        </CharString>
        <CharString name="lacute">
          -244 22 681 rmoveto
          211 75 38 callgsubr
          33 -13 34 -29 -13 -27 -16 -12 -17 vhcurveto
          -138 -94 rlineto
          21 -723 rmoveto
          266 30 callsubr
          623 vlineto
          -32 12 -162 -23 -35 callsubr
          -545 vlineto
          -79 -14 rlineto
          endchar
        </CharString>
        <CharString name="lcaron">
          -232 257 -35 callgsubr
          -239 -541 rmoveto
          266 30 callsubr
          623 -54 callsubr
          -79 -14 rlineto
          endchar
        </CharString>
        <CharString name="lcommaaccent">
          -244 18 hmoveto
          266 30 callsubr
          623 -54 callsubr
          -79 -14 rlineto
          87 -253 -34 callgsubr
        </CharString>
        <CharString name="ldot">
          -244 15 50 rmoveto
          -50 266 50 vlineto
          -72 14 rlineto
          623 -54 callsubr
          202 232 -37 callgsubr
          endchar
        </CharString>
        <CharString name="less">
          -15 32 278 rmoveto
          -62 vlineto
          436 -216 38 80 -351 170 352 171 -40 81 rlineto
          endchar
        </CharString>
        <CharString name="lessequal">
          -15 469 51 rmoveto
          37 77 -354 173 354 172 -38 78 -435 -222 rlineto
          -62 vlineto
          1 -311 rmoveto
          467 76 -467 hlineto
          endchar
        </CharString>
        <CharString name="logicalnot">
          -15 37 364 rmoveto
          -79 356 -169 72 248 vlineto
          endchar
        </CharString>
        <CharString name="longs">
          -214 18 hmoveto
          293 52 hlineto
          -104 15 rlineto
          544 vlineto
          -17 callsubr
        </CharString>
        <CharString name="lozenge">
          -15 49 327 rmoveto
          173 -327 rlineto
          86 hlineto
          174 327 -174 322 rlineto
          -87 hlineto
          158 -322 rmoveto
          -113 -233 -114 233 113 224 rlineto
          endchar
        </CharString>
        <CharString name="lslash">
          -240 21 50 rmoveto
          -50 266 50 vlineto
          -73 14 rlineto
          278 vlineto
          82 29 rlineto
          63 vlineto
          -82 -31 rlineto
          284 vlineto
          -32 12 -162 -23 -35 callsubr
          -248 vlineto
          -89 -33 rlineto
          -59 vlineto
          89 32 rlineto
          -237 vlineto
          endchar
        </CharString>
        <CharString name="m">
          336 22 hmoveto
          266 30 callsubr
          350 vlineto
          8 31 34 5 23 hhcurveto
          66 20 -19 -63 hvcurveto
          -281 vlineto
          -68 -14 rlineto
          -50 252 50 vlineto
          -70 14 rlineto
          313 vlineto
          12 -1 12 -2 14 vhcurveto
          7 25 41 5 26 hhcurveto
          66 20 -20 -62 hvcurveto
          -281 -19 callgsubr
          263 50 vlineto
          -75 14 rlineto
          306 vlineto
          87 -51 50 -87 -52 -82 -26 -28 -37 vhcurveto
          35 -22 -42 19 -54 hhcurveto
          -43 -60 -20 -30 -48 hvcurveto
          -34 45 -161 -25 rlineto
          -51 vlineto
          81 -16 rlineto
          -346 vlineto
          -79 -14 rlineto
          endchar
        </CharString>
        <CharString name="macron">
          -188 14 667 -49 callgsubr
          endchar
        </CharString>
        <CharString name="minus">
          -15 67 308 rmoveto
          -82 395 82 vlineto
          endchar
        </CharString>
        <CharString name="multiply">
          -15 79 146 rmoveto
          61 -61 125 126 126 -126 61 61 -126 125 126 126 -62 61 -126 -126 -124 126 -61 -60 126 -126 rlineto
          endchar
        </CharString>
        <CharString name="n">
          48 23 hmoveto
          -99 callsubr
          endchar
        </CharString>
        <CharString name="nacute">
          48 240 535 rmoveto
          -20 callsubr
          -101 -117 rlineto
          -184 -573 rmoveto
          -99 callsubr
          endchar
        </CharString>
        <CharString name="nacute.loclPLK">
          48 269 -50 callsubr
          -313 -687 rmoveto
          -99 callsubr
          endchar
        </CharString>
        <CharString name="napostrophe">
          55 13 -35 callgsubr
          10 -541 rmoveto
          -99 callsubr
          endchar
        </CharString>
        <CharString name="ncaron">
          48 293 540 rmoveto
          14 17 15 25 25 -8 callsubr
          -117 -79 -116 -43 callgsubr
          18 -17 14 hhcurveto
          -270 -540 rmoveto
          -99 callsubr
          endchar
        </CharString>
        <CharString name="ncommaaccent">
          48 23 hmoveto
          -99 callsubr
          233 -253 -79 callgsubr
        </CharString>
        <CharString name="nine">
          -38 -11 57 195 90 254 78 hstem
          27 124 202 129 vstem
          162 -11 rmoveto
          196 120 107 267 219 -84 82 -154 -117 -99 -79 -144 -126 74 -74 117 72 47 28 11 16 hvcurveto
          -174 -6 -66 -60 -202 hhcurveto
          -50 vlineto
          -3 20 28 -4 38 hhcurveto
          97 342 rmoveto
          -59 -52 27 95 92 24 40 70 101 8 -88 -151 -1 hvcurveto
          -1 -2 -38 -14 -51 hhcurveto
          endchar
        </CharString>
        <CharString name="nine.osf">
          -20 168 -170 rmoveto
          196 114 147 251 210 -71 96 -159 -126 -91 -95 -134 -132 67 -74 119 48 54 16 24 28 hvcurveto
          -181 -11 -73 -71 -181 hhcurveto
          -49 vlineto
          -5 30 29 -3 27 hhcurveto
          93 360 rmoveto
          -68 -38 42 76 106 26 41 69 64 31 -45 -103 3 hvcurveto
          -10 0 -10 -11 vvcurveto
          -25 0 -26 -1 -21 vhcurveto
          -8 -20 -35 -6 -31 hhcurveto
          endchar
        </CharString>
        <CharString name="notequal">
          -15 149 145 rmoveto
          -74 -117 66 -43 102 160 rlineto
          219 81 -166 hlineto
          53 83 rlineto
          113 82 -61 hlineto
          62 96 -67 43 -89 -139 rlineto
          -242 -82 189 hlineto
          -52 -83 rlineto
          -137 -81 hlineto
          endchar
        </CharString>
        <CharString name="ntilde">
          48 379 569 rmoveto
          28 23 13 26 16 hvcurveto
          35 57 -31 29 -72 -37 -87 28 rlineto
          8 -25 -31 8 -20 hhcurveto
          -28 -26 -13 -26 -15 hvcurveto
          -35 -56 30 -29 72 37 90 -28 rlineto
          -8 25 28 -9 23 hhcurveto
          -356 -569 rmoveto
          -99 callsubr
          endchar
        </CharString>
        <CharString name="numbersign">
          -15 97 118 rmoveto
          40 callgsubr
          108 hlineto
          40 callgsubr
          120 80 -105 hlineto
          20 106 rlineto
          107 80 -91 hlineto
          26 135 rlineto
          -82 hlineto
          -27 -135 rlineto
          -107 hlineto
          26 135 rlineto
          -82 hlineto
          -26 -135 rlineto
          -128 -80 112 hlineto
          -20 -106 rlineto
          -113 -80 hlineto
          302 80 rmoveto
          -107 hlineto
          21 106 rlineto
          107 hlineto
          endchar
        </CharString>
        <CharString name="o">
          -27 249 -12 -101 callsubr
          endchar
        </CharString>
        <CharString name="oacute">
          -12 180 573 rmoveto
          33 -38 -20 callsubr
          -23 -702 -91 callgsubr
        </CharString>
        <CharString name="oacute.loclPLK">
          -27 231 -50 callsubr
          -49 -699 -101 callsubr
          endchar
        </CharString>
        <CharString name="obreve">
          -27 165 714 -95 callsubr
          84 -726 -101 callsubr
          endchar
        </CharString>
        <CharString name="ocircumflex">
          -12 123 580 rmoveto
          31 -39 116 75 120 -76 14 callgsubr
          32 -696 -91 callgsubr
        </CharString>
        <CharString name="odieresis">
          -12 159 566 rmoveto
          -20 callgsubr
          220 hmoveto
          -20 callgsubr
          -121 -578 -91 callgsubr
        </CharString>
        <CharString name="oe">
          287 795 58 rmoveto
          -18 37 rlineto
          0 -44 -24 -81 -107 -34 62 94 21 callsubr
          14 16 70 91 -42 103 -143 -68 -59 -26 -47 -40 hvcurveto
          47 -36 -57 27 -80 hhcurveto
          -169 -76 -80 callsubr
          81 58 28 45 39 hvcurveto
          -48 38 62 -24 83 hhcurveto
          107 68 69 0 hvcurveto
          -518 -1 rmoveto
          -100 -19 65 123 127 16 61 97 86 21 -50 callgsubr
          -15 -71 -86 hvcurveto
          408 236 rmoveto
          -174 -8 rlineto
          89 2 23 59 74 hhcurveto
          65 13 -35 -70 -10 -1 -13 -2 -12 hvcurveto
          endchar
        </CharString>
        <CharString name="ogonek">
          -362 190 -136 rmoveto
          -24 callsubr
          -52 hlineto
          -47 -22 -58 -44 -63 -15 callsubr
          endchar
        </CharString>
        <CharString name="ograve">
          -12 153 648 rmoveto
          17 callsubr
          33 38 -82 callgsubr
          105 -660 -91 callgsubr
        </CharString>
        <CharString name="ohorn">
          -27 592 509 -97 callgsubr
          endchar
        </CharString>
        <CharString name="ohungarumlaut">
          -12 192 686 rmoveto
          -63 -125 43 -29 20 callgsubr
          169 hmoveto
          -63 -41 callsubr
          -11 hvcurveto
          -103 -698 -91 callgsubr
        </CharString>
        <CharString name="omacron">
          -12 105 667 rmoveto
          -11 -74 rlineto
          340 hlineto
          12 74 rlineto
          -188 -679 -91 callgsubr
        </CharString>
        <CharString name="one">
          -129 21 -21 657 -20 hstem
          11 76 74 116 vstem
          51 hmoveto
          346 59 hlineto
          -115 14 rlineto
          584 -66 vlineto
          -172 -30 rlineto
          -64 122 -490 vlineto
          -115 -14 rlineto
          endchar
        </CharString>
        <CharString name="one.osf">
          -132 62 59 rmoveto
          -59 330 59 vlineto
          -107 14 rlineto
          448 -67 vlineto
          -163 -30 rlineto
          -65 113 -353 vlineto
          endchar
        </CharString>
        <CharString name="onehalf">
          214 159 -36 rmoveto
          476 685 -65 45 -476 -685 rlineto
          -77 299 rmoveto
          252 59 hlineto
          -80 1 rlineto
          287 -65 vlineto
          -111 -10 rlineto
          -58 85 -216 vlineto
          -81 -1 rlineto
          433 -370 rmoveto
          289 120 -53 hlineto
          -11 -54 rlineto
          -107 4 hlineto
          46 36 rlineto
          82 65 29 31 55 vvcurveto
          70 -54 25 -90 -61 -48 -22 -13 -19 vhcurveto
          -105 58 vlineto
          12 64 rlineto
          0 21 8 25 35 19 -8 -34 -33 -42 -36 -43 -39 vhcurveto
          -88 -81 rlineto
          endchar
        </CharString>
        <CharString name="onequarter">
          234 587 693 rmoveto
          -476 -685 65 -45 476 685 rlineto
          -624 -278 rmoveto
          -62 252 59 vlineto
          -81 1 rlineto
          287 -65 vlineto
          -110 -10 rlineto
          -58 84 -216 vlineto
          408 -322 rmoveto
          -49 231 50 vlineto
          5 callgsubr
          97 vmoveto
          -80 hlineto
          -1 5 81 101 rlineto
          endchar
        </CharString>
        <CharString name="ordfeminine">
          -169 122 351 rmoveto
          32 39 16 22 19 hvcurveto
          5 hlineto
          -24 7 17 -11 28 hhcurveto
          23 35 8 10 23 hvcurveto
          38 vlineto
          -50 12 rlineto
          196 vlineto
          59 -39 29 -80 -75 -72 -43 -45 -24 13 -12 29 12 14 3 3 7 vhcurveto
          12 54 rlineto
          3 7 15 1 11 hhcurveto
          41 16 -16 -37 hvcurveto
          -39 vlineto
          -77 -11 rlineto
          -72 -10 -39 -36 -56 vvcurveto
          -54 39 -36 60 vhcurveto
          43 65 rmoveto
          -32 -18 13 23 32 27 15 69 5 hvcurveto
          -78 vlineto
          -6 -14 -17 -4 -15 hhcurveto
          endchar
        </CharString>
        <CharString name="ordmasculine">
          -159 185 352 rmoveto
          120 61 88 101 103 -63 66 -106 -111 -68 -87 -98 -106 57 -67 110 hvcurveto
          13 66 rmoveto
          -64 -15 29 82 70 8 40 66 56 16 -27 -83 -75 -12 -36 -55 hvcurveto
          endchar
        </CharString>
        <CharString name="oslash">
          -12 158 -80 -58 callgsubr
        </CharString>
        <CharString name="oslashacute">
          -12 197 573 rmoveto
          -90 callgsubr
          -140 -770 -58 callgsubr
        </CharString>
        <CharString name="otilde">
          -12 120 660 rmoveto
          31 callgsubr
          72 36 -57 callgsubr
          16 hvcurveto
          35 57 -31 28 -72 -36 -87 28 rlineto
          7 -25 -31 8 -20 hhcurveto
          -28 -26 -12 -26 -15 hvcurveto
          138 -672 -91 callgsubr
        </CharString>
        <CharString name="p">
          3 36 callgsubr
          116 vlineto
          -5 9 2 4 rlineto
          -21 27 37 -12 38 hhcurveto
          132 88 114 173 143 -65 80 -115 -47 -55 -20 -31 -39 hvcurveto
          -4 1 -22 45 -166 -38 callgsubr
          -511 vlineto
          -69 -14 rlineto
          258 182 rmoveto
          -27 -28 6 11 -20 hvcurveto
          327 vlineto
          10 28 29 5 29 hhcurveto
          79 30 -48 -126 -132 -34 -53 -86 hvcurveto
          endchar
        </CharString>
        <CharString name="paragraph">
          101 251 196 rmoveto
          -217 93 597 196 vlineto
          68 14 rlineto
          58 -356 vlineto
          -78 -129 -55 -171 -168 128 -58 78 hvcurveto
          -47 -307 rmoveto
          -53 172 vlineto
          102 40 63 83 hvcurveto
          533 -93 -514 vlineto
          -63 -17 -23 -74 -9 vhcurveto
          endchar
        </CharString>
        <CharString name="parenleft">
          -287 244 -151 rmoveto
          21 52 rlineto
          -93 30 -23 99 249 vvcurveto
          223 17 113 98 33 vhcurveto
          -21 51 rlineto
          -169 -33 -33 -205 -182 vvcurveto
          -182 31 -214 172 -34 vhcurveto
          endchar
        </CharString>
        <CharString name="parenright">
          -287 -7 -99 rmoveto
          21 -52 rlineto
          172 34 31 217 182 vvcurveto
          182 -33 202 -169 33 vhcurveto
          -21 -51 rlineto
          98 -33 17 -112 -223 vvcurveto
          -249 -23 -100 -93 -30 vhcurveto
          endchar
        </CharString>
        <CharString name="partialdiff">
          -18 75 625 rmoveto
          30 -40 rlineto
          18 35 42 15 39 hhcurveto
          113 42 -92 -116 1 hvcurveto
          0 -41 24 -64 -135 -103 -80 -151 -133 74 -82 146 158 92 116 243 253 -100 95 -151 -107 -71 -70 0 vhcurveto
          305 -286 rmoveto
          -191 -21 -91 -94 -86 -22 71 81 107 34 40 88 61 40 -17 0 vhcurveto
          endchar
        </CharString>
        <CharString name="percent">
          173 154 -37 rmoveto
          470 677 -65 45 -469 -677 rlineto
          75 337 rmoveto
          115 41 68 91 95 -35 64 -111 -109 -48 -2 callsubr
          370 3 callsubr
          5 61 rmoveto
          -56 -10 34 64 69 18 30 47 49 17 -21 -78 -65 -10 -33 -55 hvcurveto
          endchar
        </CharString>
        <CharString name="period">
          -354 93 -9 rmoveto
          44 28 36 41 41 -28 26 -38 -41 -31 -35 -40 -41 27 -28 39 hvcurveto
          endchar
        </CharString>
        <CharString name="periodcentered">
          -354 93 190 -37 callgsubr
          endchar
        </CharString>
        <CharString name="perthousand">
          514 139 -37 rmoveto
          476 685 -65 45 -475 -685 rlineto
          87 337 rmoveto
          116 40 68 91 95 -35 64 -111 -108 -49 -2 callsubr
          358 3 callsubr
          350 hmoveto
          116 41 68 91 95 -35 65 -112 -108 -49 -68 13 callgsubr
          -345 61 rmoveto
          18 callsubr
          350 hmoveto
          18 callsubr
          endchar
        </CharString>
        <CharString name="pi">
          32 75 50 rmoveto
          -50 91 vlineto
          -1 56 32 76 hvcurveto
          313 142 -356 vlineto
          -54 20 -16 54 52 54 35 0 vhcurveto
          49 -73 342 vlineto
          32 28 18 35 36 hvcurveto
          40 37 -32 43 -87 -43 rlineto
          -337 hlineto
          -66 -12 -14 -43 -42 hvcurveto
          -38 -36 31 -43 92 46 rlineto
          -324 vlineto
          endchar
        </CharString>
        <CharString name="plus">
          -15 221 69 rmoveto
          86 158 158 80 -158 162 -86 -162 -156 -80 156 hlineto
          endchar
        </CharString>
        <CharString name="plusminus">
          -15 220 128 rmoveto
          87 158 158 81 -158 161 -87 -161 -155 -81 155 hlineto
          -154 -291 rmoveto
          397 82 -397 hlineto
          endchar
        </CharString>
        <CharString name="product">
          109 15 39 callgsubr
          -81 17 rlineto
          503 219 -503 vlineto
          -81 42 callgsubr
          503 vlineto
          81 18 rlineto
          58 -623 -58 vlineto
          81 -18 rlineto
          -503 vlineto
          endchar
        </CharString>
        <CharString name="q">
          -15 259 -165 rmoveto
          274 50 hlineto
          -67 14 rlineto
          598 -54 vlineto
          -41 -30 rlineto
          -9 hlineto
          24 -25 -42 16 -41 hhcurveto
          -132 -88 -116 -171 -146 69 -77 130 48 45 17 30 30 hvcurveto
          2 -3 -6 -8 rlineto
          -132 vlineto
          -93 -16 rlineto
          8 186 rmoveto
          -75 -35 55 117 131 34 57 78 26 29 -5 -9 28 hvcurveto
          -322 vlineto
          -16 -24 -31 -8 -30 hhcurveto
          endchar
        </CharString>
        <CharString name="question">
          -184 71 330 rmoveto
          2 -167 rlineto
          76 hlineto
          21 111 53 18 rlineto
          64 21 56 54 86 vvcurveto
          135 -105 78 -117 -80 -15 -21 -39 -26 17 -20 0 vhcurveto
          97 hlineto
          83 20 -16 -60 -67 -20 -33 -58 -20 hvcurveto
          -57 -386 rmoveto
          44 27 36 39 41 -27 25 -38 -40 -30 -34 -39 -40 26 -28 38 hvcurveto
          endchar
        </CharString>
        <CharString name="questiondown">
          -184 249 384 rmoveto
          40 31 34 36 callsubr
          -25 37 hvcurveto
          -3 -547 rmoveto
          80 15 21 39 26 -17 20 0 hvcurveto
          -97 hlineto
          -83 -20 16 60 67 20 33 58 20 hvcurveto
          94 34 -2 167 rlineto
          -76 hlineto
          -21 -111 -53 -18 rlineto
          -64 -21 -55 -55 -85 vvcurveto
          -135 104 -78 117 vhcurveto
          endchar
        </CharString>
        <CharString name="quotedbl">
          -226 41 706 rmoveto
          2 callsubr
          144 hmoveto
          2 callsubr
          endchar
        </CharString>
        <CharString name="quotedblbase">
          -197 61 -136 rmoveto
          19 19 83 92 71 vvcurveto
          38 -26 11 callgsubr
          195 -15 rmoveto
          19 19 82 92 71 vvcurveto
          38 -25 11 callgsubr
          endchar
        </CharString>
        <CharString name="quotedblleft">
          -201 122 724 41 callsubr
          41 34 20 21 24 12 vhcurveto
          -17 15 -14 21 32 vvcurveto
          31 13 45 21 47 vhcurveto
          126 15 41 callsubr
          40 35 19 21 24 13 vhcurveto
          -17 15 -15 21 32 vvcurveto
          31 14 45 21 47 vhcurveto
          endchar
        </CharString>
        <CharString name="quotedblright">
          -203 57 473 37 callgsubr
          -34 -20 28 callsubr
          -20 -47 vhcurveto
          195 -15 37 callgsubr
          -35 -19 28 callsubr
          -21 -47 vhcurveto
          endchar
        </CharString>
        <CharString name="quoteleft">
          -354 136 724 rmoveto
          -19 -18 -87 -94 -72 vvcurveto
          -38 26 -31 42 36 20 22 24 13 vhcurveto
          -14 16 -14 26 31 vvcurveto
          29 13 46 20 44 vhcurveto
          endchar
        </CharString>
        <CharString name="quoteright">
          -355 60 464 rmoveto
          19 19 87 94 71 vvcurveto
          39 -27 30 -42 -35 -21 -21 -25 -13 vhcurveto
          15 -16 13 -26 -31 vvcurveto
          -29 -12 -45 -20 -45 vhcurveto
          endchar
        </CharString>
        <CharString name="quotesinglbase">
          -354 61 -136 rmoveto
          19 19 87 94 71 vvcurveto
          39 -26 30 -42 -36 -20 -21 -25 -14 vhcurveto
          15 -16 14 -26 -31 vvcurveto
          -29 -13 -45 -20 -45 vhcurveto
          endchar
        </CharString>
        <CharString name="quotesingle">
          -338 51 706 rmoveto
          23 -214 rlineto
          50 hlineto
          23 136 2 13 5 30 1 10 rlinecurve
          22 -11 17 -37 -23 -26 -11 -3 -7 vhcurveto
          endchar
        </CharString>
        <CharString name="r">
          -151 24 50 -72 callgsubr
        </CharString>
        <CharString name="racute">
          -173 115 573 rmoveto
          33 -38 -20 callsubr
          -192 -640 -72 callgsubr
        </CharString>
        <CharString name="radical">
          -2 217 -6 rmoveto
          99 hlineto
          215 712 96 14 rlineto
          51 -152 vlineto
          -180 -615 -11 -48 -11 47 -104 340 rlineto
          -170 -50 hlineto
          64 -14 rlineto
          endchar
        </CharString>
        <CharString name="rcaron">
          -173 205 540 rmoveto
          14 18 15 25 25 hvcurveto
          97 97 -29 38 -117 -79 -117 -43 callgsubr
          19 -17 13 hhcurveto
          -181 -540 rmoveto
          293 51 hlineto
          -83 callgsubr
          -75 -14 rlineto
          endchar
        </CharString>
        <CharString name="rcommaaccent">
          -173 24 hmoveto
          293 51 hlineto
          -83 callgsubr
          -75 -14 rlineto
          94 -253 -79 callgsubr
        </CharString>
        <CharString name="registered">
          146 331 787 rmoveto
          -157 -127 -127 -157 -157 127 -127 157 157 127 127 157 157 -127 127 -157 hvcurveto
          166 -428 rmoveto
          32 vlineto
          -41 9 -58 82 rlineto
          36 12 25 36 38 vvcurveto
          50 -37 30 -61 vhcurveto
          -188 -41 hlineto
          37 -6 rlineto
          -203 vlineto
          -43 -7 rlineto
          -33 vlineto
          -32 39 -18 50 56 vvcurveto
          122 90 100 124 120 96 -98 -124 -55 -19 -50 -31 -39 vhcurveto
          -204 152 rmoveto
          87 vlineto
          2 10 13 1 10 hhcurveto
          33 13 -12 -29 -33 -18 -16 -38 hvcurveto
          15 -230 rmoveto
          -68 -57 29 47 -38 hvcurveto
          169 34 hlineto
          -44 7 rlineto
          67 29 vlineto
          61 -94 rlineto
          -8 4 9 -5 11 hhcurveto
          89 hlineto
          -47 -39 -59 -30 -67 hhcurveto
          endchar
        </CharString>
        <CharString name="ring">
          -362 -10 639 -47 callsubr
          endchar
        </CharString>
        <CharString name="s">
          -115 48 160 -81 callgsubr
          endchar
        </CharString>
        <CharString name="sacute">
          -117 128 31 callsubr
          -33 27 -21 hhcurveto
          -18 -16 -18 -18 -16 hvcurveto
          -181 -530 rmoveto
          -9 -137 rlineto
          -12 19 74 -23 75 hhcurveto
          96 97 37 122 hvcurveto
          -70 callsubr
          -26 17 9 -13 vhcurveto
          -20 80 rlineto
          endchar
        </CharString>
        <CharString name="sacute.loclPLK">
          -115 198 -50 callsubr
          -217 -527 -81 callgsubr
          endchar
        </CharString>
        <CharString name="scaron">
          -117 215 540 rmoveto
          14 18 15 25 24 hvcurveto
          98 97 -29 38 -117 -79 -117 -43 callgsubr
          18 -17 14 hhcurveto
          -9 -552 rmoveto
          96 97 37 122 hvcurveto
          -70 callsubr
          -25 16 10 -14 vhcurveto
          -20 80 rlineto
          -55 hlineto
          -9 -137 rlineto
          -12 19 74 -23 75 hhcurveto
          endchar
        </CharString>
        <CharString name="scedilla">
          -117 197 -33 callsubr
          19 vlineto
          87 6 80 41 111 -70 callsubr
          -26 17 9 -13 vhcurveto
          -20 80 rlineto
          -55 hlineto
          -9 -137 17 -11 60 -19 65 -4 rlinecurve
          -22 -51 22 -22 32 -6 rlineto
          17 -22 callgsubr
        </CharString>
        <CharString name="scircumflex">
          -115 74 580 -104 callsubr
          -129 -524 -81 callgsubr
          endchar
        </CharString>
        <CharString name="scommaaccent">
          -117 47 160 rmoveto
          -9 -137 rlineto
          -12 19 74 -23 75 hhcurveto
          96 97 37 122 hvcurveto
          -70 callsubr
          -25 16 10 -14 vhcurveto
          -20 80 rlineto
          75 -363 rmoveto
          39 hlineto
          0 63 54 67 vvcurveto
          27 -16 29 -41 -41 callgsubr
        </CharString>
        <CharString name="section">
          6 259 349 rmoveto
          210 -129 55 83 -212 131 rlineto
          -89 61 -33 20 45 vvcurveto
          48 33 21 73 61 38 -17 0 vhcurveto
          20 -100 rlineto
          62 169 hlineto
          4 -8 -82 21 -94 hhcurveto
          -145 -72 -72 -87 -86 63 -38 120 -74 hvcurveto
          -182 -295 rmoveto
          -169 vlineto
          -10 11 78 -40 111 hhcurveto
          134 92 70 108 58 -40 45 -87 52 hvcurveto
          -254 150 -54 -79 229 -140 rlineto
          66 -42 32 -25 -41 vvcurveto
          -54 -38 -27 -76 -73 -42 37 3 -4 vhcurveto
          -21 104 rlineto
          endchar
        </CharString>
        <CharString name="semicolon">
          -341 100 316 -37 callgsubr
          -32 -451 -5 callsubr
        </CharString>
        <CharString name="seven">
          -98 21 -21 549 99 hstem
          79 hmoveto
          97 hlineto
          276 549 rlineto
          99 -431 vlineto
          10 -176 rlineto
          65 hlineto
          11 77 rlineto
          242 -22 hlineto
          -270 -476 rlineto
          endchar
        </CharString>
        <CharString name="seven.osf">
          -94 340 400 rmoveto
          -284 -564 rlineto
          129 hlineto
          256 586 rlineto
          99 -424 vlineto
          3 -176 rlineto
          67 hlineto
          11 77 rlineto
          242 hlineto
          endchar
        </CharString>
        <CharString name="six">
          -12 -13 78 252 91 255 -20 hstem
          43 133 197 124 vstem
          263 -13 rmoveto
          142 93 92 140 115 -68 74 -107 -52 -50 -15 -30 -42 hvcurveto
          12 144 96 86 172 20 rrcurveto
          50 vlineto
          -261 -3 -153 -154 -258 vvcurveto
          -173 74 -88 144 vhcurveto
          14 78 rmoveto
          -74 -26 52 146 hvcurveto
          21 1 15 5 vvcurveto
          8 25 37 5 30 hhcurveto
          70 34 -37 -80 -95 -28 -40 -69 hvcurveto
          endchar
        </CharString>
        <CharString name="six.osf">
          -17 270 -13 rmoveto
          114 110 66 161 118 -58 77 -108 -94 -55 -45 0 hvcurveto
          22 125 76 89 171 29 rrcurveto
          50 vlineto
          -218 -186 -149 -266 -182 91 -73 135 hvcurveto
          5 80 rmoveto
          -79 -20 44 138 39 1 15 1 4 hvcurveto
          1 2 38 10 50 hhcurveto
          56 47 -24 -81 -105 -24 -41 -72 hvcurveto
          endchar
        </CharString>
        <CharString name="slash">
          12 callgsubr
        </CharString>
        <CharString name="space">
          -363 endchar
        </CharString>
        <CharString name="sterling">
          -26 36 56 rmoveto
          -56 443 182 -60 vlineto
          -22 -103 rlineto
          -231 6 hlineto
          25 15 14 31 43 vvcurveto
          125 129 76 -129 104 vlineto
          81 29 24 67 29 33 -4 -6 15 vhcurveto
          23 -90 rlineto
          62 153 hlineto
          13 -42 -65 9 -53 hhcurveto
          -137 -70 -63 -117 hvcurveto
          -104 -60 -76 60 -125 vlineto
          -41 -24 -47 -36 -30 vhcurveto
          endchar
        </CharString>
        <CharString name="sterling.osf">
          -66 36 56 rmoveto
          -56 410 182 -60 vlineto
          -23 -103 rlineto
          -197 6 hlineto
          30 18 9 37 34 vvcurveto
          48 96 76 -96 54 vlineto
          70 16 36 64 43 20 -10 0 vhcurveto
          19 -90 rlineto
          62 152 hlineto
          4 -10 -55 19 -79 hhcurveto
          -110 -79 -49 -132 hvcurveto
          -54 -60 -76 60 -48 vlineto
          -23 -8 -51 -52 -44 vhcurveto
          endchar
        </CharString>
        <CharString name="summation">
          -21 39 hmoveto
          438 185 -59 hlineto
          -27 -100 rlineto
          -246 hlineto
          3 8 168 246 -141 234 -2 7 rlineto
          209 hlineto
          29 -111 rlineto
          60 179 -432 -56 hlineto
          170 -280 -170 -248 rlineto
          endchar
        </CharString>
        <CharString name="t">
          -29 callgsubr
          endchar
        </CharString>
        <CharString name="tbar">
          -198 350 45 rmoveto
          -14 44 rlineto
          0 -40 -15 -38 -33 -19 10 49 vhcurveto
          123 123 67 -123 107 127 vlineto
          14 28 rlineto
          40 -141 124 -78 vlineto
          -36 -114 -90 -21 rlineto
          -57 90 -107 -92 -67 92 -137 vlineto
          -80 28 29 callsubr
          endchar
        </CharString>
        <CharString name="tcaron">
          -200 257 541 rmoveto
          39 hlineto
          0 63 71 32 callgsubr
          11 -12 9 -23 -25 vvcurveto
          -28 -6 -44 -10 -31 vhcurveto
          -169 -111 rmoveto
          -311 vlineto
          -80 29 -46 98 vhcurveto
          71 -46 callgsubr
          vlineto
          endchar
        </CharString>
        <CharString name="thorn">
          2 36 callgsubr
          117 vlineto
          -5 9 2 4 rlineto
          -21 26 39 -13 40 hhcurveto
          130 87 114 173 141 -65 82 -115 -47 -54 -19 -30 -38 hvcurveto
          227 vlineto
          -33 14 -162 -24 rlineto
          -52 vlineto
          81 -15 rlineto
          -709 vlineto
          -69 -14 rlineto
          259 182 rmoveto
          -27 -28 7 11 -21 hvcurveto
          326 vlineto
          10 28 29 5 29 hhcurveto
          79 30 -47 -127 -132 -34 -53 -85 hvcurveto
          endchar
        </CharString>
        <CharString name="three">
          -78 188 74 47 104 171 80 hstemhm
          336 93 -84 107 hintmask 11101000
          210 -14 rmoveto
          124 122 57 147 107 -77 44 -73 16 hvcurveto
          1 6 rlineto
          54 22 59 51 80 vvcurveto
          103 -68 45 -136 -89 -62 -21 -13 -32 vhcurveto
          9 -148 rlineto
          64 hlineto
          9 88 rlineto
          6 14 28 8 40 hhcurveto
          82 31 -27 -68 -73 -64 -40 -77 hvcurveto
          -48 -40 hlineto
          18 -34 rlineto
          38 hlineto
          hintmask 11110000
          87 72 -32 -85 -84 -38 -37 -92 -43 -41 22 9 -14 hvcurveto
          -10 89 rlineto
          -69 hlineto
          -9 -150 rlineto
          -17 27 65 -31 98 hhcurveto
          endchar
        </CharString>
        <CharString name="three.osf">
          -85 33 -109 rmoveto
          -50 vlineto
          -1 7 28 -6 47 hhcurveto
          175 132 70 164 103 -70 45 -82 10 hvcurveto
          9 vlineto
          52 23 57 52 78 vvcurveto
          66 -41 78 -131 -132 -61 -98 0 vhcurveto
          32 -33 rlineto
          0 49 44 71 62 29 -27 -50 -73 -53 -37 -96 -19 vhcurveto
          -34 vlineto
          19 -33 rlineto
          31 hlineto
          84 55 -38 -82 -133 -85 -28 -179 hvcurveto
          endchar
        </CharString>
        <CharString name="threequarters">
          216 186 -37 rmoveto
          475 685 -65 45 -475 -685 rlineto
          26 294 rmoveto
          96 64 42 69 55 -35 22 -31 9 hvcurveto
          27 10 24 19 45 vvcurveto
          60 -48 27 -91 -68 -46 -24 -10 -14 8 callsubr
          -27 -30 hlineto
          13 -30 rlineto
          23 hlineto
          39 23 -9 -39 -30 -20 -12 -40 -36 -16 8 3 -5 hvcurveto
          -7 45 rlineto
          -57 hlineto
          -1 -98 rlineto
          -12 23 61 -12 39 hhcurveto
          360 -302 rmoveto
          231 50 hlineto
          5 callgsubr
          -72 -8 rlineto
          -8 105 rmoveto
          -1 5 81 101 rlineto
          -106 vlineto
          endchar
        </CharString>
        <CharString name="tilde">
          -188 29 660 rmoveto
          31 callgsubr
          72 36 -91 callsubr
          endchar
        </CharString>
        <CharString name="tildecomb">
          -328 660 rmoveto
          31 callgsubr
          72 36 -91 callsubr
          endchar
        </CharString>
        <CharString name="tildecomb.case">
          -113 -87 callgsubr
          endchar
        </CharString>
        <CharString name="trademark">
          393 81 399 rmoveto
          -41 195 41 vlineto
          -50 7 rlineto
          244 64 vlineto
          15 -58 rlineto
          45 112 -344 -112 45 hlineto
          15 58 rlineto
          65 -244 hlineto
          246 -11 rmoveto
          -37 154 37 vlineto
          -42 8 rlineto
          235 6 vlineto
          84 -280 rlineto
          88 hlineto
          86 278 rlineto
          6 -232 hlineto
          -43 -7 rlineto
          -39 189 39 vlineto
          -51 7 rlineto
          248 vlineto
          51 7 rlineto
          45 -195 vlineto
          -63 -214 -8 -42 -8 42 -62 214 rlineto
          -187 -45 hlineto
          45 -5 rlineto
          -251 vlineto
          endchar
        </CharString>
        <CharString name="two">
          -43 0 88 496 80 hstem
          339 123 vstem
          29 hmoveto
          453 179 -60 hlineto
          -24 -91 rlineto
          -228 6 hlineto
          130 127 rlineto
          111 109 47 62 98 vvcurveto
          114 -67 60 -165 -79 -75 -22 -14 -32 vhcurveto
          -162 62 vlineto
          19 101 rlineto
          8 19 27 9 50 hhcurveto
          92 26 -34 -73 -65 -29 -59 -71 -75 hvcurveto
          -206 -215 rlineto
          endchar
        </CharString>
        <CharString name="two.osf">
          -34 35 64 rmoveto
          -64 432 172 -58 vlineto
          -24 -87 rlineto
          -205 6 hlineto
          81 59 rlineto
          93 68 74 58 105 vvcurveto
          92 -71 59 -120 -117 -88 -97 0 vhcurveto
          33 -38 rlineto
          0 59 43 76 77 25 -35 -47 -44 -13 -32 -91 -77 vhcurveto
          endchar
        </CharString>
        <CharString name="u">
          40 236 -11 -106 callgsubr
          endchar
        </CharString>
        <CharString name="uacute">
          40 228 -7 callsubr
          -16 hvcurveto
          -100 -117 rlineto
          41 -584 -106 callgsubr
          endchar
        </CharString>
        <CharString name="ubreve">
          40 193 714 -95 callsubr
          43 -725 -106 callgsubr
          endchar
        </CharString>
        <CharString name="ucircumflex">
          40 398 538 rmoveto
          38 43 -107 109 rlineto
          15 -15 -14 10 -14 hhcurveto
          -16 -18 -15 -18 -18 hvcurveto
          -103 -104 31 -39 116 76 rlineto
          -42 -626 -106 callgsubr
          endchar
        </CharString>
        <CharString name="udieresis">
          40 166 566 rmoveto
          43 27 34 40 40 -27 -89 callsubr
          -150 -577 -106 callgsubr
          endchar
        </CharString>
        <CharString name="ugrave">
          40 343 535 rmoveto
          33 38 -101 117 rlineto
          18 -16 -15 18 -18 hhcurveto
          -22 -32 -27 -51 -4 hvcurveto
          68 -659 -106 callgsubr
          endchar
        </CharString>
        <CharString name="uhorn">
          40 650 509 -98 callsubr
          endchar
        </CharString>
        <CharString name="uhungarumlaut">
          40 175 532 rmoveto
          20 callgsubr
          -63 -125 rlineto
          211 -29 rmoveto
          -28 callsubr
          -11 hvcurveto
          -63 -125 rlineto
          -65 -572 -106 callgsubr
          endchar
        </CharString>
        <CharString name="umacron">
          40 104 593 4 callsubr
          120 -678 -106 callgsubr
          endchar
        </CharString>
        <CharString name="underscore">
          -89 6 hmoveto
          -81 444 81 vlineto
          endchar
        </CharString>
        <CharString name="uni00A0">
          -363 endchar
        </CharString>
        <CharString name="uni00AD">
          29 callgsubr
        </CharString>
        <CharString name="uni00B2">
          -198 32 411 rmoveto
          -53 289 120 -53 vlineto
          -11 -54 rlineto
          -108 4 hlineto
          46 36 rlineto
          83 65 28 31 55 vvcurveto
          70 -54 25 -90 -61 -47 -22 -13 -19 vhcurveto
          -105 57 vlineto
          13 63 rlineto
          0 20 9 26 34 20 -8 -34 -33 -42 -36 -43 -40 vhcurveto
          endchar
        </CharString>
        <CharString name="uni00B3">
          -198 45 474 rmoveto
          -1 -98 rlineto
          -12 23 62 -12 38 hhcurveto
          96 65 42 69 55 -36 22 -31 9 hvcurveto
          28 10 24 19 45 vvcurveto
          60 -49 27 -90 -69 -47 -26 -8 -13 8 callsubr
          -26 -30 hlineto
          12 -30 rlineto
          23 hlineto
          39 24 -9 -39 -30 -20 -12 -41 -35 -16 7 4 -6 hvcurveto
          -6 45 rlineto
          endchar
        </CharString>
        <CharString name="uni00B5">
          -51 callgsubr
        </CharString>
        <CharString name="uni00B9">
          -198 54 420 rmoveto
          -62 274 59 vlineto
          -91 1 rlineto
          287 -66 vlineto
          -121 -10 rlineto
          -58 95 -216 vlineto
          endchar
        </CharString>
        <CharString name="uni0162">
          16 270 -33 callsubr
          30 119 52 vlineto
          -6 callsubr
          -52 118 vlineto
          -27 -62 21 -22 32 -6 rlineto
          18 -4 8 -5 -17 vvcurveto
          -20 -17 -6 -26 -23 39 callsubr
          -19 -44 rlineto
          -11 25 21 -6 35 hhcurveto
          endchar
        </CharString>
        <CharString name="uni0163">
          -198 181 -33 callsubr
          23 vlineto
          70 -46 callgsubr
          89 -311 vlineto
          -66 19 -43 61 -13 vhcurveto
          -26 -59 21 -22 32 -6 rlineto
          18 -4 8 -5 -17 vvcurveto
          -20 -17 -6 -26 -23 39 callsubr
          -18 -44 rlineto
          -11 24 21 -6 35 hhcurveto
          endchar
        </CharString>
        <CharString name="uni018F">
          128 325 -16 rmoveto
          199 108 142 206 1 hvcurveto
          219 -1 -102 113 -199 hhcurveto
          -122 -68 -27 -17 -40 hvcurveto
          -170 65 vlineto
          21 113 rlineto
          6 15 39 22 69 hhcurveto
          112 62 -61 -162 8 hvcurveto
          -450 hlineto
          -2 -17 -1 -18 -21 vvcurveto
          -211 103 -117 183 vhcurveto
          18 73 rmoveto
          -103 -55 67 175 -5 hvcurveto
          313 hlineto
          -175 -3 -44 -67 -103 hhcurveto
          endchar
        </CharString>
        <CharString name="uni019D">
          183 106 -168 rmoveto
          65 33 35 53 hvcurveto
          552 5 vlineto
          6 -15 296 -457 9 callsubr
          -8 18 -281 444 rlineto
          -189 -55 hlineto
          66 -13 rlineto
          -662 vlineto
          -105 -24 rlineto
          -46 vlineto
          0 39 -16 53 vhcurveto
          endchar
        </CharString>
        <CharString name="uni01C4">
          698 831 840 -74 callsubr
          -927 -777 rmoveto
          -60 callsubr
        </CharString>
        <CharString name="uni01C5">
          613 931 540 -88 callgsubr
          -889 -540 rmoveto
          -85 callsubr
          425 -67 rmoveto
          -87 callsubr
          endchar
        </CharString>
        <CharString name="uni01C6">
          461 777 540 -88 callgsubr
          -556 -551 -78 callsubr
          352 11 rmoveto
          -87 callsubr
          -309 2 -1 callgsubr
        </CharString>
        <CharString name="uni01C7">
          388 42 51 rmoveto
          -51 445 179 -60 vlineto
          -25 -111 rlineto
          -89 hlineto
          -68 -59 callgsubr
          404 110 -83 callsubr
        </CharString>
        <CharString name="uni01C8">
          239 641 -78 callgsubr
          -599 -513 rmoveto
          -51 472 179 -60 vlineto
          38 callsubr
          -68 -59 callgsubr
          475 -238 -73 callgsubr
        </CharString>
        <CharString name="uni01C9">
          36 438 -78 callgsubr
          -423 -514 rmoveto
          -50 266 50 vlineto
          -72 14 rlineto
          623 -54 callsubr
          300 -232 -73 callgsubr
        </CharString>
        <CharString name="uni01CA">
          593 42 hmoveto
          -45 callgsubr
          7 -17 295 -455 -90 callsubr
          690 129 -83 callsubr
        </CharString>
        <CharString name="uni01CB">
          463 865 -78 callgsubr
          -823 -564 rmoveto
          -45 callgsubr
          7 -17 295 -455 -90 callsubr
          780 -219 -73 callgsubr
        </CharString>
        <CharString name="uni01CC">
          328 730 -78 callgsubr
          -707 -564 rmoveto
          -99 callsubr
          664 -218 -73 callgsubr
        </CharString>
        <CharString name="uni01CD">
          92 186 840 -74 callsubr
          -332 -723 -107 callsubr
          endchar
        </CharString>
        <CharString name="uni01CE">
          -39 250 540 -88 callgsubr
          -71 -550 rmoveto
          -107 callgsubr
          endchar
        </CharString>
        <CharString name="uni01CF">
          -174 53 840 -74 callsubr
          -147 -725 -92 callsubr
          endchar
        </CharString>
        <CharString name="uni01D0">
          -240 156 540 -88 callgsubr
          -134 -490 rmoveto
          -50 266 50 vlineto
          -84 callsubr
          endchar
        </CharString>
        <CharString name="uni01D1">
          158 219 840 -74 callsubr
          -15 -793 -105 callgsubr
          endchar
        </CharString>
        <CharString name="uni01D2">
          -27 256 540 -88 callgsubr
          -7 -552 -101 callsubr
          endchar
        </CharString>
        <CharString name="uni01D3">
          156 218 840 -74 callsubr
          -257 -198 -101 callgsubr
          endchar
        </CharString>
        <CharString name="uni01D4">
          40 284 540 -88 callgsubr
          -48 -551 -106 callgsubr
          endchar
        </CharString>
        <CharString name="uni01D5">
          156 188 980 -49 callgsubr
          -298 -288 -80 callgsubr
          -365 -113 -101 callgsubr
          endchar
        </CharString>
        <CharString name="uni01D6">
          40 124 878 -49 callgsubr
          -292 -312 rmoveto
          43 28 34 40 40 -28 -89 callsubr
          -157 -577 -106 callgsubr
          endchar
        </CharString>
        <CharString name="uni01D7">
          156 307 858 -92 callgsubr
          -52 -210 -80 callgsubr
          -365 -113 -101 callgsubr
          endchar
        </CharString>
        <CharString name="uni01D8">
          40 241 784 rmoveto
          -90 callgsubr
          -169 -335 rmoveto
          43 28 34 40 40 -28 -89 callsubr
          -157 -577 -106 callgsubr
          endchar
        </CharString>
        <CharString name="uni01D9">
          156 220 1023 -74 callsubr
          -127 -268 -80 callgsubr
          -365 -113 -101 callgsubr
          endchar
        </CharString>
        <CharString name="uni01DA">
          40 286 751 -88 callgsubr
          -113 -185 rmoveto
          43 28 34 40 40 -28 -89 callsubr
          -157 -577 -106 callgsubr
          endchar
        </CharString>
        <CharString name="uni01DB">
          156 403 858 -86 callsubr
          38 -240 -80 callgsubr
          -365 -113 -101 callgsubr
          endchar
        </CharString>
        <CharString name="uni01DC">
          40 145 859 rmoveto
          17 callsubr
          33 38 -82 callgsubr
          28 -293 rmoveto
          43 28 34 40 40 -28 -89 callsubr
          -157 -577 -106 callgsubr
          endchar
        </CharString>
        <CharString name="uni01EA">
          158 664 336 rmoveto
          209 -108 119 -190 -39 callsubr
          18 18 1 2 17 vhcurveto
          -32 -24 -26 -34 -42 -15 callsubr
          -24 callsubr
          112 54 58 119 147 vvcurveto
          -303 -279 -64 callgsubr
        </CharString>
        <CharString name="uni01EB">
          -27 492 263 rmoveto
          146 -67 99 -154 -39 callgsubr
          9 8 0 1 9 vhcurveto
          -33 -24 -27 -35 -43 -15 callsubr
          -24 callsubr
          85 46 35 96 105 vvcurveto
          -344 -18 rmoveto
          127 16 61 97 86 22 -50 callgsubr
          -16 -71 -86 -100 -19 65 123 vhcurveto
          endchar
        </CharString>
        <CharString name="uni01F1">
          698 42 hmoveto
          -60 callsubr
        </CharString>
        <CharString name="uni01F2">
          613 42 hmoveto
          -85 callsubr
          425 -67 rmoveto
          -87 callsubr
          endchar
        </CharString>
        <CharString name="uni01F3">
          461 -36 callgsubr
          352 11 rmoveto
          -87 callsubr
          -309 2 -1 callgsubr
        </CharString>
        <CharString name="uni01F4">
          102 314 675 -92 callgsubr
          167 -460 -96 callsubr
        </CharString>
        <CharString name="uni01F5">
          -72 189 573 rmoveto
          -90 callgsubr
          -75 -856 -105 callsubr
        </CharString>
        <CharString name="uni0200">
          92 222 -86 callgsubr
          -258 -727 -107 callsubr
          endchar
        </CharString>
        <CharString name="uni0201">
          -39 160 -88 callsubr
          -212 -571 rmoveto
          -107 callgsubr
          endchar
        </CharString>
        <CharString name="uni0202">
          92 417 -74 callgsubr
          -425 -641 -107 callsubr
          endchar
        </CharString>
        <CharString name="uni0203">
          -39 347 -77 callsubr
          -168 -562 rmoveto
          -107 callgsubr
          endchar
        </CharString>
        <CharString name="uni0204">
          33 218 -86 callgsubr
          -204 -730 -106 callsubr
          endchar
        </CharString>
        <CharString name="uni0205">
          -67 157 -88 callsubr
          -135 -572 -103 callgsubr
          endchar
        </CharString>
        <CharString name="uni0206">
          33 413 -74 callgsubr
          -371 -644 -106 callsubr
          endchar
        </CharString>
        <CharString name="uni0207">
          -67 344 -77 callsubr
          -91 -563 -103 callgsubr
          endchar
        </CharString>
        <CharString name="uni0208">
          -174 89 -86 callgsubr
          -73 -729 -92 callsubr
          endchar
        </CharString>
        <CharString name="uni0209">
          -240 66 -88 callsubr
          -275 -511 rmoveto
          -50 266 50 vlineto
          -84 callsubr
          endchar
        </CharString>
        <CharString name="uni020A">
          -174 284 -74 callgsubr
          -240 -643 -92 callsubr
          endchar
        </CharString>
        <CharString name="uni020B">
          -240 253 -77 callsubr
          -231 -502 rmoveto
          -50 266 50 vlineto
          -84 callsubr
          endchar
        </CharString>
        <CharString name="uni020C">
          158 255 -86 callgsubr
          59 -797 -105 callgsubr
          endchar
        </CharString>
        <CharString name="uni020D">
          -27 166 -88 callsubr
          -148 -573 -101 callsubr
          endchar
        </CharString>
        <CharString name="uni020E">
          158 450 -74 callgsubr
          -108 -711 -105 callgsubr
          endchar
        </CharString>
        <CharString name="uni020F">
          -27 353 -77 callsubr
          -104 -564 -101 callsubr
          endchar
        </CharString>
        <CharString name="uni0210">
          76 214 -86 callgsubr
          -200 -781 rmoveto
          -84 callgsubr
          endchar
        </CharString>
        <CharString name="uni0211">
          -151 92 -88 callsubr
          -299 -511 -72 callgsubr
        </CharString>
        <CharString name="uni0212">
          76 409 -74 callgsubr
          -367 -695 rmoveto
          -84 callgsubr
          endchar
        </CharString>
        <CharString name="uni0213">
          -151 279 -77 callsubr
          -255 -502 -72 callgsubr
        </CharString>
        <CharString name="uni0214">
          156 254 -86 callgsubr
          -183 -202 -101 callgsubr
          endchar
        </CharString>
        <CharString name="uni0215">
          40 194 -88 callsubr
          -189 -572 -106 callgsubr
          endchar
        </CharString>
        <CharString name="uni0216">
          156 449 -74 callgsubr
          -350 -116 -101 callgsubr
          endchar
        </CharString>
        <CharString name="uni0217">
          40 381 -77 callsubr
          -145 -563 -106 callgsubr
          endchar
        </CharString>
        <CharString name="uni021A">
          16 140 hmoveto
          284 52 hlineto
          -6 callsubr
          95 -255 -79 callgsubr
        </CharString>
        <CharString name="uni021B">
          -198 88 430 rmoveto
          -311 vlineto
          -80 29 -46 98 vhcurveto
          71 -46 callgsubr
          vlineto
          146 -633 rmoveto
          40 hlineto
          0 62 54 67 vvcurveto
          27 -15 29 -42 -21 -17 -11 -16 -14 vhcurveto
          5 -5 18 -19 -37 vvcurveto
          -39 -12 -40 -4 -10 vhcurveto
          endchar
        </CharString>
        <CharString name="uni0232">
          58 157 797 -49 callgsubr
          -330 -745 -93 callsubr
          endchar
        </CharString>
        <CharString name="uni0232.loclGUA">
          151 527 797 40 callsubr
          -124 -75 -100 callgsubr
        </CharString>
        <CharString name="uni0233">
          -59 437 667 40 callsubr
          -131 -98 -98 callgsubr
          endchar
        </CharString>
        <CharString name="uni0233.loclGUA">
          14 122 667 -49 callgsubr
          -204 -832 -99 callgsubr
        </CharString>
        <CharString name="uni0237">
          -265 -8 -106 -33 callgsubr
        </CharString>
        <CharString name="uni0259">
          -67 225 505 rmoveto
          -107 -68 -69 0 hvcurveto
          17 -37 rlineto
          0 44 24 82 106 34 -62 -94 1 vhcurveto
          -248 hlineto
          -33 -14 -16 -70 -91 43 -103 142 137 95 103 168 169 -80 78 -151 hvcurveto
          108 -296 rmoveto
          -89 -2 -23 -59 -74 hhcurveto
          -65 -12 35 70 10 1 13 2 12 hvcurveto
          endchar
        </CharString>
        <CharString name="uni0272">
          42 94 -168 rmoveto
          74 42 32 56 hvcurveto
          496 vlineto
          7 29 31 3 26 hhcurveto
          66 22 -20 -59 hvcurveto
          -283 -19 callgsubr
          263 50 vlineto
          -76 -47 callgsubr
          93 -48 48 -90 -53 -65 7 callsubr
          1 -21 43 -165 26 callgsubr
          79 -15 rlineto
          -492 25 callsubr
        </CharString>
        <CharString name="uni02BC">
          -420 13 -35 callgsubr
          endchar
        </CharString>
        <CharString name="uni02C9">
          -188 14 667 -49 callgsubr
          endchar
        </CharString>
        <CharString name="uni0302">
          -311 580 -104 callsubr
          endchar
        </CharString>
        <CharString name="uni0302.case">
          -332 713 -102 callsubr
          endchar
        </CharString>
        <CharString name="uni03020300">
          -217 786 rmoveto
          17 callsubr
          33 38 -82 callgsubr
          -123 -206 -104 callsubr
          endchar
        </CharString>
        <CharString name="uni03020300.case">
          17 813 -86 callsubr
          -139 -174 -102 callsubr
          endchar
        </CharString>
        <CharString name="uni03020301">
          -217 711 rmoveto
          -90 callgsubr
          -326 -248 -104 callsubr
          endchar
        </CharString>
        <CharString name="uni03020301.case">
          -90 813 -92 callgsubr
          -218 -144 -102 callsubr
          endchar
        </CharString>
        <CharString name="uni03020303">
          -344 -82 callsubr
          endchar
        </CharString>
        <CharString name="uni03020303.case">
          -89 -81 callsubr
          endchar
        </CharString>
        <CharString name="uni03020309">
          -153 674 -103 callsubr
          -252 -94 -104 callsubr
          endchar
        </CharString>
        <CharString name="uni03020309.case">
          -71 800 -104 callgsubr
          -261 -87 -102 callsubr
          endchar
        </CharString>
        <CharString name="uni0304">
          -343 667 -49 callgsubr
          endchar
        </CharString>
        <CharString name="uni0304.case">
          -341 797 -49 callgsubr
          endchar
        </CharString>
        <CharString name="uni0306">
          -253 714 -52 callgsubr
        </CharString>
        <CharString name="uni0306.case">
          -267 840 -3 callsubr
        </CharString>
        <CharString name="uni03060300">
          -312 799 rmoveto
          17 callsubr
          33 38 -82 callgsubr
          49 -85 -52 callgsubr
        </CharString>
        <CharString name="uni03060300.case">
          -116 827 -86 callsubr
          59 -61 -3 callsubr
        </CharString>
        <CharString name="uni03060301">
          -217 724 rmoveto
          -90 callgsubr
          -149 -127 -52 callgsubr
        </CharString>
        <CharString name="uni03060301.case">
          -212 827 -92 callgsubr
          -31 -31 -3 callsubr
        </CharString>
        <CharString name="uni03060303">
          -344 823 rmoveto
          -35 -52 30 -26 72 33 90 -26 rlineto
          -6 25 28 -8 23 hhcurveto
          28 23 12 24 15 hvcurveto
          36 52 -31 26 -72 -33 -87 25 rlineto
          7 -25 -31 7 -20 hhcurveto
          -28 -26 -11 -24 -15 hvcurveto
          54 -109 -52 callgsubr
        </CharString>
        <CharString name="uni03060303.case">
          -92 872 rmoveto
          27 26 6 31 24 hvcurveto
          36 44 -33 29 -75 -33 -92 27 rlineto
          7 -24 -18 22 callgsubr
          -26 -5 -31 -24 hvcurveto
          -36 -45 33 -29 74 33 93 -26 rlineto
          -7 24 18 -4 20 hhcurveto
          -175 -32 -3 callsubr
        </CharString>
        <CharString name="uni03060309">
          -198 687 -103 callsubr
          -65 27 -52 callgsubr
        </CharString>
        <CharString name="uni03060309.case">
          -198 815 -104 callgsubr
          -69 25 -3 callsubr
        </CharString>
        <CharString name="uni0307">
          -77 -78 callgsubr
          endchar
        </CharString>
        <CharString name="uni0307.case">
          -77 -31 callgsubr
          endchar
        </CharString>
        <CharString name="uni0308">
          -290 566 rmoveto
          43 28 34 40 40 -28 -89 callsubr
          endchar
        </CharString>
        <CharString name="uni0308.case">
          -303 692 -80 callgsubr
          endchar
        </CharString>
        <CharString name="uni030A">
          -193 639 -47 callsubr
          endchar
        </CharString>
        <CharString name="uni030A.case">
          -197 -13 callsubr
          endchar
        </CharString>
        <CharString name="uni030B">
          -278 686 rmoveto
          -63 -41 callsubr
          -11 hvcurveto
          168 hmoveto
          -62 -41 callsubr
          -12 hvcurveto
          endchar
        </CharString>
        <CharString name="uni030B.case">
          -348 673 rmoveto
          160 108 rlineto
          44 -7 -22 24 -23 hhcurveto
          -19 -13 -12 -19 -16 hvcurveto
          -92 -109 rlineto
          220 -36 -16 callgsubr
          endchar
        </CharString>
        <CharString name="uni030C">
          -161 540 -88 callgsubr
          endchar
        </CharString>
        <CharString name="uni030C.case">
          -300 840 -74 callsubr
          endchar
        </CharString>
        <CharString name="uni030F">
          -229 -88 callsubr
          endchar
        </CharString>
        <CharString name="uni030F.case">
          -220 -86 callgsubr
          endchar
        </CharString>
        <CharString name="uni0311">
          -65 -77 callsubr
          endchar
        </CharString>
        <CharString name="uni0311.case">
          -70 -74 callgsubr
          endchar
        </CharString>
        <CharString name="uni031B">
          -238 310 rmoveto
          163 84 44 66 49 -1 callsubr
          -44 rlineto
          -15 vlineto
          9 -8 7 -8 -15 vvcurveto
          -51 -70 -52 -55 -31 vhcurveto
          endchar
        </CharString>
        <CharString name="uni0326">
          -102 -203 rmoveto
          39 hlineto
          0 63 54 67 vvcurveto
          27 -16 29 -41 -41 callgsubr
        </CharString>
        <CharString name="uni0327">
          -116 -27 callsubr
        </CharString>
        <CharString name="uni0328">
          7 -136 rmoveto
          -24 callsubr
          -52 hlineto
          -47 -22 -58 -44 -63 -15 callsubr
          endchar
        </CharString>
        <CharString name="uni0335">
          -386 299 rmoveto
          346 70 -346 hlineto
          endchar
        </CharString>
        <CharString name="uni0336">
          -718 425 rmoveto
          678 69 -678 hlineto
          endchar
        </CharString>
        <CharString name="uni0394">
          -13 callgsubr
        </CharString>
        <CharString name="uni03A9">
          -53 callgsubr
        </CharString>
        <CharString name="uni03BC">
          -51 callgsubr
        </CharString>
        <CharString name="uni1E0C">
          164 42 hmoveto
          -85 callsubr
          50 -261 -100 callsubr
        </CharString>
        <CharString name="uni1E0D">
          -54 callgsubr
          10 -265 -100 callsubr
        </CharString>
        <CharString name="uni1E24">
          -38 callsubr
          252 -263 -100 callsubr
        </CharString>
        <CharString name="uni1E25">
          46 20 hmoveto
          -69 callsubr
          271 -244 -100 callsubr
        </CharString>
        <CharString name="uni1E44">
          183 360 -31 callgsubr
          -318 -692 rmoveto
          -45 callgsubr
          7 -17 295 -455 -90 callsubr
          endchar
        </CharString>
        <CharString name="uni1E45">
          48 292 -78 callgsubr
          -269 -564 rmoveto
          -99 callsubr
          endchar
        </CharString>
        <CharString name="uni1E5A">
          76 42 hmoveto
          -84 callgsubr
          40 -530 -100 callsubr
        </CharString>
        <CharString name="uni1E5B">
          -151 24 50 -71 callgsubr
          52 -258 -100 callsubr
        </CharString>
        <CharString name="uni1E62">
          -17 251 -14 -96 callgsubr
          8 -180 -100 callsubr
        </CharString>
        <CharString name="uni1E63">
          -115 48 160 -81 callgsubr
          107 -354 -100 callsubr
        </CharString>
        <CharString name="uni1E6C">
          -12 callgsubr
          54 -263 -100 callsubr
        </CharString>
        <CharString name="uni1E6D">
          -29 callgsubr
          181 -624 -100 callsubr
        </CharString>
        <CharString name="uni1E92">
          -11 16 70 -65 callgsubr
          -96 -757 -100 callsubr
        </CharString>
        <CharString name="uni1E93">
          -96 16 hmoveto
          -87 callsubr
          204 -263 -100 callsubr
        </CharString>
        <CharString name="uni1E9E">
          187 483 -14 rmoveto
          104 103 62 133 108 -71 61 -115 13 hvcurveto
          9 vlineto
          141 199 rlineto
          66 vlineto
          13 -48 -111 14 -68 hhcurveto
          -213 -106 -131 -190 hvcurveto
          -274 42 callsubr
          -52 273 52 vlineto
          -70 17 rlineto
          300 vlineto
          142 41 78 140 39 38 -5 -7 33 vhcurveto
          -12 vlineto
          -138 -199 rlineto
          -70 30 vlineto
          130 45 -59 -75 -57 -24 -46 -63 -40 -29 18 13 -13 hvcurveto
          -18 102 rlineto
          -65 -165 hlineto
          -16 21 69 -25 66 hhcurveto
          endchar
        </CharString>
        <CharString name="uni1EA0">
          92 -8 54 -107 callsubr
          12 -676 -100 callsubr
        </CharString>
        <CharString name="uni1EA1">
          -39 179 -10 rmoveto
          -107 callgsubr
          11 -262 -100 callsubr
        </CharString>
        <CharString name="uni1EA2">
          92 287 673 -104 callgsubr
          -295 -619 -107 callsubr
          endchar
        </CharString>
        <CharString name="uni1EA3">
          -39 222 536 -103 callsubr
          -43 -546 rmoveto
          -107 callgsubr
          endchar
        </CharString>
        <CharString name="uni1EA4">
          92 395 813 -92 callgsubr
          -218 -144 -102 callsubr
          -268 -747 -107 callsubr
          endchar
        </CharString>
        <CharString name="uni1EA5">
          -39 301 711 rmoveto
          -90 callgsubr
          -326 -248 -104 callsubr
          -694 vmoveto
          -107 callgsubr
          endchar
        </CharString>
        <CharString name="uni1EA6">
          92 497 813 -86 callsubr
          -139 -174 -102 callsubr
          -263 -747 -107 callsubr
          endchar
        </CharString>
        <CharString name="uni1EA7">
          -39 210 786 rmoveto
          17 callsubr
          33 38 -82 callgsubr
          -123 -206 -104 callsubr
          -11 -694 rmoveto
          -107 callgsubr
          endchar
        </CharString>
        <CharString name="uni1EA8">
          92 406 800 -104 callgsubr
          -261 -87 -102 callsubr
          -260 -747 -107 callsubr
          endchar
        </CharString>
        <CharString name="uni1EA9">
          -39 327 674 -103 callsubr
          -252 -94 -104 callsubr
          1 -694 rmoveto
          -107 callgsubr
          endchar
        </CharString>
        <CharString name="uni1EAA">
          92 394 -81 callsubr
          -266 -747 -107 callsubr
          endchar
        </CharString>
        <CharString name="uni1EAB">
          -39 103 -82 callsubr
          -23 -694 rmoveto
          -107 callgsubr
          endchar
        </CharString>
        <CharString name="uni1EAC">
          92 153 713 -102 callsubr
          -268 -747 -107 callsubr
          12 -676 -100 callsubr
        </CharString>
        <CharString name="uni1EAD">
          -39 101 580 -104 callsubr
          -25 -694 rmoveto
          -107 callgsubr
          11 -262 -100 callsubr
        </CharString>
        <CharString name="uni1EAE">
          92 272 827 -92 callgsubr
          -31 -31 -93 callgsubr
          -225 -786 -107 callsubr
          endchar
        </CharString>
        <CharString name="uni1EAF">
          -39 206 724 rmoveto
          -90 callgsubr
          -149 -127 -95 callsubr
          21 -724 rmoveto
          -107 callgsubr
          endchar
        </CharString>
        <CharString name="uni1EB0">
          92 372 827 -86 callsubr
          59 -61 -93 callgsubr
          -229 -786 -107 callsubr
          endchar
        </CharString>
        <CharString name="uni1EB1">
          -39 110 799 rmoveto
          17 callsubr
          33 38 -82 callgsubr
          49 -85 -95 callsubr
          20 -724 rmoveto
          -107 callgsubr
          endchar
        </CharString>
        <CharString name="uni1EB2">
          92 289 815 -104 callgsubr
          -69 25 -93 callgsubr
          -228 -786 -107 callsubr
          endchar
        </CharString>
        <CharString name="uni1EB3">
          -39 224 687 -103 callsubr
          -65 27 -95 callsubr
          20 -724 rmoveto
          -107 callgsubr
          endchar
        </CharString>
        <CharString name="uni1EB4">
          92 393 872 rmoveto
          27 26 6 31 24 hvcurveto
          36 44 -33 29 -75 -33 -92 27 rlineto
          7 -24 -18 22 callgsubr
          -26 -5 -31 -24 hvcurveto
          -36 -45 33 -29 74 33 93 -26 rlineto
          -7 24 18 -4 20 hhcurveto
          -175 -32 -93 callgsubr
          -226 -786 -107 callsubr
          endchar
        </CharString>
        <CharString name="uni1EB5">
          -39 103 823 rmoveto
          -35 -52 30 -26 72 33 90 -26 rlineto
          -6 25 28 -8 23 hhcurveto
          28 23 12 24 15 hvcurveto
          36 52 -31 26 -72 -33 -87 25 rlineto
          7 -25 -31 7 -20 hhcurveto
          -28 -26 -11 -24 -15 hvcurveto
          54 -109 -95 callsubr
          22 -724 rmoveto
          -107 callgsubr
          endchar
        </CharString>
        <CharString name="uni1EB6">
          92 220 840 -93 callgsubr
          -228 -786 -107 callsubr
          12 -676 -100 callsubr
        </CharString>
        <CharString name="uni1EB7">
          -39 159 714 -95 callsubr
          20 -724 rmoveto
          -107 callgsubr
          11 -262 -100 callsubr
        </CharString>
        <CharString name="uni1EB8">
          33 42 51 -106 callsubr
          161 -264 -100 callsubr
        </CharString>
        <CharString name="uni1EB9">
          -67 253 -11 -103 callgsubr
          -73 -487 -100 callsubr
        </CharString>
        <CharString name="uni1EBA">
          33 283 673 -104 callgsubr
          -241 -622 -106 callsubr
          endchar
        </CharString>
        <CharString name="uni1EBB">
          -67 219 536 -103 callsubr
          34 -547 -103 callgsubr
          endchar
        </CharString>
        <CharString name="uni1EBC">
          33 389 -87 callgsubr
          -347 -648 -106 callsubr
          endchar
        </CharString>
        <CharString name="uni1EBD">
          -67 100 660 rmoveto
          31 callgsubr
          72 36 -91 callsubr
          153 -671 -103 callgsubr
          endchar
        </CharString>
        <CharString name="uni1EBE">
          33 391 813 -92 callgsubr
          -218 -144 -102 callsubr
          -214 -750 -106 callsubr
          endchar
        </CharString>
        <CharString name="uni1EBF">
          -67 298 711 rmoveto
          -90 callgsubr
          -326 -248 -104 callsubr
          77 -695 -103 callgsubr
          endchar
        </CharString>
        <CharString name="uni1EC0">
          33 493 813 -86 callsubr
          -139 -174 -102 callsubr
          -209 -750 -106 callsubr
          endchar
        </CharString>
        <CharString name="uni1EC1">
          -67 207 786 rmoveto
          17 callsubr
          33 38 -82 callgsubr
          -123 -206 -104 callsubr
          66 -695 -103 callgsubr
          endchar
        </CharString>
        <CharString name="uni1EC2">
          33 402 800 -104 callgsubr
          -261 -87 -102 callsubr
          -206 -750 -106 callsubr
          endchar
        </CharString>
        <CharString name="uni1EC3">
          -67 324 674 -103 callsubr
          -252 -94 -104 callsubr
          78 -695 -103 callgsubr
          endchar
        </CharString>
        <CharString name="uni1EC4">
          33 390 -81 callsubr
          -212 -750 -106 callsubr
          endchar
        </CharString>
        <CharString name="uni1EC5">
          -67 100 -82 callsubr
          54 -695 -103 callgsubr
          endchar
        </CharString>
        <CharString name="uni1EC6">
          33 149 713 -102 callsubr
          -214 -750 -106 callsubr
          161 -264 -100 callsubr
        </CharString>
        <CharString name="uni1EC7">
          -67 98 580 -104 callsubr
          52 -695 -103 callgsubr
          -73 -487 -100 callsubr
        </CharString>
        <CharString name="uni1EC8">
          -174 154 673 -104 callgsubr
          -110 -621 -92 callsubr
          endchar
        </CharString>
        <CharString name="uni1EC9">
          -240 128 536 -103 callsubr
          -106 -486 rmoveto
          -50 266 50 vlineto
          -84 callsubr
          endchar
        </CharString>
        <CharString name="uni1ECA">
          -174 44 52 -92 callsubr
          57 -263 -100 callsubr
        </CharString>
        <CharString name="uni1ECB">
          -29 callsubr
          52 -258 -100 callsubr
        </CharString>
        <CharString name="uni1ECC">
          158 342 -16 -105 callgsubr
          -14 -251 -100 callsubr
        </CharString>
        <CharString name="uni1ECD">
          -27 249 -12 -101 callsubr
          -13 -251 -100 callsubr
        </CharString>
        <CharString name="uni1ECE">
          158 320 673 -104 callgsubr
          22 -689 -105 callgsubr
          endchar
        </CharString>
        <CharString name="uni1ECF">
          -27 228 536 -103 callsubr
          21 -548 -101 callsubr
          endchar
        </CharString>
        <CharString name="uni1ED0">
          158 428 813 -92 callgsubr
          -218 -144 -102 callsubr
          49 -817 -105 callgsubr
          endchar
        </CharString>
        <CharString name="uni1ED1">
          -27 307 711 rmoveto
          -90 callgsubr
          -326 -248 -104 callsubr
          64 -696 -101 callsubr
          endchar
        </CharString>
        <CharString name="uni1ED2">
          158 530 813 -86 callsubr
          -139 -174 -102 callsubr
          54 -817 -105 callgsubr
          endchar
        </CharString>
        <CharString name="uni1ED3">
          -27 216 786 rmoveto
          17 callsubr
          33 38 -82 callgsubr
          -123 -206 -104 callsubr
          53 -696 -101 callsubr
          endchar
        </CharString>
        <CharString name="uni1ED4">
          158 439 800 -104 callgsubr
          -261 -87 -102 callsubr
          57 -817 -105 callgsubr
          endchar
        </CharString>
        <CharString name="uni1ED5">
          -27 333 674 -103 callsubr
          -252 -94 -104 callsubr
          65 -696 -101 callsubr
          endchar
        </CharString>
        <CharString name="uni1ED6">
          158 427 -81 callsubr
          51 -817 -105 callgsubr
          endchar
        </CharString>
        <CharString name="uni1ED7">
          -27 109 -82 callsubr
          41 -696 -101 callsubr
          endchar
        </CharString>
        <CharString name="uni1ED8">
          158 186 713 -102 callsubr
          49 -817 -105 callgsubr
          -14 -251 -100 callsubr
        </CharString>
        <CharString name="uni1ED9">
          -27 107 580 -104 callsubr
          39 -696 -101 callsubr
          -13 -251 -100 callsubr
        </CharString>
        <CharString name="uni1EDA">
          158 516 749 -18 callgsubr
          462 -12 -94 callgsubr
        </CharString>
        <CharString name="uni1EDB">
          -27 419 8 callgsubr
          348 -26 -97 callgsubr
          endchar
        </CharString>
        <CharString name="uni1EDC">
          158 402 675 -86 callsubr
          576 -86 -94 callgsubr
        </CharString>
        <CharString name="uni1EDD">
          -27 323 573 rmoveto
          -82 callgsubr
          17 callsubr
          rlineto
          302 -26 -97 callgsubr
          endchar
        </CharString>
        <CharString name="uni1EDE">
          158 337 787 rmoveto
          29 13 -6 -15 -15 -12 -9 -17 -8 hvcurveto
          -28 -14 -11 -10 -13 vvcurveto
          -6 3 -8 6 -10 vhcurveto
          62 5 -3 16 9 5 26 10 rlinecurve
          37 16 15 23 25 vvcurveto
          50 -49 26 -81 -56 -16 -13 -20 -9 3 -12 13 -16 vhcurveto
          5 19 20 3 18 hhcurveto
          431 -124 -94 callgsubr
        </CharString>
        <CharString name="uni1EDF">
          -27 243 -66 callsubr
          349 -161 -97 callgsubr
          endchar
        </CharString>
        <CharString name="uni1EE0">
          158 271 -19 callsubr
          571 -41 -94 callgsubr
        </CharString>
        <CharString name="uni1EE1">
          -27 176 611 rmoveto
          -91 callsubr
          31 callgsubr
          rlineto
          488 -66 -97 callgsubr
          endchar
        </CharString>
        <CharString name="uni1EE2">
          158 768 663 rmoveto
          41 -25 14 -8 6 vhcurveto
          -66 -44 rlineto
          -15 vlineto
          9 -8 7 -8 -15 vvcurveto
          -34 -31 -35 -37 -28 vhcurveto
          82 -49 -86 45 -116 hhcurveto
          -39 callsubr
          -17 callgsubr
          65 -11 57 -20 47 hvcurveto
          104 65 31 52 41 vvcurveto
          -407 -606 rmoveto
          -122 -60 74 201 212 65 44 105 112 62 -63 -212 -181 -48 -75 -114 hvcurveto
          -7 -98 -28 callgsubr
        </CharString>
        <CharString name="uni1EE3">
          -27 592 509 -97 callgsubr
          -6 -98 -28 callgsubr
        </CharString>
        <CharString name="uni1EE4">
          156 99 579 -101 callgsubr
          328 -790 -100 callsubr
        </CharString>
        <CharString name="uni1EE5">
          40 236 -11 -106 callgsubr
          51 -183 -100 callsubr
        </CharString>
        <CharString name="uni1EE6">
          156 319 673 -104 callgsubr
          -220 -94 -101 callgsubr
          endchar
        </CharString>
        <CharString name="uni1EE7">
          40 256 536 -103 callsubr
          -20 -547 -106 callgsubr
          endchar
        </CharString>
        <CharString name="uni1EE8">
          156 305 675 -92 callgsubr
          74 -735 -97 callsubr
          endchar
        </CharString>
        <CharString name="uni1EE9">
          40 447 8 callgsubr
          378 -26 -98 callsubr
          endchar
        </CharString>
        <CharString name="uni1EEA">
          156 401 675 -86 callsubr
          164 -765 -97 callsubr
          endchar
        </CharString>
        <CharString name="uni1EEB">
          40 351 573 rmoveto
          -82 callgsubr
          17 callsubr
          rlineto
          332 -26 -98 callsubr
          endchar
        </CharString>
        <CharString name="uni1EEC">
          156 319 673 -104 callgsubr
          36 -689 -97 callsubr
          endchar
        </CharString>
        <CharString name="uni1EED">
          40 271 -66 callsubr
          379 -161 -98 callsubr
          endchar
        </CharString>
        <CharString name="uni1EEE">
          156 425 -87 callgsubr
          -70 -715 -97 callsubr
          endchar
        </CharString>
        <CharString name="uni1EEF">
          40 204 611 rmoveto
          -91 callsubr
          31 callgsubr
          rlineto
          518 -66 -98 callsubr
          endchar
        </CharString>
        <CharString name="uni1EF0">
          156 355 -16 -97 callsubr
          -9 -178 -100 callsubr
        </CharString>
        <CharString name="uni1EF1">
          40 650 509 -98 callsubr
          -356 -550 -28 callgsubr
        </CharString>
        <CharString name="uni1EF4">
          58 168 52 -93 callsubr
          56 -263 -100 callsubr
        </CharString>
        <CharString name="uni1EF5">
          -59 294 495 -98 callgsubr
          -141 -536 -28 callgsubr
        </CharString>
        <CharString name="uni1EF6">
          58 290 673 -104 callgsubr
          -122 -621 -93 callsubr
          endchar
        </CharString>
        <CharString name="uni1EF7">
          -59 245 -66 callsubr
          49 -175 -98 callgsubr
          endchar
        </CharString>
        <CharString name="uni1EF8">
          58 396 -87 callgsubr
          -228 -647 -93 callsubr
          endchar
        </CharString>
        <CharString name="uni1EF8.loclGUA">
          151 270 -19 callsubr
          195 -56 -100 callgsubr
        </CharString>
        <CharString name="uni1EF9">
          -59 178 611 rmoveto
          -91 callsubr
          31 callgsubr
          rlineto
          188 -80 -98 callgsubr
          endchar
        </CharString>
        <CharString name="uni1EF9.loclGUA">
          14 137 660 rmoveto
          31 callgsubr
          72 36 -91 callsubr
          122 -825 -99 callgsubr
        </CharString>
        <CharString name="uni20B2">
          55 334 333 rmoveto
          -51 vlineto
          77 -19 rlineto
          -175 vlineto
          -14 -25 -28 -6 -28 hhcurveto
          -106 -45 89 169 171 45 82 124 33 32 -6 -12 25 hvcurveto
          21 -109 rlineto
          66 171 hlineto
          -58 19 -56 11 -53 1 -5 103 rcurveline
          -69 hlineto
          -5 -110 rlineto
          -150 -29 -90 -124 -185 vvcurveto
          -172 77 -121 150 -19 vhcurveto
          5 -114 rlineto
          69 hlineto
          5 114 42 5 38 12 33 22 rlinecurve
          9 hlineto
          23 -26 rlineto
          42 254 hlineto
          47 15 rlineto
          54 vlineto
          endchar
        </CharString>
        <CharString name="uni20B2.osf">
          55 333 265 rmoveto
          -52 vlineto
          77 -18 rlineto
          -117 vlineto
          -12 -25 -27 -8 -43 hhcurveto
          -94 -42 55 146 133 43 65 113 53 34 -12 -6 12 hvcurveto
          24 -109 rlineto
          65 172 hlineto
          -29 9 -55 18 -81 3 -5 105 rcurveline
          -69 hlineto
          -5 -109 rlineto
          -148 -22 -92 -107 -153 vvcurveto
          -167 77 -86 151 -8 vhcurveto
          4 -102 rlineto
          69 hlineto
          4 105 48 7 32 16 23 15 rlinecurve
          11 hlineto
          26 -26 rlineto
          47 196 hlineto
          47 15 rlineto
          54 vlineto
          endchar
        </CharString>
        <CharString name="uni2113">
          -101 232 -12 rmoveto
          91 78 69 -1 hhcurveto
          -17 38 rlineto
          -1 -1 -54 -27 -53 hhcurveto
          -64 -20 18 63 hvcurveto
          46 vlineto
          99 64 119 100 112 vvcurveto
          90 -51 48 -87 -157 -30 -104 -139 vhcurveto
          -163 vlineto
          -23 -16 -23 -17 -24 -18 29 -47 rcurveline
          41 25 rlineto
          -19 vlineto
          -87 38 -35 110 vhcurveto
          -41 290 rmoveto
          117 vlineto
          109 15 44 49 34 21 -23 -55 -68 -43 -63 -76 -61 vhcurveto
          endchar
        </CharString>
        <CharString name="uni2126">
          -53 callgsubr
        </CharString>
        <CharString name="uni2206">
          -13 callgsubr
        </CharString>
        <CharString name="uni2215">
          12 callgsubr
        </CharString>
        <CharString name="uni2219">
          -354 93 190 -37 callgsubr
          endchar
        </CharString>
        <CharString name="uniA78B">
          -407 17 649 0 callsubr
        </CharString>
        <CharString name="uniA78C">
          -407 17 706 0 callsubr
        </CharString>
        <CharString name="uogonek">
          40 427 -187 rmoveto
          37 44 21 30 24 hvcurveto
          -22 37 rlineto
          -14 -22 -19 -6 -12 hhcurveto
          -26 -12 13 24 26 21 32 33 26 hvcurveto
          97 13 rlineto
          51 vlineto
          -76 16 rlineto
          409 vlineto
          -35 14 -161 -25 rlineto
          -50 vlineto
          81 -16 rlineto
          -327 vlineto
          -10 -20 -35 -8 -27 hhcurveto
          -73 -22 22 77 hvcurveto
          323 vlineto
          -34 14 -161 -25 rlineto
          -50 vlineto
          81 -16 rlineto
          -285 vlineto
          -93 50 -47 98 49 59 20 30 34 vhcurveto
          6 1 22 -43 rlineto
          -46 -30 -25 -39 -41 vvcurveto
          -46 36 -28 56 vhcurveto
          endchar
        </CharString>
        <CharString name="uring">
          40 275 552 rmoveto
          70 34 42 51 50 -28 40 -69 -73 -33 -46 -50 -51 29 -36 70 hvcurveto
          4 46 rmoveto
          -25 -11 6 39 32 8 12 26 23 12 -7 -37 -33 -8 -12 -25 hvcurveto
          -43 -609 -106 callgsubr
          endchar
        </CharString>
        <CharString name="utilde">
          40 137 660 rmoveto
          31 callgsubr
          72 36 -91 callsubr
          99 -671 -106 callgsubr
          endchar
        </CharString>
        <CharString name="v">
          -67 35 429 rmoveto
          160 -435 rlineto
          95 hlineto
          154 434 61 13 rlineto
          54 -212 -53 vlineto
          64 -13 rlineto
          -18 vlineto
          -89 -261 -10 -48 -9 45 -85 266 rlineto
          17 vlineto
          61 10 rlineto
          55 -247 -51 vlineto
          endchar
        </CharString>
        <CharString name="w">
          219 184 -6 -89 callgsubr
        </CharString>
        <CharString name="wacute">
          219 357 573 rmoveto
          -90 callgsubr
          -274 -696 -89 callgsubr
        </CharString>
        <CharString name="wcircumflex">
          219 253 580 -104 callsubr
          -172 -690 -89 callgsubr
        </CharString>
        <CharString name="wdieresis">
          219 291 566 rmoveto
          43 28 34 40 40 -28 -89 callsubr
          -327 -572 -89 callgsubr
        </CharString>
        <CharString name="wgrave">
          219 261 648 rmoveto
          17 callsubr
          33 38 -82 callgsubr
          -77 -654 -89 callgsubr
        </CharString>
        <CharString name="x">
          -42 -11 hmoveto
          222 50 hlineto
          -58 12 rlineto
          11 vlineto
          78 105 76 -112 rlineto
          -7 vlineto
          -46 -9 rlineto
          -50 255 50 vlineto
          -80 21 -126 195 129 165 60 14 rlineto
          50 -210 -51 vlineto
          55 -12 rlineto
          -10 vlineto
          -72 -94 -65 98 rlineto
          10 vlineto
          43 8 rlineto
          51 -257 -50 vlineto
          75 -21 122 -183 -135 -177 -66 -14 rlineto
          endchar
        </CharString>
        <CharString name="y">
          -59 294 495 -98 callgsubr
          endchar
        </CharString>
        <CharString name="y.loclGUA">
          14 259 -165 -99 callgsubr
        </CharString>
        <CharString name="yacute">
          -55 389 648 rmoveto
          51 -5 -32 27 -21 hhcurveto
          -19 -16 -18 -18 -15 hvcurveto
          -101 -117 33 -38 rlineto
          81 -40 -98 callgsubr
          endchar
        </CharString>
        <CharString name="yacute.loclGUA">
          14 239 573 rmoveto
          -90 callgsubr
          -81 -855 -99 callgsubr
        </CharString>
        <CharString name="ycircumflex">
          -59 256 616 rmoveto
          120 -76 38 43 -108 109 rlineto
          15 -15 -13 9 -14 hhcurveto
          -17 -17 -14 -18 -18 hvcurveto
          -103 -104 30 -39 rlineto
          155 -46 -98 callgsubr
          endchar
        </CharString>
        <CharString name="ycircumflex.loclGUA">
          14 135 580 -104 callsubr
          21 -849 -99 callgsubr
        </CharString>
        <CharString name="ydieresis">
          -55 154 566 rmoveto
          -20 callgsubr
          220 hmoveto
          -20 callgsubr
          -80 -71 -98 callgsubr
          endchar
        </CharString>
        <CharString name="ydieresis.loclGUA">
          14 173 566 rmoveto
          43 28 34 40 40 -28 -89 callsubr
          -134 -731 -99 callgsubr
        </CharString>
        <CharString name="yen">
          31 386 648 rmoveto
          -51 vlineto
          74 -16 rlineto
          -11 vlineto
          -130 -250 rlineto
          -11 hlineto
          -130 246 rlineto
          16 vlineto
          68 15 rlineto
          51 -264 -51 vlineto
          64 -16 117 -205 -87 -2 rlineto
          -59 vlineto
          122 -2 35 -61 -157 -2 rlineto
          -60 vlineto
          162 -2 rlineto
          -119 42 callsubr
          -52 callsubr
          118 vlineto
          166 -1 rlineto
          60 vlineto
          -164 5 32 59 132 2 rlineto
          60 vlineto
          -97 2 112 206 68 17 rlineto
          51 vlineto
          endchar
        </CharString>
        <CharString name="yen.osf">
          6 130 hmoveto
          284 52 hlineto
          -81 17 rlineto
          55 vlineto
          165 2 rlineto
          61 vlineto
          -165 2 2 7 29 55 134 2 rlineto
          60 vlineto
          -96 1 79 138 65 16 rlineto
          51 -209 -51 vlineto
          54 -14 rlineto
          -16 vlineto
          -98 -172 rlineto
          -10 hlineto
          -86 172 rlineto
          14 vlineto
          55 16 rlineto
          51 -244 -51 vlineto
          62 -16 73 -136 -95 -1 rlineto
          -59 vlineto
          130 -2 32 -61 -162 -2 rlineto
          -61 vlineto
          163 -2 rlineto
          -59 42 callsubr
          endchar
        </CharString>
        <CharString name="ygrave">
          -59 325 573 rmoveto
          -82 callgsubr
          17 callsubr
          rlineto
          2 -40 -98 callgsubr
          endchar
        </CharString>
        <CharString name="ygrave.loclGUA">
          14 143 648 rmoveto
          17 callsubr
          33 38 -82 callgsubr
          116 -813 -99 callgsubr
        </CharString>
        <CharString name="z">
          -96 16 hmoveto
          -87 callsubr
          endchar
        </CharString>
        <CharString name="zacute">
          -99 167 535 rmoveto
          175 113 rlineto
          51 -4 -33 27 -21 hhcurveto
          -19 -15 -18 -18 -16 hvcurveto
          -100 -117 rlineto
          -118 -573 -2 callgsubr
          6 14 253 336 rlineto
          78 -383 vlineto
          5 -144 rlineto
          60 hlineto
          19 77 rlineto
          162 hlineto
          -5 -11 -253 -348 rlineto
          endchar
        </CharString>
        <CharString name="zacute.loclPLK">
          -96 197 -50 callsubr
          -248 -687 rmoveto
          -87 callsubr
          endchar
        </CharString>
        <CharString name="zcaron">
          -99 223 540 rmoveto
          14 18 15 25 24 -8 callsubr
          -116 -79 -117 -43 callgsubr
          18 -17 14 hhcurveto
          -207 -540 -22 callsubr
        </CharString>
        <CharString name="zdotaccent">
          -99 220 -15 callgsubr
          -34 -37 -42 -43 29 -30 41 hvcurveto
          -204 -564 -22 callsubr
        </CharString>
        <CharString name="zero">
          59 -11 80 515 80 hstem
          47 127 255 127 vstem
          295 -14 rmoveto
          187 76 137 203 203 -57 135 -188 -187 -78 -135 -203 -203 59 -137 188 hvcurveto
          8 73 rmoveto
          -102 -26 100 167 166 26 97 102 102 25 -97 -166 -167 -25 -100 -102 hvcurveto
          endchar
        </CharString>
        <CharString name="zero.osf">
          47 296 -12 rmoveto
          160 99 111 161 149 -65 123 -194 -159 -100 -123 -149 -149 65 -123 194 hvcurveto
          -1 85 rmoveto
          -83 -45 65 121 125 38 63 90 82 48 -48 -140 -122 -35 -64 -95 hvcurveto
          endchar
        </CharString>
      <CharString index="0">
        69 49 38 13 13 hvcurveto
        7 hlineto
        -26 7 12 -20 50 hhcurveto
        54 53 21 0 hvcurveto
        46 vlineto
        -72 -47 callgsubr
        88 -55 40 -103 -73 -138 -41 -87 -39 24 -15 37 26 19 9 0 vhcurveto
        15 91 rlineto
        0 16 6 35 63 20 -28 -51 vhcurveto
        -69 vlineto
        -101 -16 rlineto
        -101 -16 -70 -46 -87 vvcurveto
        -68 41 -60 103 vhcurveto
        58 78 rmoveto
        -57 -23 27 39 49 30 29 120 9 hvcurveto
        -136 vlineto
        -5 -8 -28 -12 -34 hhcurveto
        return
      </CharString>
      <CharString index="1">
        rmoveto
        50 59 21 30 33 hvcurveto
        -32 callgsubr
        409 vlineto
        -35 14 -161 -25 rlineto
        -50 vlineto
        81 -16 rlineto
        -327 vlineto
        -10 -20 -35 -8 -27 hhcurveto
        -73 -22 22 77 hvcurveto
        323 vlineto
        -34 14 -161 -25 rlineto
        -50 vlineto
        81 -16 rlineto
        -285 vlineto
        -93 50 -47 98 vhcurveto
        return
      </CharString>
      <CharString index="2">
        rmoveto
        -17 callgsubr
        209 -108 119 -190 -39 callsubr
        hvcurveto
        19 73 rmoveto
        -122 -60 74 201 212 65 44 105 112 62 -63 -212 -181 -48 -75 -114 hvcurveto
        return
      </CharString>
      <CharString index="3">
        rmoveto
        62 5 -3 16 9 5 26 10 rlinecurve
        37 16 15 23 25 vvcurveto
        50 -49 26 -81 -56 -16 -13 -20 -9 3 -12 13 -16 vhcurveto
        5 19 20 3 18 hhcurveto
        29 13 -6 -15 -15 -12 -9 -17 -8 hvcurveto
        -28 -14 -11 -10 -13 vvcurveto
        -6 3 -8 6 -10 vhcurveto
        return
      </CharString>
      <CharString index="4">
        -64 callsubr
        -106 -34 62 94 -1 vhcurveto
        248 hlineto
        33 14 16 70 91 -43 103 -142 -137 -95 -103 -168 -169 80 -78 151 hvcurveto
        -108 296 rmoveto
        89 2 23 59 74 hhcurveto
        65 12 -35 -70 -10 -1 -13 -2 -12 hvcurveto
        return
      </CharString>
      <CharString index="5">
        rmoveto
        68 49 38 13 13 hvcurveto
        7 hlineto
        -26 7 13 -20 49 hhcurveto
        54 53 21 0 hvcurveto
        46 vlineto
        -72 -47 callgsubr
        88 -55 40 -103 -73 -138 -41 -87 -39 25 -15 36 26 19 9 0 vhcurveto
        15 91 -44 callgsubr
        -69 vlineto
        -101 -16 rlineto
        -101 -16 -70 -46 -87 vvcurveto
        -68 41 -60 104 vhcurveto
        57 78 rmoveto
        -56 -24 -68 callgsubr
      </CharString>
      <CharString index="6">
        -56 callgsubr
        195 56 19 callgsubr
        rlineto
        -300 vlineto
        -161 -35 -54 -106 -122 -35 39 176 vhcurveto
        301 vlineto
        77 17 rlineto
        52 -280 -52 vlineto
        return
      </CharString>
      <CharString index="7">
        rmoveto
        -52 vlineto
        86 -18 rlineto
        -251 vlineto
        -25 -37 -41 -14 -43 hhcurveto
        -113 -22 74 122 hvcurveto
        95 34 callsubr
        -103 vlineto
        -178 57 -89 185 50 44 10 19 42 vhcurveto
        -112 -2 -29 -71 -124 hhcurveto
        -47 -46 10 18 -37 hvcurveto
        -27 117 rlineto
        -62 -165 hlineto
        -29 52 80 -23 95 hhcurveto
        207 62 109 158 hvcurveto
        329 vlineto
        77 17 rlineto
        52 vlineto
        endchar
      </CharString>
      <CharString index="8">
        rmoveto
        161 74 68 149 hvcurveto
        439 vlineto
        -35 14 -161 -25 rlineto
        -50 vlineto
        81 -16 rlineto
        -283 vlineto
        -11 -21 -34 -8 -27 hhcurveto
        -73 -22 23 77 hvcurveto
        279 vlineto
        -34 14 -161 -25 rlineto
        -50 vlineto
        81 -16 rlineto
        -241 vlineto
        -94 50 -46 98 51 57 20 31 35 vhcurveto
        -36 vlineto
        -102 -34 -40 -91 -31 -36 5 9 -25 vhcurveto
        -28 98 rlineto
        -62 -146 hlineto
        -23 47 72 -14 68 hhcurveto
        endchar
      </CharString>
      <CharString index="9">
        rmoveto
        -55 vlineto
        72 -9 -3 -12 -89 -246 -12 -37 -3 27 -92 256 -2 13 67 9 rlineto
        54 -259 -51 vlineto
        67 -14 167 -430 rlineto
        2 hlineto
        -31 -79 -130 -33 rlineto
        -49 vlineto
        -5 21 34 -4 25 hhcurveto
        72 35 18 48 18 hvcurveto
        199 534 62 12 rlineto
        53 vlineto
        return
      </CharString>
      <CharString index="10">
        rmoveto
        41 -25 14 -8 6 vhcurveto
        -66 -44 rlineto
        -15 vlineto
        9 -8 7 -8 -15 vvcurveto
        -27 -19 -27 -26 -24 vhcurveto
        66 -33 -63 40 -97 hhcurveto
        -39 callgsubr
        -67 callgsubr
        37 -4 34 -9 31 hvcurveto
        87 58 26 48 38 vvcurveto
        -325 -452 -58 callsubr
        return
      </CharString>
</ttFont>
